<svg xmlns="http://www.w3.org/2000/svg" xmlns:xlink="http://www.w3.org/1999/xlink" width="260" height="290" viewBox="0 0 260 290">
  <defs>
    <clipPath id="clip-path">
      <rect
        id="Rectangle_56"
        data-name="Rectangle 56"
        width="260"
        height="290"
        transform="translate(-4120 6475)"
        fill="none"
        stroke="#707070"
        stroke-width="1"
      />
    </clipPath>
    <clipPath id="clip-path-2">
      <ellipse
        id="Ellipse_28"
        data-name="Ellipse 28"
        cx="99.5"
        cy="72"
        rx="99.5"
        ry="72"
        transform="translate(-4153 6229)"
        fill="#4db954"
      />
    </clipPath>
  </defs>
  <g id="avatar_dark" transform="translate(4120 -6475)" clip-path="url(#clip-path)">
    <g id="Group_68" data-name="Group 68" transform="translate(63 438)">
      <circle id="Ellipse_33" data-name="Ellipse 33" cx="120" cy="120" r="120" transform="translate(-4173 6080)" fill="#d8dbee" />
      <g id="Mask_Group_14" data-name="Mask Group 14" clip-path="url(#clip-path-2)">
        <circle
          id="Ellipse_32"
          data-name="Ellipse 32"
          cx="120"
          cy="120"
          r="120"
          transform="translate(-4173 6080)"
          fill="#4db954"
        />
      </g>
      <g id="Group_67" data-name="Group 67">
        <path
          id="Union_16"
          data-name="Union 16"
          d="M0,40.83a123.427,123.427,0,0,1,20.511-5.616V0h49V35.214A122.665,122.665,0,0,1,91.9,41.547C88.3,62.221,69.128,78,46.012,78,22.628,78,3.276,61.855,0,40.83Z"
          transform="translate(-4098.511 6197)"
          fill="#aa784f"
        />
        <g id="Group_65" data-name="Group 65">
          <path
            id="Subtraction_42"
            data-name="Subtraction 42"
            d="M18,30H8a8.009,8.009,0,0,1-8-8V3A3,3,0,0,1,3,0H18V30ZM6.5,21A2.5,2.5,0,1,0,9,23.5,2.5,2.5,0,0,0,6.5,21Z"
            transform="translate(-4120 6145)"
            fill="#aa784f"
          />
          <path
            id="Ellipse_32-2"
            data-name="Ellipse 32"
            d="M3.5,1.5a2,2,0,1,0,2,2,2,2,0,0,0-2-2M3.5,0A3.5,3.5,0,1,1,0,3.5,3.5,3.5,0,0,1,3.5,0Z"
            transform="translate(-4117 6165)"
            fill="#9f9f9f"
          />
        </g>
        <g id="Group_66" data-name="Group 66" transform="translate(-4005 6145)">
          <path
            id="Subtraction_42-2"
            data-name="Subtraction 42"
            d="M18,30H3a3,3,0,0,1-3-3V8A8.009,8.009,0,0,1,8,0H18V30ZM6.5,4A2.5,2.5,0,1,0,9,6.5,2.5,2.5,0,0,0,6.5,4Z"
            transform="translate(18 30) rotate(180)"
            fill="#aa784f"
          />
          <path
            id="Ellipse_32-3"
            data-name="Ellipse 32"
            d="M3.5,1.5a2,2,0,1,1-2,2,2,2,0,0,1,2-2M3.5,0A3.5,3.5,0,1,0,7,3.5,3.5,3.5,0,0,0,3.5,0Z"
            transform="translate(8 20)"
            fill="#9f9f9f"
          />
        </g>
        <path
          id="Path_211"
          data-name="Path 211"
          d="M58,4.567c52.112,1.414,56.5,30.865,56.5,74.389s-9.746,77.812-56.5,78.807S-1.971,122.48-1.971,78.956,5.888,3.154,58,4.567Z"
          transform="translate(-4110 6063)"
          fill="#aa784f"
        />
      </g>
      <path
        id="Path_210"
        data-name="Path 210"
        d="M-4611.624,6026.394c-.163-1.137-.326-11.207,6.021-17.378s13.182-11.207,25.387-13.805,24.9-8.608,31.083-13.156,7-5.2,7-5.2,2.929,4.06,2.929,6.334a10.541,10.541,0,0,1-1.791,4.872s9.439-.975,21.319,4.385,13.507,6.171,18.715,11.207,5.533,6.821,10.251,9.582a20.546,20.546,0,0,0,9.928,3.249c2.278.163,5.859,0,5.859,0s-5.045,6.822-9.439,9.907-8.137,5.847-8.137,5.847a34.145,34.145,0,0,1,3.255,16.4c-.488,9.42-.977,11.856-2.441,16.891a73.219,73.219,0,0,1-4.719,11.206s-6.021-2.924-11.88-14.78a54.452,54.452,0,0,1-5.37-23.712,118.724,118.724,0,0,1-14.321,0A75.622,75.622,0,0,1-4541,6036.3s.326,5.36,6.022,12.344a51.157,51.157,0,0,0,11.554,10.557s-10.9.974-25.712-5.36a94.633,94.633,0,0,1-23.6-14.13s-3.092.487-2.278,2.923,4.882,7.309,4.882,7.309a127.086,127.086,0,0,1-14.971-2.924c-5.371-1.624-9.114-2.923-9.114-2.923a39.857,39.857,0,0,1-4.557,16.729c-4.394,7.8-5.858,10.232-7.974,12.182a42.216,42.216,0,0,1-4.882,3.735s-6.509-14.78-6.672-26.8S-4611.624,6026.394-4611.624,6026.394Z"
        transform="translate(500.622 65.142)"
        fill="#5d0f0c"
      />
      <g id="Group_64" data-name="Group 64">
        <path
          id="Path_207"
          data-name="Path 207"
          d="M-4117.678,6139.586s10.726-6.923,34.459-6.036,19.838,5.184,30.752,5.259,7.016-4.1,30.09-5.259,34.235,5.259,34.235,5.259v5.767s-4.658.555-5.656,4.214-2.218,13.42-4.1,17.19-9.649,7.319-20.85,7.43-20.638-1.222-23.666-3.438-4.061-24.289-10.05-24.066-8.336,22.195-11,24.066-10.752,3.844-21.757,3.438-20.134-3.006-22.181-7.784-3.484-13.257-4.493-16.837-5.78-4.214-5.78-4.214Z"
        />
        <path
          id="Path_208"
          data-name="Path 208"
          d="M19.619-1.133C34.036-.989,44.449.774,44.449,9.887c0,4.429-2.44,16.824-5.323,19.852C35.954,32.478,26.961,33,21,33c-6.344,0-14.827-1.265-19.259-5.01C-1.5,25.254-3.305,13.232-3.305,9.1-4.891-.412,5.2-1.277,19.619-1.133Z"
          transform="translate(-4105 6138)"
          fill="#2d5b30"
        />
        <path
          id="Path_209"
          data-name="Path 209"
          d="M21.762-1.133C7.344-.989-3.469,1.288-3.469,10.4c0,4.429,2.451,17.013,5.335,20.04C5.038,33.18,14.419,33,20.381,33c6.344,0,14.827-1.265,19.259-5.01,3.245-2.736,5.046-14.759,5.046-18.887C46.272-.412,36.179-1.277,21.762-1.133Z"
          transform="translate(-4041 6137.541)"
          fill="#2d5b30"
        />
      </g>
    </g>
  </g>
</svg>
