<svg xmlns="http://www.w3.org/2000/svg" xmlns:xlink="http://www.w3.org/1999/xlink" width="279" height="177.606" viewBox="0 0 279 177.606">
  <defs>
    <filter id="Path_1038" x="3.667" y="0" width="271.665" height="177.606" filterUnits="userSpaceOnUse">
      <feOffset input="SourceAlpha"/>
      <feGaussianBlur stdDeviation="4" result="blur"/>
      <feFlood flood-color="#ebebeb"/>
      <feComposite operator="in" in2="blur"/>
    </filter>
  </defs>
  <g id="axie_logo" transform="translate(1804 -2173.697)">
    <g transform="matrix(1, 0, 0, 1, -1804, 2173.7)" filter="url(#Path_1038)">
      <path id="Path_1038-2" data-name="Path 1038" d="M899.013,5656.545a4.946,4.946,0,0,0-.106-.674,4.335,4.335,0,0,0-.331-1.067c-1.75-4.546-7-5.54-11.7-5.73a30.983,30.983,0,0,0,2.95-7.759c.723-4.048-1.47-7.513-3.813-10.616-2.29-3.032-5.715-4.778-9.091-6.355-1.479-.691-2.982-1.329-4.494-1.949a8.787,8.787,0,0,0,.567-1.074c.891-2.03.826-4.075,1.026-6.227a37.43,37.43,0,0,0,.532-4.885c-.233-6.348-5.983-8.97-11.062-11.9a20.39,20.39,0,0,0,4.112-3.6c2.366-2.873,2.964-6.93,2.765-10.547a96.305,96.305,0,0,0-1.805-11.415c-.609-3.451-2.513-6.322-6.014-7.328-8.222-2.365-17.574-1.173-25.848.215-3.452.58-6.876,1.306-10.285,2.1.446-.854.889-1.708,1.319-2.571a12.109,12.109,0,0,0-.861-13.081c-2.686-3.964-6.368-6.994-9.792-10.276-3.3-3.163-6.262-6.628-10.666-8.271-4.828-1.8-8.283.349-12.036,3.234a70.432,70.432,0,0,0-10.606,9.43,24.74,24.74,0,0,0-6.066,11.947c-.6,3.294-.949,6.654-1.286,10-2.447.605-4.694,2.354-6.85,4.11-3.228,2.631-6.338,5.4-9.539,8.063-3.844-3.715-8.042-7.775-13.351-8.25-4.848-.436-9.06,2.271-12.826,5.25a12.569,12.569,0,0,0-7.815-4.747,57.34,57.34,0,0,0-13.308-.045c-.683-.667-1.4-1.305-2.071-2-1.952-2.015-3.91-4.032-5.79-6.115-3.338-3.7-6.91-8.455-12-9.693-9.915-2.407-16.962,10.237-19.493,18.547-2.15,1.783-2.938,4.458-4.152,7.049-1.527,3.258-3.342,6.568-3.489,10.248-.269,6.787,5.848,10.178,11.329,13q-4.122,11.595-8.178,23.214-2.253,6.467-4.473,12.94c-1.1,3.219-2.444,6.482-3.473,9.774-3.947.456-7.654,1.936-8.885,6.273-1.165,4.1,1.318,9.41,2.635,13.273,1.564,4.58,3.619,9.326,7.581,12.322,3.725,2.817,8.261,3.334,12.8,3.467,5.958.173,11.921-.156,17.878.111,5.681.255,11.336.926,17.023,1.07a65.28,65.28,0,0,0,8.473-.278,41.383,41.383,0,0,1,6.422-.653,25.33,25.33,0,0,0,4.8-.278c2.432-.33,5-.343,7.38-.766a28.455,28.455,0,0,1,3.866-.495c.661-.03,1.314-.092,1.971-.182.672-.093,1.662-.343,1.179-.409a20.956,20.956,0,0,0,2.744.153c1.408-.1,2.82-.182,4.227-.3a53.605,53.605,0,0,1,6.825-.356,15.263,15.263,0,0,0,5.629-.65,13.206,13.206,0,0,0,7.449-.167c3.631.949,7.754.276,11.434.45,3.606.17,7.432.418,11.014-.3a14.06,14.06,0,0,0,5.218.819,17.507,17.507,0,0,0,4.342.087,13.165,13.165,0,0,0,3.63.867c1.695.143,3.3-.417,4.975-.354,1.429.055,2.823.808,4.226,1.063a19.474,19.474,0,0,0,4.54.246c2.558,1.12,6.327.976,8.813,1.342a34.741,34.741,0,0,0,6.554.619c1.41-.052,2.823-.063,4.234-.1l17.223-.389,17.5-.395,8.47-.192c2.985-.068,6.207.189,9.149-.34a8.384,8.384,0,0,0,5.805-3.878c1.4-2.373,1.106-5.231,1.106-7.868,0-5.437.654-11.369-.161-16.776" transform="translate(-636.09 -5520.88)" fill="#fff"/>
    </g>
    <g id="Group_303" data-name="Group 303" transform="translate(-2440.086 -3347.184)">
      <path id="Path_1038-3" data-name="Path 1038" d="M899.013,5656.545a4.946,4.946,0,0,0-.106-.674,4.335,4.335,0,0,0-.331-1.067c-1.75-4.546-7-5.54-11.7-5.73a30.983,30.983,0,0,0,2.95-7.759c.723-4.048-1.47-7.513-3.813-10.616-2.29-3.032-5.715-4.778-9.091-6.355-1.479-.691-2.982-1.329-4.494-1.949a8.787,8.787,0,0,0,.567-1.074c.891-2.03.826-4.075,1.026-6.227a37.43,37.43,0,0,0,.532-4.885c-.233-6.348-5.983-8.97-11.062-11.9a20.39,20.39,0,0,0,4.112-3.6c2.366-2.873,2.964-6.93,2.765-10.547a96.305,96.305,0,0,0-1.805-11.415c-.609-3.451-2.513-6.322-6.014-7.328-8.222-2.365-17.574-1.173-25.848.215-3.452.58-6.876,1.306-10.285,2.1.446-.854.889-1.708,1.319-2.571a12.109,12.109,0,0,0-.861-13.081c-2.686-3.964-6.368-6.994-9.792-10.276-3.3-3.163-6.262-6.628-10.666-8.271-4.828-1.8-8.283.349-12.036,3.234a70.432,70.432,0,0,0-10.606,9.43,24.74,24.74,0,0,0-6.066,11.947c-.6,3.294-.949,6.654-1.286,10-2.447.605-4.694,2.354-6.85,4.11-3.228,2.631-6.338,5.4-9.539,8.063-3.844-3.715-8.042-7.775-13.351-8.25-4.848-.436-9.06,2.271-12.826,5.25a12.569,12.569,0,0,0-7.815-4.747,57.34,57.34,0,0,0-13.308-.045c-.683-.667-1.4-1.305-2.071-2-1.952-2.015-3.91-4.032-5.79-6.115-3.338-3.7-6.91-8.455-12-9.693-9.915-2.407-16.962,10.237-19.493,18.547-2.15,1.783-2.938,4.458-4.152,7.049-1.527,3.258-3.342,6.568-3.489,10.248-.269,6.787,5.848,10.178,11.329,13q-4.122,11.595-8.178,23.214-2.253,6.467-4.473,12.94c-1.1,3.219-2.444,6.482-3.473,9.774-3.947.456-7.654,1.936-8.885,6.273-1.165,4.1,1.318,9.41,2.635,13.273,1.564,4.58,3.619,9.326,7.581,12.322,3.725,2.817,8.261,3.334,12.8,3.467,5.958.173,11.921-.156,17.878.111,5.681.255,11.336.926,17.023,1.07a65.28,65.28,0,0,0,8.473-.278,41.383,41.383,0,0,1,6.422-.653,25.33,25.33,0,0,0,4.8-.278c2.432-.33,5-.343,7.38-.766a28.455,28.455,0,0,1,3.866-.495c.661-.03,1.314-.092,1.971-.182.672-.093,1.662-.343,1.179-.409a20.956,20.956,0,0,0,2.744.153c1.408-.1,2.82-.182,4.227-.3a53.605,53.605,0,0,1,6.825-.356,15.263,15.263,0,0,0,5.629-.65,13.206,13.206,0,0,0,7.449-.167c3.631.949,7.754.276,11.434.45,3.606.17,7.432.418,11.014-.3a14.06,14.06,0,0,0,5.218.819,17.507,17.507,0,0,0,4.342.087,13.165,13.165,0,0,0,3.63.867c1.695.143,3.3-.417,4.975-.354,1.429.055,2.823.808,4.226,1.063a19.474,19.474,0,0,0,4.54.246c2.558,1.12,6.327.976,8.813,1.342a34.741,34.741,0,0,0,6.554.619c1.41-.052,2.823-.063,4.234-.1l17.223-.389,17.5-.395,8.47-.192c2.985-.068,6.207.189,9.149-.34a8.384,8.384,0,0,0,5.805-3.878c1.4-2.373,1.106-5.231,1.106-7.868,0-5.437.654-11.369-.161-16.776" fill="#263577"/>
      <path id="Path_1039" data-name="Path 1039" d="M904.868,5662.617a5.911,5.911,0,0,0-.474-.916,6.036,6.036,0,0,0-.595-.92c-1.09-1.386-2.833-2.7-3.857-4.244q1-2.371,2.011-4.741c.916-2.159,2.639-4.738,2.1-7.166-.391-1.759-1.533-3.006-2.434-4.493a11.49,11.49,0,0,0-5-4.372c-4.6-2.547-9.556-4.3-14.42-6.264,2.419-.833,4.783-1.748,5.563-4.5.533-1.888.207-3.881.605-5.764.581-2.757.639-5.564-2.094-7.255-3.645-2.256-7.42-4.028-10.8-6.766-.378-.305-.736-.622-1.088-.933q2.473-1.742,4.935-3.5c1.495-1.062,3.2-1.953,4.036-3.637,2.635-5.305.131-12.183-.575-17.656-.229-1.775-1.125-3.571-3.053-4.009-8.464-1.925-17.224-.964-25.672.574-4.051.737-8.064,1.669-12.06,2.664-2.135.531-3.968.82-5.464,2.536-.182.209-.355.423-.522.643-.072-.022-.144-.046-.216-.067q2.136-4.245,4.27-8.494c1.13-2.245,3.489-5.343,3.489-7.911a9.665,9.665,0,0,0-1.987-5.183c-2.276-3.246-5.612-6.193-8.528-8.859-3.089-2.828-5.757-6.476-9.843-7.939a5.4,5.4,0,0,0-5.726.915c-1.808,1.368-3.616,2.74-5.381,4.167a47.777,47.777,0,0,0-9.1,9.228c-2.888,4.058-3.164,8.377-3.713,13.208q-.444,3.914-.88,7.83c-.049-.029-.093-.061-.144-.087a4.111,4.111,0,0,0-4.195,0c-5.518,4.148-10.505,8.957-15.955,13.182-2.139-1.9-4.226-3.854-6.368-5.757-1.974-1.752-4.064-3.482-6.763-3.838a10.391,10.391,0,0,0-7.121,2.142c-2.245,1.508-4.371,3.209-6.479,4.928a27.019,27.019,0,0,0-3.829-4.938c-1.743-1.655-4.4-1.868-6.671-1.95a64.874,64.874,0,0,0-7.1.269c-1.332.1-3.026-.029-4.465.149-.394-.834-1.966-1.971-2.595-2.627q-2.46-2.572-4.917-5.143c-2.531-2.647-4.978-5.77-7.76-8.141-2.844-2.422-5.855-3.292-9.071-1.006a20.755,20.755,0,0,0-5.593,6.492,35.209,35.209,0,0,0-4.124,9.484,4.906,4.906,0,0,0-.527.26c-1.541.9-1.954,2.34-2.561,3.878-.888,2.25-2.432,4.981-3.334,7.521-1.061,2.99-1.073,6.215,1.736,8.211a97.506,97.506,0,0,0,9.91,5.78q-9.192,25.8-17.993,51.726a4.082,4.082,0,0,0,1.069,4.045c1.935,1.745,4.188,1.915,6.689,1.835,3.555-.112,7.111-.311,10.665-.479,6.863-.322,13.726-.605,20.584-.96,3.286-.17,6.574-.263,9.858-.455,2.727-.161,5.035-1.515,7.528-2.577,3.479-1.48,6.432-3.428,8.276-6.439,3.078.557,6.392,1.22,9.163.187a57.832,57.832,0,0,1,5.851-1.392,7.582,7.582,0,0,0,5.491-4.715q2.365,1.145,4.741,2.256a4.419,4.419,0,0,0,5.037-.65,105.6,105.6,0,0,0,8.206-7.775c1.547,1.013,3.062,2.071,4.594,3.106,2.129,1.439,4.964,3.853,7.579,4.164,2.451.291,5.559-1.771,7.581-3.05.515-.327,1.01-.667,1.489-1.021a12.964,12.964,0,0,0,4.161,2.276,48.352,48.352,0,0,0,5.244,1.266c1.842.415,3.524,1.239,5.412.661.951-.29,1.892-.649,2.829-1.03.055.165.111.33.177.492,1.106,2.742,2.764,3.351,5.492,3.913a78.263,78.263,0,0,1,10.642,3.017c-.021.338-.034.666-.045.791a14.908,14.908,0,0,0-.063,2.189c.119,1.9.8,4.084,2.555,5.108s4.4.839,6.392,1.049q3.234.345,6.471.637c9.194.84,18.407,1.452,27.6,2.291,4.031.367,8.091.883,12.135,1.174,3.733.269,11.353-.846,8.977-6.629m-176.319-79.582c-.093.023-.19.039-.278.064s-.262-.052-.33-.012a.706.706,0,0,1,.608-.052" transform="translate(-18.289 -6.059)" fill="#1e1b30"/>
      <path id="Path_1040" data-name="Path 1040" d="M1013.072,5561.244a106.706,106.706,0,0,0-9.361-8.286,1.1,1.1,0,0,0-1.281-.1,64.377,64.377,0,0,0-7.142,5.584,70.229,70.229,0,0,0-9.1,9.969,1.042,1.042,0,0,0,.08,1.319,88.988,88.988,0,0,0,8.507,8.419,102.078,102.078,0,0,0,9.913,7.566,1.081,1.081,0,0,0,1.218.041,68.945,68.945,0,0,0,9.567-8.025,62.386,62.386,0,0,0,5.6-6.5,1.094,1.094,0,0,0-.132-1.326c-2.29-2.779-4.9-5.705-7.874-8.656" transform="translate(-199.959 -11.855)" fill="#f3e400"/>
      <path id="Path_1041" data-name="Path 1041" d="M1028.169,5649.59a.23.23,0,0,0-.21-.2q-6.468-.249-12.983-.129c-3.408.056-7.574.231-11.02.464a.163.163,0,0,0-.122.062.166.166,0,0,0-.034.132q.675,4.414,1.349,8.834a.2.2,0,0,0,.193.169c.905.008,1.885.056,2.933.166a31.406,31.406,0,0,1,3.125.491.213.213,0,0,1,.158.141,21.565,21.565,0,0,1,.619,9.21,17.366,17.366,0,0,1-4.147,8.829.157.157,0,0,0-.037.141q1.762,9.007,3.524,18.041a.215.215,0,0,0,.147.16q4,1.2,8.246,2.483,5.8,1.749,11.182,3.388a.148.148,0,0,0,.2-.144c-.169-10.187-.609-20.859-1.384-31.979q-.723-10.369-1.746-20.258" transform="translate(-210.613 -69.601)" fill="#f3e400"/>
      <path id="Path_1042" data-name="Path 1042" d="M907.974,5676.338a.337.337,0,0,0-.457-.184,12.144,12.144,0,0,1-7.345,1.252c-5.042-.792-9.445-4.955-10.954-10.708a.317.317,0,0,1,.1-.316q7.791-6.508,15.572-12.5a.3.3,0,0,0,.015-.454q-6.345-6.523-12.7-12.705a.321.321,0,0,0-.427-.022q-8.915,7.107-17.823,14.889a.327.327,0,0,1-.426.011q-6.891-6.064-13.753-11.725a.315.315,0,0,0-.383,0q-7.253,5.194-14.452,10.839a.339.339,0,0,0-.106.447q5.464,7.731,10.961,15.721a.316.316,0,0,1-.037.378q-6.785,8.158-13.52,16.712a.3.3,0,0,0,.017.433q7.141,5.057,14.342,10.556a.329.329,0,0,0,.424-.057q8.8-8.921,17.66-17.179a.325.325,0,0,1,.409-.035q6.153,4.447,13.719,9.3,4.165,2.659,8.155,5.049a.329.329,0,0,0,.3.023,58.775,58.775,0,0,0,7.254-3.675,52.149,52.149,0,0,0,6.508-4.6.28.28,0,0,0,.094-.267,54.6,54.6,0,0,0-2.074-8.279c-.34-1.016-.7-1.987-1.07-2.915" transform="translate(-113.909 -64.462)" fill="#f3e400"/>
      <path id="Path_1043" data-name="Path 1043" d="M750.127,5624.518c-25.792.858-27.676.825-29.927.184-2.175-.3-3.361-3.128-2.175-5.721a37.421,37.421,0,0,1,3.425-5.441,1,1,0,0,0,.088-1.264q-2.892-2.953-5.767-5.826a.671.671,0,0,0-.857.017,21.206,21.206,0,0,0-9.456,18.035q-1.066-.463-2.129-.912c-.223-.1-.562.128-.695.459q-2.206,5.48-4.394,11.008c-.17.421-.08.8.214.888q6.077,1.9,12.275,4.161c1.153.513,1.541,2.009.945,3.665q-9.642,26.826-19.005,54.536c-.052.156-.008.285.1.3q1.1.195,2.212.4a.247.247,0,0,0,.148-.027q8.063-3.991,16.343-7.331a1.587,1.587,0,0,0,.794-.783q3.355-7.156,6.739-14.207a1.532,1.532,0,0,1,1.272-.917q3.937.081,7.914.308a.7.7,0,0,1,.657.521q1.149,3.987,2.3,7.987a.746.746,0,0,0,1.031.454q7.936-2.591,15.989-4.611a1.489,1.489,0,0,0,1.1-1.335q.64-27.064,1.282-54.122a.4.4,0,0,0-.419-.43m-18.423,32.918-.571.577a2.675,2.675,0,0,1-1.347.76,20.128,20.128,0,0,1-4.267.4,15.9,15.9,0,0,1-3.254-.379.691.691,0,0,1-.479-.889c.611-3.1,1.74-6.135,2.978-10.312a16.756,16.756,0,0,1,.9-1.832,3.424,3.424,0,0,1,2.276-1.868c.313-.061.919-.2,1.256-.244a13.941,13.941,0,0,1,2.117-.106,1.069,1.069,0,0,1,1.045,1.137l.182,10.863a2.716,2.716,0,0,1-.83,1.888" transform="translate(-24.464 -43.926)" fill="#f3e400"/>
      <path id="Path_1044" data-name="Path 1044" d="M1135.172,5716.808c-.732-.894-2.035-2.253-2.786-3.181q-1.269-1.571-2.472-3.083a.843.843,0,0,1-.193-.79q2.327-5.492,4.638-10.931a.878.878,0,0,0-.207-.811,17.431,17.431,0,0,1-1.4-2.052,16.442,16.442,0,0,1-.828-1.63,1.093,1.093,0,0,0-.482-.529,239.879,239.879,0,0,0-25.242-10.987.961.961,0,0,1-.548-.584l-1.045-3.174c-.114-.344.033-.636.33-.66q6.431-.508,12.761-.633a.364.364,0,0,0,.361-.4,38.406,38.406,0,0,1,.414-4.9c.158-1.028.348-1.979.562-2.85a.951.951,0,0,0-.541-.957,52.4,52.4,0,0,1-8.063-4.7,56.9,56.9,0,0,1-6.024-4.9.616.616,0,0,0-.714-.161q-2.381,1.471-4.776,2.992a.6.6,0,0,1-.7-.125,11.285,11.285,0,0,1-3.624-5.678,6.486,6.486,0,0,1,.558-4.784.492.492,0,0,1,.718-.094q.95.587,1.936,1.249c1.718,1.154,3.3,2.339,4.737,3.514.279.226.611.241.769.026a20.857,20.857,0,0,1,6.388-5.728,20.039,20.039,0,0,1,4.529-1.891.375.375,0,0,0,.265-.394,73.682,73.682,0,0,0-.87-11.567q-.3-1.977-.683-3.844a.927.927,0,0,0-.76-.731,111.866,111.866,0,0,0-15.092.361,119.175,119.175,0,0,0-22.763,4.39.494.494,0,0,0-.321.623q6.91,28.942,13.748,58.3a.848.848,0,0,0,.643.626,130.749,130.749,0,0,1,18.011,4.492q4.388,1.428,8.548,3.1a.983.983,0,0,1,.585.84v11.089a.965.965,0,0,0,.716.878,80.049,80.049,0,0,0,10.585,1.123c2.936.1,5.687.754,7.905.547a.981.981,0,0,0,.423-1.413" transform="translate(-252.603 -59.146)" fill="#f3e400"/>
      <path id="Path_1045" data-name="Path 1045" d="M984.492,5686.508c-1.205.031-1.965,2.9-1.7,6.39s1.46,6.293,2.664,6.268,1.964-2.874,1.7-6.372-1.459-6.317-2.664-6.286" transform="translate(-198.015 -91.908)" fill="#f3e400"/>
      <path id="Path_1046" data-name="Path 1046" d="M1013.062,5561.313a106.826,106.826,0,0,0-9.361-8.285,1.1,1.1,0,0,0-1.28-.1,64.389,64.389,0,0,0-7.144,5.584,70.352,70.352,0,0,0-9.1,9.968,1.043,1.043,0,0,0,.08,1.319,89.146,89.146,0,0,0,8.508,8.42,102.293,102.293,0,0,0,9.911,7.567,1.085,1.085,0,0,0,1.22.039,68.981,68.981,0,0,0,9.568-8.026,62.163,62.163,0,0,0,5.6-6.5,1.1,1.1,0,0,0-.133-1.326c-2.29-2.78-4.9-5.707-7.874-8.657" transform="translate(-199.954 -11.897)" fill="#f2bd00"/>
      <path id="Path_1047" data-name="Path 1047" d="M1028.16,5649.659a.23.23,0,0,0-.208-.2q-6.468-.249-12.983-.13c-3.408.058-7.574.233-11.021.466a.164.164,0,0,0-.154.193q.673,4.416,1.349,8.836a.2.2,0,0,0,.193.167c.9.008,1.884.058,2.933.168a31.372,31.372,0,0,1,3.123.489.209.209,0,0,1,.158.141,21.539,21.539,0,0,1,.621,9.211,17.361,17.361,0,0,1-4.147,8.828.16.16,0,0,0-.036.143q.535,2.736,1.07,5.477a127.54,127.54,0,0,0,21.337-5.8q-.22-3.83-.488-7.734-.723-10.368-1.747-20.258" transform="translate(-210.609 -69.642)" fill="#f2bd00"/>
      <path id="Path_1048" data-name="Path 1048" d="M911.433,5676.232a12.15,12.15,0,0,1-7.345,1.253c-5.043-.792-9.446-4.957-10.954-10.711a.309.309,0,0,1,.1-.314q7.788-6.5,15.57-12.5a.3.3,0,0,0,.016-.455q-6.346-6.524-12.7-12.706a.325.325,0,0,0-.427-.022q-8.916,7.107-17.824,14.889a.325.325,0,0,1-.426.011q-6.889-6.064-13.751-11.726a.316.316,0,0,0-.385,0q-7.253,5.2-14.452,10.839a.34.34,0,0,0-.106.447q5.464,7.73,10.961,15.722a.314.314,0,0,1-.037.377q-1.536,1.849-3.068,3.714a129.464,129.464,0,0,0,56.2,3.841c-.294-.857-.6-1.689-.918-2.483a.339.339,0,0,0-.189-.191.335.335,0,0,0-.268.008" transform="translate(-117.83 -64.51)" fill="#f2bd00"/>
      <path id="Path_1049" data-name="Path 1049" d="M770.079,5624.588c-25.792.859-27.676.826-29.928.187-2.177-.3-3.36-3.129-2.175-5.721a37.4,37.4,0,0,1,3.425-5.442,1.007,1.007,0,0,0,.089-1.265q-2.9-2.952-5.767-5.825a.673.673,0,0,0-.859.017,20.878,20.878,0,0,0-5.3,5.037,21.543,21.543,0,0,0-3.568,7.533,128.811,128.811,0,0,0,43.91,30.657q.294-12.373.587-24.744a.4.4,0,0,0-.419-.432" transform="translate(-44.418 -43.969)" fill="#f2bd00"/>
      <path id="Path_1050" data-name="Path 1050" d="M1094.579,5656.161a6.5,6.5,0,0,1,.56-4.783.494.494,0,0,1,.718-.093q.95.586,1.936,1.248c.5.333.976.668,1.446,1a129.151,129.151,0,0,0,15-11.672c-.138-1.7-.34-3.488-.628-5.372-.2-1.317-.433-2.6-.683-3.843a.926.926,0,0,0-.758-.732,111.706,111.706,0,0,0-15.092.362,119.009,119.009,0,0,0-22.766,4.391.5.5,0,0,0-.321.623q3.174,13.287,6.331,26.667a128.387,128.387,0,0,0,14.339-7.5c-.028-.1-.056-.2-.08-.3" transform="translate(-252.59 -59.186)" fill="#f2bd00"/>
      <path id="Path_1051" data-name="Path 1051" d="M984.49,5686.579c-1.205.031-1.966,2.9-1.7,6.39s1.461,6.294,2.665,6.268,1.964-2.874,1.7-6.373-1.459-6.317-2.664-6.286" transform="translate(-198.014 -91.95)" fill="#f2bd00"/>
      <path id="Path_1052" data-name="Path 1052" d="M901.034,5823.495a3.54,3.54,0,0,0-2.933-2.973,30.651,30.651,0,0,0-12.158-.393,6.533,6.533,0,0,0-2.649-1.734c-1.983-.717-4.081-.407-6.088-.876a4.418,4.418,0,0,0-1.8-.041,6.839,6.839,0,0,0-1.543.273l-.924.241a2.91,2.91,0,0,0-.462.12,3.085,3.085,0,0,0-.463.121,3.278,3.278,0,0,0-.426.107c-5.1-4.047-12.272-3.085-18.48-.873-3.945-3.724-9.088-4.83-14.755-2.992-4.641,1.5-8.665,4.332-13,6.459-1.717-4.677-4.615-9.311-10-8.965-3.623.232-6.017,2.806-8.4,5.222-1.132,1.149-2.308,2.27-3.507,3.377a16.064,16.064,0,0,0-.2-2.957c-.887-5.223-5.308-6.945-10.1-6.062a2.9,2.9,0,0,0-.58.173,4.166,4.166,0,0,0-1.662-.373q-7.045-.082-14.092-.043a4.105,4.105,0,0,0-1.754.415,3.137,3.137,0,0,0-.7-.234c-3.355-.656-6.9-.2-8.807,2.448-.027-.041-.052-.081-.08-.121s-.063-.1-.1-.148-.072-.111-.108-.165a3.982,3.982,0,0,0-3.486-1.942c-1.845.09-3.817-.167-5.567.507a4.462,4.462,0,0,0-2.473-.14c-4.319.986-10.727-.976-14.919,1.185-.06-.028-.121-.052-.181-.076a4.053,4.053,0,0,0-2.81-.241c-2.621.729-6.316-.063-9.353.241a10.261,10.261,0,0,0-4.8,1.578c-.037-.016-.075-.026-.111-.042-.1-.05-.2-.1-.306-.137a3.411,3.411,0,0,0-1.245-.359,5.357,5.357,0,0,0-.839-.139,8.187,8.187,0,0,0-6.164,1.534,5.746,5.746,0,0,0-.891.96c-3.576-1.206-7.5-2.1-10.268-.257-.021-.006-.04-.01-.062-.014a3.066,3.066,0,0,0-1.318-.215,4.993,4.993,0,0,0-1.661.028c-4.563.858-9.457.314-13.789,2.076a5.23,5.23,0,0,0-2.077-.134c-1.928.276-3.837.234-5.57,1.264a5.931,5.931,0,0,0-1.6,1.378,26.077,26.077,0,0,0-10.694-.036,4.2,4.2,0,0,0-2.9,5.115c1.678,5.329,2.984,11.633,6.2,16.307,2.571,3.736,6.3,4.936,10.668,5.164,6.856.356,13.736-.131,20.586.223,9.927.515,19.875,2.125,29.7.025.089.007.178.011.27.01a3.06,3.06,0,0,0,.468.025l1.406.081q.622.046,1.245.036l.341-.04a4.831,4.831,0,0,0,1.232-.08c2.262-.445,4.419-.414,6.565-.945a2.32,2.32,0,0,0,.266.027,3.357,3.357,0,0,0,1.931-.123c1.511-.562,2.88-.365,4.456-.453a11.736,11.736,0,0,0,2.764-.5c.04.006.078.009.116.013.094.021.19.034.286.047.051.011.1.021.152.03a3.03,3.03,0,0,0,1.056.081c2.469-.251,4.938-.3,7.394-.6h.07a4.166,4.166,0,0,0,1.586-.095c1.474-.383,4.5.3,6.544-.171a6.614,6.614,0,0,0,1.969-.792,9.117,9.117,0,0,0,5.391.633,8.315,8.315,0,0,0,2.2-.76,4.01,4.01,0,0,0,2.129.611q3.784-.019,7.565.028a3.687,3.687,0,0,0,.613-.048,3.949,3.949,0,0,0,.643.068q3.086.056,6.171.156a.732.732,0,0,1,.073,0c.071,0,.143.013.215.011a17.738,17.738,0,0,0,5.31-.629,28.555,28.555,0,0,0,3.216.937,3.452,3.452,0,0,0,2.043.064,14.092,14.092,0,0,0,2.485.309,3.4,3.4,0,0,0,.922-.081c.1-.014.2-.031.295-.054s.168-.029.251-.048.168-.029.251-.049.168-.028.25-.047c.056-.009.114-.018.17-.028a9.138,9.138,0,0,0,3.549,1c1.774.131,3.679-.619,5.338-.361,1.857.291,3.485,1.135,5.435,1.286a19.774,19.774,0,0,0,3.471-.091l0,0a9.626,9.626,0,0,0,3.178.8,4.865,4.865,0,0,0,1.214.074l.376.05a2.719,2.719,0,0,0,.69,0c1.946.575,3.986.55,5.957,1.087a4.05,4.05,0,0,0,1.983.038c.14,0,.276-.007.412-.017l1.695-.038,1.128-.026,1.695-.038,1.693-.039a5.273,5.273,0,0,0,.562-.013q.286.007.566-.012a5.27,5.27,0,0,0,.562-.014c.19.005.378,0,.565-.012a5.083,5.083,0,0,0,.566-.014c.188.005.376,0,.563-.011a5.145,5.145,0,0,0,.562-.014c.19,0,.378,0,.565-.012a5.273,5.273,0,0,0,.563-.014l1.13-.025,1.129-.025a5.4,5.4,0,0,0,.562-.012,5.458,5.458,0,0,0,.565-.013l1.694-.038,1.13-.025,1.128-.026q.285.007.567-.012a5.4,5.4,0,0,0,.563-.013c.189,0,.378,0,.562-.013a4.969,4.969,0,0,0,.566-.015c.19.006.376,0,.562-.011a4.964,4.964,0,0,0,.565-.014c.189.005.376,0,.562-.011a5.026,5.026,0,0,0,.562-.014c.19.006.378,0,.566-.011a5.5,5.5,0,0,0,.562-.014l1.129-.025,1.13-.025,1.129-.025,1.693-.038a5.332,5.332,0,0,0,.566-.013,5.4,5.4,0,0,0,.563-.013l1.129-.026c.19,0,.378,0,.566-.012a5.545,5.545,0,0,0,.563-.013c.19,0,.378,0,.562-.013a5.078,5.078,0,0,0,.565-.014c.19.005.376,0,.562-.011a5.085,5.085,0,0,0,.566-.015c.189.006.378,0,.563-.011a5.147,5.147,0,0,0,.562-.014c.19.006.379,0,.565-.012q.286.007.562-.014l1.13-.025,1.129-.026,1.13-.025,1.695-.038,1.694-.038a5.54,5.54,0,0,0,.562-.013c.19,0,.378,0,.565-.012a5.544,5.544,0,0,0,.563-.013c.19,0,.379,0,.562-.013a4.969,4.969,0,0,0,.566-.015c.19.006.378,0,.562-.011a5.2,5.2,0,0,0,.565-.014c.189,0,.378,0,.562-.012.19,0,.379,0,.562-.014.19.005.379,0,.566-.012.189,0,.378,0,.562-.014l1.131-.025,1.128-.025,1.695-.038q.281.007.562-.013a5.334,5.334,0,0,0,.566-.013c2.37.068,4.562-1.384,4.562-4.068v-19a4.46,4.46,0,0,0-.12-1.038" transform="translate(-6.139 -166.519)" fill="#1e1b30"/>
      <path id="Path_1053" data-name="Path 1053" d="M683.692,5857.773q-2.414.343-4.821.7-3.241-9.016-6.477-18.005,2.515-.4,5.031-.778,1.952,6.459,3.909,12.929,1.942-7.038,3.885-14.066,2.519-.354,5.04-.692-3.285,9.94-6.567,19.908" transform="translate(-12.348 -182.459)" fill="#d9d9d9"/>
      <path id="Path_1054" data-name="Path 1054" d="M721.469,5853.736v-19q7-.916,14.015-1.7v3.66q-4.647.517-9.291,1.1v3.472q4.333-.54,8.673-1.027v3.607q-4.339.487-8.673,1.025v4.522q5.072-.631,10.152-1.19v3.741q-7.446.82-14.877,1.792" transform="translate(-41.708 -179.57)" fill="#d9d9d9"/>
      <path id="Path_1055" data-name="Path 1055" d="M775.883,5847.74q-3.446-5.564-6.888-11.1l.161,11.746q-2.285.229-4.57.474v-19q2.326-.25,4.652-.482,3.471,5.613,6.942,11.258-.1-5.951-.189-11.905,2.273-.207,4.551-.4v19q-2.33.2-4.657.41" transform="translate(-67.502 -176.752)" fill="#d9d9d9"/>
      <path id="Path_1056" data-name="Path 1056" d="M813.482,5845.1v-19q7.029-.562,14.065-.989v3.661q-4.663.281-9.326.625v3.471q4.353-.319,8.706-.586v3.605q-4.353.27-8.706.588v4.521q5.1-.372,10.189-.677v3.742q-7.468.444-14.928,1.04" transform="translate(-96.755 -174.828)" fill="#d9d9d9"/>
      <path id="Path_1057" data-name="Path 1057" d="M858.467,5838.665q5.165-.26,10.333-.448v3.741q-8.11.3-16.212.769v-3.581q5.271-6.177,10.546-12.275-4.831.215-9.656.489v-3.688q7.684-.437,15.375-.717v3.714q-5.2,5.96-10.387,12" transform="translate(-120.151 -173.539)" fill="#d9d9d9"/>
      <path id="Path_1058" data-name="Path 1058" d="M914.146,5836.566c-1.593,4.455-6.613,4.84-7.693,4.87a9.012,9.012,0,0,1-6.18-2.124c-1.836-1.772-1.888-4.111-1.888-6.478v-10.606q2.4-.082,4.8-.145v11.842c0,1.7.134,2.337.89,2.909a4.234,4.234,0,0,0,2.538.667,3.362,3.362,0,0,0,2.348-.749,3.7,3.7,0,0,0,.919-3v-11.813q2.386-.042,4.776-.069v10.6a12.324,12.324,0,0,1-.512,4.1" transform="translate(-147.548 -172.887)" fill="#d9d9d9"/>
      <path id="Path_1059" data-name="Path 1059" d="M947.764,5840.759v-19q7.046-.047,14.092.043v3.66q-4.67-.056-9.341-.058v3.472q4.362,0,8.72.05v3.607q-4.362-.051-8.72-.052V5837q5.1,0,10.2.07v3.741q-7.476-.1-14.955-.055" transform="translate(-177.09 -172.812)" fill="#d9d9d9"/>
      <path id="Path_1060" data-name="Path 1060" d="M991.176,5841.013v-19q2.375.04,4.751.1V5837.1q3.724.086,7.448.213v4.01q-6.1-.205-12.2-.31" transform="translate(-203.062 -172.974)" fill="#d9d9d9"/>
      <path id="Path_1061" data-name="Path 1061" d="M1036.931,5842.875q-.472-1.546-.944-3.091-3.5-.184-7.012-.333l-.945,3q-2.534-.1-5.072-.192,3.535-9.379,7.069-18.721,2.483.11,4.964.235,3.507,9.678,7.011,19.391-2.533-.152-5.069-.288m-4.5-14.707q-1.174,3.955-2.348,7.914,2.416.106,4.83.229l-2.481-8.142" transform="translate(-222.075 -173.888)" fill="#d9d9d9"/>
      <path id="Path_1062" data-name="Path 1062" d="M1076.59,5866.075v-4.5q2.129.137,4.258.285v4.5q-2.129-.151-4.258-.285" transform="translate(-254.161 -196.646)" fill="#d9d9d9"/>
      <path id="Path_1063" data-name="Path 1063" d="M1109.034,5844.512a8.615,8.615,0,0,1-6.945,2.5,10.558,10.558,0,0,1-3.878-1.128c-5.01-2.655-5.252-8.176-5.251-9.686a9.959,9.959,0,0,1,2.315-6.61,7.847,7.847,0,0,1,6.9-2.727,9.746,9.746,0,0,1,6.7,3.563,13.032,13.032,0,0,1,1.317,2.089q-1.867.749-3.739,1.507a7.422,7.422,0,0,0-.619-1.107,4.758,4.758,0,0,0-3.446-2.134,3.9,3.9,0,0,0-2.881.891,6.109,6.109,0,0,0-1.8,4.78,9.294,9.294,0,0,0,.08,1.3,5.879,5.879,0,0,0,2.5,4.59,4.387,4.387,0,0,0,2.1.715,4.149,4.149,0,0,0,4.119-2.436q1.885,1.13,3.768,2.265a18.729,18.729,0,0,1-1.238,1.631" transform="translate(-263.955 -175.842)" fill="#d9d9d9"/>
      <path id="Path_1064" data-name="Path 1064" d="M1155.608,5850.395a8.262,8.262,0,0,1-5.964,1.3,10.461,10.461,0,0,1-6.719-3.437,12.018,12.018,0,0,1-2.717-7.7,10.354,10.354,0,0,1,1.8-5.956,7.715,7.715,0,0,1,7.58-3.067,10.409,10.409,0,0,1,6.769,3.425,12.9,12.9,0,0,1,2.847,7.94,9.171,9.171,0,0,1-3.6,7.5m-2.362-12.691a5.176,5.176,0,0,0-1.826-1.637,5.249,5.249,0,0,0-1.828-.557,4.065,4.065,0,0,0-2.124.3c-1.908.868-2.58,3.143-2.58,5.161a7.289,7.289,0,0,0,1.587,4.985,4.909,4.909,0,0,0,3.2,1.725,4.137,4.137,0,0,0,3.279-1.052,5.631,5.631,0,0,0,1.5-4,8.53,8.53,0,0,0-1.208-4.933" transform="translate(-292.221 -178.627)" fill="#d9d9d9"/>
      <path id="Path_1065" data-name="Path 1065" d="M1211.259,5858.171q.188-7.614.375-15.23-2.1,7.326-4.2,14.66-2.049-.3-4.1-.59-2.089-7.938-4.182-15.865.188,7.67.376,15.338-2.306-.312-4.614-.609v-19q3.46.445,6.918.926,1.783,6.892,3.566,13.8,1.754-6.4,3.507-12.783,3.455.514,6.907,1.062v19q-2.276-.357-4.551-.705" transform="translate(-324.949 -181.865)" fill="#d9d9d9"/>
      <path id="Path_1066" data-name="Path 1066" d="M706.319,5837.87q-2.519.335-5.04.689-1.022,3.689-2.04,7.383c1.534-.189,3.067-.379,4.6-.56.826-2.5,1.653-5.013,2.479-7.513" transform="translate(-28.408 -182.462)" fill="#f5f5f5"/>
      <path id="Path_1067" data-name="Path 1067" d="M677.426,5842.42q-2.515.381-5.03.78,1.176,3.267,2.355,6.545c1.567-.208,3.134-.42,4.7-.619q-1.014-3.354-2.028-6.706" transform="translate(-12.349 -185.184)" fill="#f5f5f5"/>
      <path id="Path_1068" data-name="Path 1068" d="M734.866,5840.238q-4.339.487-8.673,1.027v-3.472q4.643-.577,9.291-1.1v-3.659q-7.012.779-14.015,1.7V5842q6.695-.751,13.4-1.4Z" transform="translate(-41.708 -179.571)" fill="#f5f5f5"/>
      <path id="Path_1069" data-name="Path 1069" d="M797.524,5828.33q-2.276.193-4.551.4.062,3.85.121,7.7c1.476-.116,2.953-.219,4.429-.327Z" transform="translate(-84.485 -176.754)" fill="#f5f5f5"/>
      <path id="Path_1070" data-name="Path 1070" d="M769,5838.206c.075.119.148.241.223.362q2.244-.195,4.488-.376-2.236-3.627-4.469-7.247-2.326.231-4.652.481v7.558q2.206-.2,4.415-.4c0-.126,0-.252-.006-.377" transform="translate(-67.503 -178.319)" fill="#f5f5f5"/>
      <path id="Path_1071" data-name="Path 1071" d="M826.927,5832.284q-4.355.269-8.706.588V5829.4q4.66-.344,9.325-.625v-3.659q-7.035.425-14.064.987v7.8q6.72-.461,13.445-.808Z" transform="translate(-96.755 -174.831)" fill="#f5f5f5"/>
      <path id="Path_1072" data-name="Path 1072" d="M870.179,5826.669v-3.714q-7.691.278-15.376.717v3.688q4.827-.275,9.655-.488-1.944,2.249-3.886,4.509,2.852-.12,5.707-.223,1.95-2.249,3.9-4.49" transform="translate(-121.476 -173.539)" fill="#f5f5f5"/>
      <path id="Path_1073" data-name="Path 1073" d="M903.185,5822.41q-2.4.064-4.8.146v8.075c1.6-.045,3.2-.081,4.8-.117Z" transform="translate(-147.547 -173.213)" fill="#f5f5f5"/>
      <path id="Path_1074" data-name="Path 1074" d="M931.779,5821.87q-2.388.026-4.777.069v8.125c1.592-.024,3.185-.054,4.777-.069Z" transform="translate(-164.669 -172.89)" fill="#f5f5f5"/>
      <path id="Path_1075" data-name="Path 1075" d="M961.238,5829.923v-.994q-4.362-.051-8.72-.051v-3.472q4.67,0,9.341.058v-3.659q-7.045-.089-14.092-.044v8.139q6.737-.037,13.472.022" transform="translate(-177.091 -172.816)" fill="#f5f5f5"/>
      <path id="Path_1076" data-name="Path 1076" d="M995.926,5822.117q-2.375-.054-4.751-.1v8.127c1.584.022,3.167.043,4.751.076Z" transform="translate(-203.061 -172.98)" fill="#f5f5f5"/>
      <path id="Path_1077" data-name="Path 1077" d="M1038.494,5828.164q.541,1.772,1.081,3.548,2.21.092,4.423.2-1.472-4.069-2.943-8.139-2.481-.127-4.964-.236-1.5,3.959-2.995,7.933c1.457.05,2.915.1,4.371.153q.514-1.729,1.025-3.456" transform="translate(-228.141 -173.885)" fill="#f5f5f5"/>
      <path id="Path_1078" data-name="Path 1078" d="M1099.672,5831.66a3.9,3.9,0,0,1,2.881-.89A4.761,4.761,0,0,1,1106,5832.9a7.519,7.519,0,0,1,.619,1.107q1.87-.76,3.74-1.508a13.191,13.191,0,0,0-1.317-2.089,9.74,9.74,0,0,0-6.7-3.563,7.849,7.849,0,0,0-6.9,2.726,9.414,9.414,0,0,0-2.21,5.014c1.592.1,3.184.2,4.774.3a5.477,5.477,0,0,1,1.665-3.233" transform="translate(-264.119 -175.838)" fill="#f5f5f5"/>
      <path id="Path_1079" data-name="Path 1079" d="M1147.673,5835.811a4.064,4.064,0,0,1,2.124-.3,5.25,5.25,0,0,1,1.828.557,5.184,5.184,0,0,1,1.826,1.637,7.365,7.365,0,0,1,.966,2.37q2.373.242,4.745.491a12.474,12.474,0,0,0-2.6-5.613,10.414,10.414,0,0,0-6.769-3.427,7.713,7.713,0,0,0-7.58,3.068,9.605,9.605,0,0,0-1.666,4.189q2.365.2,4.728.412a4.559,4.559,0,0,1,2.394-3.382" transform="translate(-292.426 -178.622)" fill="#f5f5f5"/>
      <path id="Path_1080" data-name="Path 1080" d="M1229.693,5845.838l-.08,3.229q2.129.278,4.255.565v-6.859q-3.453-.548-6.907-1.06-.929,3.384-1.859,6.775l3.7.468c.3-1.038.6-2.08.894-3.119" transform="translate(-343.01 -184.761)" fill="#f5f5f5"/>
      <path id="Path_1081" data-name="Path 1081" d="M1199.15,5841.155q.475,1.8.95,3.6c1.213.143,2.427.292,3.639.438l-1.909-7.386q-3.455-.478-6.918-.927v7.286q2.164.242,4.325.49-.044-1.75-.087-3.5" transform="translate(-324.948 -181.87)" fill="#f5f5f5"/>
      <path id="Path_1082" data-name="Path 1082" d="M700.607,5839.553q2.1-.292,4.205-.575-3.12,9.44-6.238,18.912c.259-.037.522-.078.78-.115q3.282-9.968,6.568-19.906-2.521.335-5.041.689c-.09.331-.183.663-.273.994" transform="translate(-28.01 -182.461)" fill="#fff"/>
      <path id="Path_1083" data-name="Path 1083" d="M680.226,5856.454l.69-2.5q-1.745-5.774-3.49-11.543-2.517.382-5.031.779c.106.3.215.593.321.889q1.8-.284,3.6-.559,1.952,6.46,3.909,12.93" transform="translate(-12.348 -185.181)" fill="#fff"/>
      <path id="Path_1084" data-name="Path 1084" d="M731.576,5864.92c-.37.045-.739.085-1.108.131v4.521q5.072-.63,10.153-1.189v2.76c.369-.04.737-.087,1.108-.128v-3.741q-5.079.563-10.153,1.19Z" transform="translate(-47.091 -198.645)" fill="#fff"/>
      <path id="Path_1085" data-name="Path 1085" d="M730.467,5850.9q4.336-.538,8.673-1.025v2.628c.371-.041.74-.09,1.108-.131v-3.606q-4.336.488-8.673,1.026v-2.5c-.37.047-.739.084-1.108.131Z" transform="translate(-47.091 -188.103)" fill="#fff"/>
      <path id="Path_1086" data-name="Path 1086" d="M734.38,5836.826c.371-.041.739-.089,1.108-.131v-3.659q-7.012.781-14.015,1.7v.969q6.449-.833,12.907-1.558Z" transform="translate(-41.71 -179.569)" fill="#fff"/>
      <path id="Path_1087" data-name="Path 1087" d="M775.07,5843.3c-.017-.993-.031-1.989-.048-2.983q-2.893-4.7-5.785-9.384-2.325.234-4.652.482v.994q1.771-.186,3.544-.367,3.471,5.612,6.942,11.258" transform="translate(-67.502 -178.313)" fill="#fff"/>
      <path id="Path_1088" data-name="Path 1088" d="M792.989,5829.737q1.713-.154,3.427-.3v17.99c.368-.032.737-.066,1.108-.1v-19q-2.275.193-4.55.4.008.5.016,1.01" transform="translate(-84.485 -176.751)" fill="#fff"/>
      <path id="Path_1089" data-name="Path 1089" d="M772.95,5862.529c.375-.039.749-.081,1.122-.117q-.059-4.392-.121-8.784c-.383-.616-.767-1.237-1.149-1.851q.074,5.377.147,10.752" transform="translate(-72.419 -190.782)" fill="#fff"/>
      <path id="Path_1090" data-name="Path 1090" d="M826.439,5828.85c.371-.024.739-.052,1.108-.075v-3.659q-7.035.424-14.064.987v1.027q6.475-.508,12.956-.906Z" transform="translate(-96.756 -174.832)" fill="#fff"/>
      <path id="Path_1091" data-name="Path 1091" d="M822.52,5841.9q4.353-.321,8.706-.586v2.571c.371-.022.739-.052,1.108-.075V5840.2q-4.355.269-8.706.588v-2.438c-.37.027-.738.048-1.108.074Z" transform="translate(-102.162 -182.748)" fill="#fff"/>
      <path id="Path_1092" data-name="Path 1092" d="M833.817,5859.628v-.844q-5.1.3-10.189.677v-3.487c-.368.027-.738.048-1.108.075v4.521q5.093-.373,10.189-.677v2.7c.26-.016.522-.034.783-.051v-2.537q.161-.193.326-.382" transform="translate(-102.162 -193.293)" fill="#fff"/>
      <path id="Path_1093" data-name="Path 1093" d="M854.8,5824.724q7.13-.4,14.267-.661v3.714q-5.195,5.96-10.387,12,5.165-.261,10.333-.448V5842c.37-.014.739-.033,1.108-.047v-3.741q-5.167.189-10.333.448,5.193-6.034,10.387-12v-3.714q-7.689.281-15.376.718Z" transform="translate(-121.474 -173.538)" fill="#fff"/>
      <path id="Path_1094" data-name="Path 1094" d="M927,5823.033q1.834-.029,3.669-.054v10.606a12.328,12.328,0,0,1-.513,4.1,6.573,6.573,0,0,1-1.055,1.895,6.536,6.536,0,0,0,2.163-3,12.306,12.306,0,0,0,.513-4.1v-10.6q-2.388.028-4.777.07Z" transform="translate(-164.668 -172.891)" fill="#fff"/>
      <path id="Path_1095" data-name="Path 1095" d="M902.076,5835.362c0,1.7.135,2.338.891,2.909a4.22,4.22,0,0,0,2.538.667,3.359,3.359,0,0,0,2.348-.749,2.407,2.407,0,0,0,.55-.724,4,4,0,0,1-1.789.366,4.231,4.231,0,0,1-2.538-.667c-.756-.572-.891-1.214-.891-2.909V5822.41q-2.4.063-4.8.144v1.076c1.231-.04,2.464-.081,3.7-.111Z" transform="translate(-147.547 -173.213)" fill="#fff"/>
      <path id="Path_1096" data-name="Path 1096" d="M956.834,5837.091q4.359,0,8.72.052v2.491c.37,0,.739,0,1.108.007v-3.607q-4.362-.051-8.72-.051v-2.356c-.371,0-.739-.007-1.108-.007Z" transform="translate(-182.516 -179.919)" fill="#fff"/>
      <path id="Path_1097" data-name="Path 1097" d="M957.942,5851.239c-.371,0-.739-.008-1.108-.008v4.522q5.1,0,10.2.069v2.624c.371,0,.74,0,1.108.01v-3.743q-5.1-.07-10.2-.069Z" transform="translate(-182.516 -190.455)" fill="#fff"/>
      <path id="Path_1098" data-name="Path 1098" d="M960.748,5822.91v2.544c.369,0,.739,0,1.108.007v-3.66q-7.045-.089-14.092-.043v1.107q6.491-.032,12.984.045" transform="translate(-177.09 -172.813)" fill="#fff"/>
      <path id="Path_1099" data-name="Path 1099" d="M1003.374,5837.314q-3.725-.127-7.448-.213v-14.992q-2.376-.055-4.751-.1v1.131c1.212.023,2.427.045,3.641.075v14.991q3.725.086,7.45.213v2.869c.331.01.662.017.994.028l.114-.3Z" transform="translate(-203.062 -172.976)" fill="#fff"/>
      <path id="Path_1100" data-name="Path 1100" d="M1033.71,5867.764c.251.01.5.018.75.03q.294-.931.585-1.859l-.749-.035q-.294.934-.586,1.864" transform="translate(-228.508 -199.231)" fill="#fff"/>
      <path id="Path_1101" data-name="Path 1101" d="M1042.745,5845.956q-.18-.59-.362-1.178c-1.12-.055-2.241-.112-3.362-.161q.819-2.753,1.636-5.507c-.133-.432-.264-.865-.4-1.3q-1.172,3.953-2.348,7.912,2.415.107,4.829.229" transform="translate(-231.023 -182.428)" fill="#fff"/>
      <path id="Path_1102" data-name="Path 1102" d="M1044.878,5823.77q-2.483-.127-4.965-.235c-.142.379-.286.763-.429,1.141q2.141.1,4.285.2,3.289,9.082,6.578,18.194c.513.03,1.026.057,1.541.087q-3.507-9.71-7.011-19.39" transform="translate(-231.962 -173.885)" fill="#fff"/>
      <path id="Path_1103" data-name="Path 1103" d="M1076.59,5862.761c1.051.07,2.1.137,3.15.211v3.312c.37.025.74.048,1.11.073v-4.492q-2.129-.148-4.258-.284Z" transform="translate(-254.161 -196.647)" fill="#fff"/>
      <path id="Path_1104" data-name="Path 1104" d="M1102.009,5846a9.289,9.289,0,0,0,.08,1.3,5.873,5.873,0,0,0,2.5,4.59,4.363,4.363,0,0,0,2.1.716,3.837,3.837,0,0,0,3.662-1.723,3.8,3.8,0,0,1-2.554.613,4.377,4.377,0,0,1-2.1-.714,5.879,5.879,0,0,1-2.5-4.59,9.294,9.294,0,0,1-.08-1.3,6.843,6.843,0,0,1,1.093-3.97,3.727,3.727,0,0,0-.4.3,6.117,6.117,0,0,0-1.8,4.781" transform="translate(-269.368 -184.284)" fill="#fff"/>
      <path id="Path_1105" data-name="Path 1105" d="M1104.378,5827.962a9.746,9.746,0,0,1,6.7,3.563,11.326,11.326,0,0,1,1.024,1.547c.468-.187.935-.378,1.4-.566a13.225,13.225,0,0,0-1.318-2.089,9.739,9.739,0,0,0-6.7-3.563,7.853,7.853,0,0,0-6.9,2.726c-.031.041-.059.076-.09.113a7.885,7.885,0,0,1,5.877-1.73" transform="translate(-267.27 -175.84)" fill="#fff"/>
      <path id="Path_1106" data-name="Path 1106" d="M1124.46,5862.424q1.775,1.062,3.549,2.133c-.355.508-.64.893-.876,1.19a7.857,7.857,0,0,0,.746-.668,19.2,19.2,0,0,0,1.238-1.63q-1.884-1.138-3.767-2.265a7.281,7.281,0,0,1-.89,1.239" transform="translate(-282.8 -196.41)" fill="#fff"/>
      <path id="Path_1107" data-name="Path 1107" d="M1152.685,5831.527a7.74,7.74,0,0,0-7.3,2.709,8,8,0,0,1,6.194-1.6,10.415,10.415,0,0,1,6.768,3.425,12.9,12.9,0,0,1,2.846,7.94,9.743,9.743,0,0,1-2.024,6.013,9.321,9.321,0,0,0,3.134-7.122,12.9,12.9,0,0,0-2.846-7.94,10.405,10.405,0,0,0-6.768-3.425" transform="translate(-295.317 -178.625)" fill="#fff"/>
      <path id="Path_1108" data-name="Path 1108" d="M1153.875,5857.318a4.127,4.127,0,0,0,3.278-1.051,4.242,4.242,0,0,0,.567-.686,4.27,4.27,0,0,1-2.737.629,4.9,4.9,0,0,1-3.2-1.723,7.291,7.291,0,0,1-1.586-4.986,6.929,6.929,0,0,1,1-3.787c-1.547,1-2.111,3.055-2.111,4.9a7.3,7.3,0,0,0,1.586,4.985,4.9,4.9,0,0,0,3.2,1.723" transform="translate(-297.536 -187.154)" fill="#fff"/>
      <path id="Path_1109" data-name="Path 1109" d="M1204.283,5852.711q.361-1.312.719-2.619-1.586-6.147-3.174-12.29-3.459-.481-6.918-.926v1.256c1.938.254,3.874.509,5.81.778q1.781,6.9,3.563,13.8" transform="translate(-324.947 -181.868)" fill="#fff"/>
      <path id="Path_1110" data-name="Path 1110" d="M1236.145,5842.771q-3.453-.548-6.906-1.06-.169.613-.337,1.227,3.067.458,6.134.942V5861.6c.369.057.738.112,1.108.172Z" transform="translate(-345.284 -184.76)" fill="#fff"/>
      <path id="Path_1111" data-name="Path 1111" d="M1203.038,5864.353l1.141.151q-.116-4.74-.233-9.481l-1.252-4.749q.173,7.039.344,14.079" transform="translate(-329.604 -189.882)" fill="#fff"/>
      <path id="Path_1112" data-name="Path 1112" d="M1224.18,5868.184l.758.11q1.51-5.273,3.021-10.534.036-1.508.073-3.018l-3.852,13.441" transform="translate(-342.458 -192.556)" fill="#fff"/>
      <path id="Path_1113" data-name="Path 1113" d="M986.321,5569.791a70.337,70.337,0,0,1,8.962-9.791,64.691,64.691,0,0,1,7.144-5.583,1.1,1.1,0,0,1,1.281.1,106.837,106.837,0,0,1,9.361,8.285c2.96,2.941,5.569,5.859,7.851,8.63l.154-.2a1.091,1.091,0,0,0-.131-1.326c-2.29-2.78-4.9-5.707-7.874-8.657a106.752,106.752,0,0,0-9.361-8.286,1.1,1.1,0,0,0-1.281-.1,64.571,64.571,0,0,0-7.144,5.584,70.567,70.567,0,0,0-9.1,9.968,1.044,1.044,0,0,0,.083,1.32l.055.061" transform="translate(-199.957 -11.857)" fill="#ec6d0c"/>
      <path id="Path_1114" data-name="Path 1114" d="M1018.65,5692.378a19.858,19.858,0,0,1-.224,2.37,17.344,17.344,0,0,1-4.149,8.828.162.162,0,0,0-.035.142c.078.4.154.794.233,1.189a17.362,17.362,0,0,0,3.951-8.6,20.639,20.639,0,0,0,.224-3.93" transform="translate(-216.859 -95.419)" fill="#ec6d0c"/>
      <path id="Path_1115" data-name="Path 1115" d="M1028.169,5649.59a.228.228,0,0,0-.209-.2q-6.47-.25-12.984-.13c-3.408.056-7.574.231-11.02.464a.163.163,0,0,0-.122.062.166.166,0,0,0-.034.132c.07.453.138.907.207,1.359,3.438-.229,7.576-.4,10.968-.461q6.513-.119,12.984.131a.228.228,0,0,1,.209.2q1.016,9.883,1.745,20.259c.738,10.591,1.168,20.77,1.354,30.515a.14.14,0,0,0,.03-.09c-.169-10.188-.609-20.86-1.384-31.979q-.721-10.368-1.746-20.258" transform="translate(-210.613 -69.601)" fill="#ec6d0c"/>
      <path id="Path_1116" data-name="Path 1116" d="M849.308,5655.937q6.98-5.461,14.014-10.5a.317.317,0,0,1,.385-.006q6.859,5.662,13.752,11.727a.325.325,0,0,0,.426-.012q8.9-7.781,17.822-14.889a.327.327,0,0,1,.429.022q6.043,5.88,12.082,12.071c.2-.155.4-.314.605-.469a.3.3,0,0,0,.111-.224.3.3,0,0,0-.094-.23q-6.348-6.524-12.7-12.707a.329.329,0,0,0-.429-.022q-8.915,7.112-17.822,14.89a.325.325,0,0,1-.426.013q-6.889-6.064-13.752-11.728a.317.317,0,0,0-.385.006q-7.251,5.194-14.452,10.839a.342.342,0,0,0-.106.447c.182.256.362.515.544.771" transform="translate(-117.837 -64.462)" fill="#ec6d0c"/>
      <path id="Path_1117" data-name="Path 1117" d="M842.819,5735.194q6.449-8.175,12.946-15.989a.314.314,0,0,0,.036-.376c-.152-.225-.307-.444-.459-.669q-6.574,7.917-13.1,16.2a.3.3,0,0,0,.017.433c.185.133.371.267.557.4" transform="translate(-113.912 -110.844)" fill="#ec6d0c"/>
      <path id="Path_1118" data-name="Path 1118" d="M959.613,5708.17c-.072.059-.144.117-.215.178a.308.308,0,0,0-.1.314c1.507,5.753,5.91,9.917,10.952,10.71a12.128,12.128,0,0,0,7.345-1.254.338.338,0,0,1,.457.185c.371.928.73,1.9,1.07,2.913a54.606,54.606,0,0,1,1.858,7.09l.12-.1a.282.282,0,0,0,.1-.266,54.653,54.653,0,0,0-2.076-8.282c-.34-1.015-.7-1.987-1.07-2.914a.337.337,0,0,0-.457-.184,12.135,12.135,0,0,1-7.345,1.252c-4.727-.743-8.889-4.446-10.635-9.642" transform="translate(-183.984 -104.868)" fill="#ec6d0c"/>
      <path id="Path_1119" data-name="Path 1119" d="M754.725,5645.061c-.344,2.148.773,4.138,2.579,4.386,2.25.64,4.134.673,29.926-.186a.4.4,0,0,1,.386.248c.011-.458.021-.917.033-1.375a.4.4,0,0,0-.419-.43c-25.792.858-27.676.825-29.926.185a3.212,3.212,0,0,1-2.579-2.828" transform="translate(-61.566 -67.112)" fill="#ec6d0c"/>
      <path id="Path_1120" data-name="Path 1120" d="M711.67,5698.553q-9.642,26.827-19.006,54.535c-.052.156-.009.284.1.3s.2.04.306.056q9.16-27.087,18.6-53.338a3.912,3.912,0,0,0,.188-2.233,4.822,4.822,0,0,1-.188.676" transform="translate(-24.461 -98.71)" fill="#ec6d0c"/>
      <path id="Path_1121" data-name="Path 1121" d="M768.865,5734.392a20.161,20.161,0,0,0,4.267-.4,2.66,2.66,0,0,0,1.345-.76c.192-.192.382-.385.574-.578a2.733,2.733,0,0,0,.83-1.888c-.008-.446-.016-.892-.024-1.338a2.769,2.769,0,0,1-.806,1.668l-.574.578a2.67,2.67,0,0,1-1.345.76,20.2,20.2,0,0,1-4.267.4,16.036,16.036,0,0,1-3.254-.379.6.6,0,0,1-.3-.172c-.063.281-.127.563-.182.844a.692.692,0,0,0,.478.887,15.9,15.9,0,0,0,3.254.378" transform="translate(-67.808 -117.583)" fill="#ec6d0c"/>
      <path id="Path_1122" data-name="Path 1122" d="M706.654,5635.938l.047.016q2.061-5.2,4.133-10.354c.133-.33.472-.556.7-.459q1.063.45,2.129.912a21.206,21.206,0,0,1,9.456-18.035.67.67,0,0,1,.857-.017q2.788,2.788,5.594,5.65l.086-.117a1.009,1.009,0,0,0,.089-1.265q-2.893-2.951-5.769-5.825a.67.67,0,0,0-.857.015,21.214,21.214,0,0,0-9.456,18.038c-.711-.309-1.421-.612-2.129-.914-.224-.094-.562.13-.7.461q-2.2,5.481-4.394,11.008c-.169.421-.08.8.214.888" transform="translate(-32.665 -43.921)" fill="#ec6d0c"/>
      <path id="Path_1123" data-name="Path 1123" d="M1177.474,5767.7a15.678,15.678,0,0,0,.828,1.631,16.847,16.847,0,0,0,1.325,1.958c.093-.215.186-.437.279-.654a.877.877,0,0,0-.209-.81,17.221,17.221,0,0,1-1.4-2.051,15.865,15.865,0,0,1-.828-1.63,1.086,1.086,0,0,0-.482-.529,239.437,239.437,0,0,0-25.242-10.989.967.967,0,0,1-.549-.584l-.745-2.265c-.274.043-.407.322-.3.65q.523,1.584,1.045,3.174a.964.964,0,0,0,.549.584,239.543,239.543,0,0,1,25.242,10.987,1.09,1.09,0,0,1,.482.528" transform="translate(-298.151 -130.955)" fill="#ec6d0c"/>
      <path id="Path_1124" data-name="Path 1124" d="M1074.236,5638.216a.5.5,0,0,1,.088-.047,119.148,119.148,0,0,1,22.764-4.389,111.77,111.77,0,0,1,15.091-.362.924.924,0,0,1,.76.73q.377,1.865.683,3.844a74.629,74.629,0,0,1,.862,10.081.5.5,0,0,0,.009-.07,73.67,73.67,0,0,0-.87-11.567q-.3-1.978-.683-3.844a.925.925,0,0,0-.76-.731,111.451,111.451,0,0,0-15.091.362,118.953,118.953,0,0,0-22.764,4.39.494.494,0,0,0-.322.623c.078.327.154.654.233.98" transform="translate(-252.599 -59.151)" fill="#ec6d0c"/>
      <path id="Path_1125" data-name="Path 1125" d="M1134.794,5693.907a.616.616,0,0,0-.715-.16q-2.381,1.469-4.775,2.992a.6.6,0,0,1-.7-.125,11.3,11.3,0,0,1-3.624-5.678,7.555,7.555,0,0,1-.161-.952,7.255,7.255,0,0,0,.161,2.51,11.3,11.3,0,0,0,3.624,5.678.6.6,0,0,0,.7.125q2.392-1.523,4.775-2.994a.619.619,0,0,1,.715.161,57.046,57.046,0,0,0,6.023,4.9,52.409,52.409,0,0,0,8.063,4.695.961.961,0,0,1,.347.283c.063-.3.125-.6.194-.884a.949.949,0,0,0-.542-.957,52.465,52.465,0,0,1-8.063-4.695,57.147,57.147,0,0,1-6.023-4.9" transform="translate(-282.99 -93.987)" fill="#ec6d0c"/>
      <path id="Path_1126" data-name="Path 1126" d="M984.493,5688.072c1.205-.031,2.4,2.789,2.665,6.286.013.193.024.382.033.569a17.46,17.46,0,0,0-.033-2.126c-.268-3.5-1.461-6.318-2.665-6.286a.642.642,0,0,0-.166.03c-.223.176-.447.354-.67.532-.643.928-1,2.917-.9,5.259.116-2.458.784-4.239,1.732-4.264" transform="translate(-198.016 -91.912)" fill="#ec6d0c"/>
    </g>
    <rect id="Rectangle_61" data-name="Rectangle 61" width="279" height="173" transform="translate(-1804 2176)" fill="none"/>
  </g>
</svg>
