<svg xmlns="http://www.w3.org/2000/svg" xmlns:xlink="http://www.w3.org/1999/xlink" width="279.904" height="173" viewBox="0 0 279.904 173">
  <defs>
    <filter id="Path_25" x="0.091" y="53.507" width="102.399" height="90.417" filterUnits="userSpaceOnUse">
      <feOffset input="SourceAlpha"/>
      <feGaussianBlur stdDeviation="4" result="blur"/>
      <feFlood flood-color="#ebebeb"/>
      <feComposite operator="in" in2="blur"/>
    </filter>
    <filter id="Path_26" x="0.022" y="29.077" width="102.691" height="46.085" filterUnits="userSpaceOnUse">
      <feOffset input="SourceAlpha"/>
      <feGaussianBlur stdDeviation="4" result="blur-2"/>
      <feFlood flood-color="#ebebeb"/>
      <feComposite operator="in" in2="blur-2"/>
    </filter>
    <filter id="Path_27" x="0" y="47.747" width="102.505" height="34.116" filterUnits="userSpaceOnUse">
      <feOffset input="SourceAlpha"/>
      <feGaussianBlur stdDeviation="4" result="blur-3"/>
      <feFlood flood-color="#ebebeb"/>
      <feComposite operator="in" in2="blur-3"/>
    </filter>
    <filter id="Path_28" x="87.521" y="31.035" width="58.533" height="64.205" filterUnits="userSpaceOnUse">
      <feOffset input="SourceAlpha"/>
      <feGaussianBlur stdDeviation="4" result="blur-4"/>
      <feFlood flood-color="#ebebeb"/>
      <feComposite operator="in" in2="blur-4"/>
    </filter>
    <filter id="Path_29" x="124.831" y="31.035" width="46.902" height="64.205" filterUnits="userSpaceOnUse">
      <feOffset input="SourceAlpha"/>
      <feGaussianBlur stdDeviation="4" result="blur-5"/>
      <feFlood flood-color="#ebebeb"/>
      <feComposite operator="in" in2="blur-5"/>
    </filter>
    <filter id="Path_30" x="146.68" y="31.035" width="46.448" height="64.205" filterUnits="userSpaceOnUse">
      <feOffset input="SourceAlpha"/>
      <feGaussianBlur stdDeviation="4" result="blur-6"/>
      <feFlood flood-color="#ebebeb"/>
      <feComposite operator="in" in2="blur-6"/>
    </filter>
    <filter id="Path_31" x="170.064" y="30.604" width="45.964" height="64.985" filterUnits="userSpaceOnUse">
      <feOffset input="SourceAlpha"/>
      <feGaussianBlur stdDeviation="4" result="blur-7"/>
      <feFlood flood-color="#ebebeb"/>
      <feComposite operator="in" in2="blur-7"/>
    </filter>
    <filter id="Path_32" x="195.859" y="31.028" width="45.706" height="64.332" filterUnits="userSpaceOnUse">
      <feOffset input="SourceAlpha"/>
      <feGaussianBlur stdDeviation="4" result="blur-8"/>
      <feFlood flood-color="#ebebeb"/>
      <feComposite operator="in" in2="blur-8"/>
    </filter>
    <filter id="Path_33" x="87.617" y="73.761" width="46.926" height="66.112" filterUnits="userSpaceOnUse">
      <feOffset input="SourceAlpha"/>
      <feGaussianBlur stdDeviation="4" result="blur-9"/>
      <feFlood flood-color="#ebebeb"/>
      <feComposite operator="in" in2="blur-9"/>
    </filter>
    <filter id="Path_34" x="114.54" y="73.801" width="32.998" height="66.072" filterUnits="userSpaceOnUse">
      <feOffset input="SourceAlpha"/>
      <feGaussianBlur stdDeviation="4" result="blur-10"/>
      <feFlood flood-color="#ebebeb"/>
      <feComposite operator="in" in2="blur-10"/>
    </filter>
    <filter id="Path_35" x="128.133" y="73.801" width="43.193" height="66.072" filterUnits="userSpaceOnUse">
      <feOffset input="SourceAlpha"/>
      <feGaussianBlur stdDeviation="4" result="blur-11"/>
      <feFlood flood-color="#ebebeb"/>
      <feComposite operator="in" in2="blur-11"/>
    </filter>
    <filter id="Path_36" x="149.781" y="73.448" width="46.924" height="66.963" filterUnits="userSpaceOnUse">
      <feOffset input="SourceAlpha"/>
      <feGaussianBlur stdDeviation="4" result="blur-12"/>
      <feFlood flood-color="#ebebeb"/>
      <feComposite operator="in" in2="blur-12"/>
    </filter>
    <filter id="Path_37" x="175.996" y="73.801" width="43.193" height="66.072" filterUnits="userSpaceOnUse">
      <feOffset input="SourceAlpha"/>
      <feGaussianBlur stdDeviation="4" result="blur-13"/>
      <feFlood flood-color="#ebebeb"/>
      <feComposite operator="in" in2="blur-13"/>
    </filter>
    <filter id="Path_38" x="198.755" y="73.801" width="42.882" height="66.072" filterUnits="userSpaceOnUse">
      <feOffset input="SourceAlpha"/>
      <feGaussianBlur stdDeviation="4" result="blur-14"/>
      <feFlood flood-color="#ebebeb"/>
      <feComposite operator="in" in2="blur-14"/>
    </filter>
    <filter id="Rectangle_9" x="222.998" y="32.16" width="56.906" height="106.827" filterUnits="userSpaceOnUse">
      <feOffset input="SourceAlpha"/>
      <feGaussianBlur stdDeviation="4" result="blur-15"/>
      <feFlood flood-color="#ebebeb"/>
      <feComposite operator="in" in2="blur-15"/>
    </filter>
  </defs>
  <g id="major_diesel_logo" transform="translate(1715.452 -2212)">
    <g id="Layer_1" data-name="Layer 1" transform="translate(-1703.452 2253.077)">
      <g transform="matrix(1, 0, 0, 1, -12, -41.08)" filter="url(#Path_25)">
        <path id="Path_25-2" data-name="Path 25" d="M75.358,10.611a116.332,116.332,0,0,1-32.906,6.318,111.306,111.306,0,0,1-38.458-5.72C-.051,9.941-.051,9.941.069,13.985Q1.337,37.677,2.725,61.346A10.721,10.721,0,0,0,7.7,69.961a27.689,27.689,0,0,0,8.137,3.877,71.532,71.532,0,0,0,23.022,2.68h6.749A49.658,49.658,0,0,0,70.069,70.3a9.836,9.836,0,0,0,5.169-8.065c.407-6.007,1.005-11.966,1.388-18.02.646-10.53,1.173-21.036,1.795-31.566C78.565,10.06,77.631,9.749,75.358,10.611ZM28.524,26.669a129.734,129.734,0,0,0,21.538,0c3.733-.239,5.121,1.388,5.073,5.026s-2.537,5.385-6.749,4.379A31.757,31.757,0,0,0,35.32,35.045c-2.01.359-3.973.885-6.007,1.173-3.59.526-5.768-1.029-5.983-4.092C23.067,28.272,24.623,26.286,28.524,26.669Zm-12.181,39.1c-5.432-2.2-7.179-7.179-8.3-12.277-.933-4.786-1.1-9.573-1.6-14.359a25.224,25.224,0,0,1,.957-6.725,5.05,5.05,0,0,1,5.121-4.475,5.121,5.121,0,0,1,5.432,4.068A38.292,38.292,0,0,0,19.477,36.6a13.785,13.785,0,0,1,.479,10.865,16.082,16.082,0,0,0,.55,10.458,19.672,19.672,0,0,1,.981,4.068C21.751,65.869,19.98,67.185,16.342,65.773ZM54.992,54.98A15.508,15.508,0,0,1,41.614,65.51H39.221a15.268,15.268,0,0,1-11.966-4.284,12.947,12.947,0,0,1,1.149-20.2A18.212,18.212,0,0,1,49.033,40.5,13.019,13.019,0,0,1,54.992,54.98ZM71.959,39.257c-.814,6.055-.215,12.3-2.609,18.116-1.436,3.542-3.207,6.868-7.06,8.352s-5.648,0-5.217-3.925a43.914,43.914,0,0,1,1.412-5.959,16.178,16.178,0,0,0-.431-10.195,7.921,7.921,0,0,1,0-6.222c1.029-2.585,1.819-5.289,2.656-7.969a4.786,4.786,0,0,1,5.456-3.566,4.786,4.786,0,0,1,4.786,3.973,26.157,26.157,0,0,1,.981,7.395Z" transform="translate(12.05 55.33)" fill="#fff"/>
      </g>
      <g transform="matrix(1, 0, 0, 1, -12, -41.08)" filter="url(#Path_26)">
        <path id="Path_26-2" data-name="Path 26" d="M3.675,16.792a154.12,154.12,0,0,0,35.9,5.265,153.641,153.641,0,0,0,34.605-5.05c1.675-.431,4-.239,4.26-2.7A6.82,6.82,0,0,0,76.57,7.482,20.82,20.82,0,0,0,70.109,3.94,70.933,70.933,0,0,0,51.346.542a131.432,131.432,0,0,0-39.2,2.226A25.822,25.822,0,0,0,1.832,7.219C-.561,9.134.061,11.67.133,14.087S2.215,16.289,3.675,16.792ZM16.741,5.281A73.422,73.422,0,0,1,37.825,2.672,87.111,87.111,0,0,1,60.847,5.065c1.962.5,4.978.742,4.93,3.3,0,2.178-2.8,2.752-4.786,3.255a82.875,82.875,0,0,1-44.249-.287c-1.795-.527-4.332-1.029-4.284-3.231S14.97,5.759,16.741,5.281Z" transform="translate(12.01 41.11)" fill="#fff"/>
      </g>
      <g transform="matrix(1, 0, 0, 1, -12, -41.08)" filter="url(#Path_27)">
        <path id="Path_27-2" data-name="Path 27" d="M74.98,8.46A161.515,161.515,0,0,1,44.73,13.246,137.057,137.057,0,0,1,3.161,8.316C2.2,8.077.768,7,.17,8.771s.455,2.393,1.891,2.872c.6.191,1.173.5,1.795.694a127.771,127.771,0,0,0,36.974,5.552,125.809,125.809,0,0,0,34.892-6.031c1.436-.455,3.231-.838,2.68-2.9S76.1,8.316,74.98,8.46Z" transform="translate(12 51.97)" fill="#fff"/>
      </g>
      <g transform="matrix(1, 0, 0, 1, -12, -41.08)" filter="url(#Path_28)">
        <path id="Path_28-2" data-name="Path 28" d="M57.965,41H50L45.209,11.99V41H36.57V.79H50.091l3.733,20.988L57.534.79H71.1V41H62.56V11.99Z" transform="translate(62.95 42.25)" fill="#fff"/>
      </g>
      <g transform="matrix(1, 0, 0, 1, -12, -41.08)" filter="url(#Path_29)">
        <path id="Path_29-2" data-name="Path 29" d="M70.611.79,75.063,41H66.471l-.646-6.055H61.35L60.8,41H52.16L56.707.79ZM63.958,8.472h-.79l-1.2,19.145h3.183Z" transform="translate(84.67 42.25)" fill="#fff"/>
      </g>
      <g transform="matrix(1, 0, 0, 1, -12, -41.08)" filter="url(#Path_30)">
        <path id="Path_30-2" data-name="Path 30" d="M76.774,41H68.4V27.785L61.29.79h8.879l2.393,13.641L74.955.79h8.783L76.774,27.785Z" transform="translate(97.39 42.25)" fill="#fff"/>
      </g>
      <g transform="matrix(1, 0, 0, 1, -12, -41.08)" filter="url(#Path_31)">
        <path id="Path_31-2" data-name="Path 31" d="M71.083,30.405V11.26a10.673,10.673,0,0,1,2.7-7.8,13.354,13.354,0,0,1,16.489,0A10.578,10.578,0,0,1,93,11.236V30.381a15.268,15.268,0,0,1-.55,4.475,10.41,10.41,0,0,1-1.891,3.566,8.113,8.113,0,0,1-3.422,2.393,12.827,12.827,0,0,1-4.954.766,13.5,13.5,0,0,1-5.121-.766,8.28,8.28,0,0,1-3.422-2.393,10.362,10.362,0,0,1-1.867-3.566,15.269,15.269,0,0,1-.694-4.451Zm10.961,3.35a1.6,1.6,0,0,0,.838-.191,1.22,1.22,0,0,0,.574-.574,6.913,6.913,0,0,0,.359-.742,4.091,4.091,0,0,0,.168-.957V11.882a5.217,5.217,0,0,1,0-.67c0-.311,0-.526,0-.694a.917.917,0,0,0-.168-.6,1.317,1.317,0,0,0-.239-.55,2.729,2.729,0,0,0-.359-.407,1.053,1.053,0,0,0-.5-.239,2.872,2.872,0,0,0-.67,0,2.25,2.25,0,0,0-.933.168,1.268,1.268,0,0,0-.6.574,5.24,5.24,0,0,0-.383.694,2.68,2.68,0,0,0-.215.933c0,.407,0,.718,0,.885V31.2a4.787,4.787,0,0,0,.191,1.029,4.934,4.934,0,0,0,.383.814,1.436,1.436,0,0,0,.6.646,1.915,1.915,0,0,0,.957.072Z" transform="translate(111 41.99)" fill="#fff"/>
      </g>
      <g transform="matrix(1, 0, 0, 1, -12, -41.08)" filter="url(#Path_32)">
        <path id="Path_32-2" data-name="Path 32" d="M90.838,22.835V41.119h-9V.794H95.481a9.86,9.86,0,0,1,3.494.5,6.1,6.1,0,0,1,2.393,1.484,6.964,6.964,0,0,1,1.34,2.393,14.358,14.358,0,0,1,.694,3.3c0,1.029.144,2.25.144,3.709v1.843a11.079,11.079,0,0,1-.287,1.819,6.6,6.6,0,0,1-.67,1.843,5.839,5.839,0,0,1-1.292,1.436A6.988,6.988,0,0,1,99.19,20.2a4.619,4.619,0,0,1,2.034.838,3.614,3.614,0,0,1,1.173,1.532,11.39,11.39,0,0,1,.479,1.675,12.8,12.8,0,0,1,0,1.747V41.119H94.189V25.228A4.953,4.953,0,0,0,94,23.744a1.292,1.292,0,0,0-.718-.79,2.68,2.68,0,0,0-.981-.287,11.965,11.965,0,0,0-1.46.168Zm0-14.359v7.179h2.2c1.2,0,1.771-1.244,1.771-3.685a4.6,4.6,0,0,0-.622-3.039,4.068,4.068,0,0,0-2.8-.694Z" transform="translate(126.02 42.24)" fill="#fff"/>
      </g>
      <g transform="matrix(1, 0, 0, 1, -12, -41.08)" filter="url(#Path_33)">
        <path id="Path_33-2" data-name="Path 33" d="M36.61,60.755V18.683h12.9A9.692,9.692,0,0,1,57.1,21.34a10.458,10.458,0,0,1,2.393,7.179V48.167A15.029,15.029,0,0,1,57.1,57.572a9.573,9.573,0,0,1-7.969,3.087ZM45.967,26.15V53h1.6c1.771,0,2.656-.742,2.656-2.25V30.1a5.1,5.1,0,0,0-.718-3.159,3.111,3.111,0,0,0-2.393-.862Z" transform="translate(63.01 67.12)" fill="#fff"/>
      </g>
      <g transform="matrix(1, 0, 0, 1, -12, -41.08)" filter="url(#Path_34)">
        <path id="Path_34-2" data-name="Path 34" d="M47.86,60.732V18.66h9V60.732Z" transform="translate(78.68 67.14)" fill="#fff"/>
      </g>
      <g transform="matrix(1, 0, 0, 1, -12, -41.08)" filter="url(#Path_35)">
        <path id="Path_35-2" data-name="Path 35" d="M53.54,60.732V18.66H72.135v8.161H62.993v8.232h8.759v7.873H62.993V52.5h9.74v8.209Z" transform="translate(86.59 67.14)" fill="#fff"/>
      </g>
      <g transform="matrix(1, 0, 0, 1, -12, -41.08)" filter="url(#Path_36)">
        <path id="Path_36-2" data-name="Path 36" d="M74.658,61.416a12.157,12.157,0,0,1-9.238-2.968,12.947,12.947,0,0,1-2.752-9.118V45.214h9.19v3.757c0,2.728.742,4.068,2.226,4.068a1.891,1.891,0,0,0,1.6-.79,3.3,3.3,0,0,0,.6-2.082,7.634,7.634,0,0,0-.455-2.848,7.323,7.323,0,0,0-1.412-2.2,36.045,36.045,0,0,0-3.063-2.9l-3.949-3.4a11.966,11.966,0,0,1-4.786-9.238,11.08,11.08,0,0,1,2.848-8.328,11.009,11.009,0,0,1,7.9-2.728h1.627a11.966,11.966,0,0,1,3.327.6,9.094,9.094,0,0,1,3.614,1.986,8.113,8.113,0,0,1,2.393,3.853,19.815,19.815,0,0,1,.79,6.007H75.735V28.438a2.01,2.01,0,0,0-1.915-1.819,2.393,2.393,0,0,0-1.556.55,1.914,1.914,0,0,0-.646,1.484c0,1.2.862,2.393,2.609,3.9L79.851,37.1a21.8,21.8,0,0,1,2.393,2.25,11.7,11.7,0,0,1,1.6,2.393,18.569,18.569,0,0,1,.957,2.034,7.347,7.347,0,0,1,.527,1.986,13.8,13.8,0,0,0,.168,1.6c.024.359,0,.838,0,1.412a25.584,25.584,0,0,1-.383,3.9,13.64,13.64,0,0,1-1.029,3.494,8.591,8.591,0,0,1-1.938,2.8,8.688,8.688,0,0,1-3.111,1.771A13.4,13.4,0,0,1,74.658,61.416Z" transform="translate(99.2 66.94)" fill="#fff"/>
      </g>
      <g transform="matrix(1, 0, 0, 1, -12, -41.08)" filter="url(#Path_37)">
        <path id="Path_37-2" data-name="Path 37" d="M73.54,60.732V18.66H92.135v8.161H82.993v8.232h8.783v7.873H82.993V52.5h9.74v8.209Z" transform="translate(114.46 67.14)" fill="#fff"/>
      </g>
      <g transform="matrix(1, 0, 0, 1, -12, -41.08)" filter="url(#Path_38)">
        <path id="Path_38-2" data-name="Path 38" d="M83.05,60.732V18.66h9.309V52.523h9.573v8.209Z" transform="translate(127.71 67.14)" fill="#fff"/>
      </g>
      <g transform="matrix(1, 0, 0, 1, -12, -41.08)" filter="url(#Rectangle_9)">
        <rect id="Rectangle_9-2" data-name="Rectangle 9" width="32.906" height="82.827" transform="translate(235 44.16)" fill="#fff"/>
      </g>
    </g>
    <g id="Layer_2" data-name="Layer 2" transform="translate(-1703.45 2253.105)">
      <g id="Layer_1-2" data-name="Layer 1" transform="translate(-0.001 -0.028)">
        <path id="Path_25-3" data-name="Path 25" d="M75.358,10.611a116.332,116.332,0,0,1-32.906,6.318,111.306,111.306,0,0,1-38.458-5.72C-.051,9.941-.051,9.941.069,13.985Q1.337,37.677,2.725,61.346A10.721,10.721,0,0,0,7.7,69.961a27.689,27.689,0,0,0,8.137,3.877,71.532,71.532,0,0,0,23.022,2.68h6.749A49.658,49.658,0,0,0,70.069,70.3a9.836,9.836,0,0,0,5.169-8.065c.407-6.007,1.005-11.966,1.388-18.02.646-10.53,1.173-21.036,1.795-31.566C78.565,10.06,77.631,9.749,75.358,10.611ZM28.524,26.669a129.734,129.734,0,0,0,21.538,0c3.733-.239,5.121,1.388,5.073,5.026s-2.537,5.385-6.749,4.379A31.757,31.757,0,0,0,35.32,35.045c-2.01.359-3.973.885-6.007,1.173-3.59.526-5.768-1.029-5.983-4.092C23.067,28.272,24.623,26.286,28.524,26.669Zm-12.181,39.1c-5.432-2.2-7.179-7.179-8.3-12.277-.933-4.786-1.1-9.573-1.6-14.359a25.224,25.224,0,0,1,.957-6.725,5.05,5.05,0,0,1,5.121-4.475,5.121,5.121,0,0,1,5.432,4.068A38.292,38.292,0,0,0,19.477,36.6a13.785,13.785,0,0,1,.479,10.865,16.082,16.082,0,0,0,.55,10.458,19.672,19.672,0,0,1,.981,4.068C21.751,65.869,19.98,67.185,16.342,65.773ZM54.992,54.98A15.508,15.508,0,0,1,41.614,65.51H39.221a15.268,15.268,0,0,1-11.966-4.284,12.947,12.947,0,0,1,1.149-20.2A18.212,18.212,0,0,1,49.033,40.5,13.019,13.019,0,0,1,54.992,54.98ZM71.959,39.257c-.814,6.055-.215,12.3-2.609,18.116-1.436,3.542-3.207,6.868-7.06,8.352s-5.648,0-5.217-3.925a43.914,43.914,0,0,1,1.412-5.959,16.178,16.178,0,0,0-.431-10.195,7.921,7.921,0,0,1,0-6.222c1.029-2.585,1.819-5.289,2.656-7.969a4.786,4.786,0,0,1,5.456-3.566,4.786,4.786,0,0,1,4.786,3.973,26.157,26.157,0,0,1,.981,7.395Z" transform="translate(0.054 14.25)" fill="#fff806"/>
        <path id="Path_26-3" data-name="Path 26" d="M3.675,16.792a154.12,154.12,0,0,0,35.9,5.265,153.641,153.641,0,0,0,34.605-5.05c1.675-.431,4-.239,4.26-2.7A6.82,6.82,0,0,0,76.57,7.482,20.82,20.82,0,0,0,70.109,3.94,70.933,70.933,0,0,0,51.346.542a131.432,131.432,0,0,0-39.2,2.226A25.822,25.822,0,0,0,1.832,7.219C-.561,9.134.061,11.67.133,14.087S2.215,16.289,3.675,16.792ZM16.741,5.281A73.422,73.422,0,0,1,37.825,2.672,87.111,87.111,0,0,1,60.847,5.065c1.962.5,4.978.742,4.93,3.3,0,2.178-2.8,2.752-4.786,3.255a82.875,82.875,0,0,1-44.249-.287c-1.795-.527-4.332-1.029-4.284-3.231S14.97,5.759,16.741,5.281Z" transform="translate(0.014 0.028)" fill="#fff806"/>
        <path id="Path_27-3" data-name="Path 27" d="M74.98,8.46A161.515,161.515,0,0,1,44.73,13.246,137.057,137.057,0,0,1,3.161,8.316C2.2,8.077.768,7,.17,8.771s.455,2.393,1.891,2.872c.6.191,1.173.5,1.795.694a127.771,127.771,0,0,0,36.974,5.552,125.809,125.809,0,0,0,34.892-6.031c1.436-.455,3.231-.838,2.68-2.9S76.1,8.316,74.98,8.46Z" transform="translate(0.001 10.897)" fill="#fff806"/>
        <path id="Path_28-3" data-name="Path 28" d="M57.965,41H50L45.209,11.99V41H36.57V.79H50.091l3.733,20.988L57.534.79H71.1V41H62.56V11.99Z" transform="translate(50.951 1.169)"/>
        <path id="Path_29-3" data-name="Path 29" d="M70.611.79,75.063,41H66.471l-.646-6.055H61.35L60.8,41H52.16L56.707.79ZM63.958,8.472h-.79l-1.2,19.145h3.183Z" transform="translate(72.671 1.169)"/>
        <path id="Path_30-3" data-name="Path 30" d="M76.774,41H68.4V27.785L61.29.79h8.879l2.393,13.641L74.955.79h8.783L76.774,27.785Z" transform="translate(85.39 1.169)"/>
        <path id="Path_31-3" data-name="Path 31" d="M71.083,30.405V11.26a10.673,10.673,0,0,1,2.7-7.8,13.354,13.354,0,0,1,16.489,0A10.578,10.578,0,0,1,93,11.236V30.381a15.268,15.268,0,0,1-.55,4.475,10.41,10.41,0,0,1-1.891,3.566,8.113,8.113,0,0,1-3.422,2.393,12.827,12.827,0,0,1-4.954.766,13.5,13.5,0,0,1-5.121-.766,8.28,8.28,0,0,1-3.422-2.393,10.362,10.362,0,0,1-1.867-3.566,15.269,15.269,0,0,1-.694-4.451Zm10.961,3.35a1.6,1.6,0,0,0,.838-.191,1.22,1.22,0,0,0,.574-.574,6.913,6.913,0,0,0,.359-.742,4.091,4.091,0,0,0,.168-.957V11.882a5.217,5.217,0,0,1,0-.67c0-.311,0-.526,0-.694a.917.917,0,0,0-.168-.6,1.317,1.317,0,0,0-.239-.55,2.729,2.729,0,0,0-.359-.407,1.053,1.053,0,0,0-.5-.239,2.872,2.872,0,0,0-.67,0,2.25,2.25,0,0,0-.933.168,1.268,1.268,0,0,0-.6.574,5.24,5.24,0,0,0-.383.694,2.68,2.68,0,0,0-.215.933c0,.407,0,.718,0,.885V31.2a4.787,4.787,0,0,0,.191,1.029,4.934,4.934,0,0,0,.383.814,1.436,1.436,0,0,0,.6.646,1.915,1.915,0,0,0,.957.072Z" transform="translate(99.003 0.917)"/>
        <path id="Path_32-3" data-name="Path 32" d="M90.838,22.835V41.119h-9V.794H95.481a9.86,9.86,0,0,1,3.494.5,6.1,6.1,0,0,1,2.393,1.484,6.964,6.964,0,0,1,1.34,2.393,14.358,14.358,0,0,1,.694,3.3c0,1.029.144,2.25.144,3.709v1.843a11.079,11.079,0,0,1-.287,1.819,6.6,6.6,0,0,1-.67,1.843,5.839,5.839,0,0,1-1.292,1.436A6.988,6.988,0,0,1,99.19,20.2a4.619,4.619,0,0,1,2.034.838,3.614,3.614,0,0,1,1.173,1.532,11.39,11.39,0,0,1,.479,1.675,12.8,12.8,0,0,1,0,1.747V41.119H94.189V25.228A4.953,4.953,0,0,0,94,23.744a1.292,1.292,0,0,0-.718-.79,2.68,2.68,0,0,0-.981-.287,11.965,11.965,0,0,0-1.46.168Zm0-14.359v7.179h2.2c1.2,0,1.771-1.244,1.771-3.685a4.6,4.6,0,0,0-.622-3.039,4.068,4.068,0,0,0-2.8-.694Z" transform="translate(114.02 1.165)"/>
        <path id="Path_33-3" data-name="Path 33" d="M36.61,60.755V18.683h12.9A9.692,9.692,0,0,1,57.1,21.34a10.458,10.458,0,0,1,2.393,7.179V48.167A15.029,15.029,0,0,1,57.1,57.572a9.573,9.573,0,0,1-7.969,3.087ZM45.967,26.15V53h1.6c1.771,0,2.656-.742,2.656-2.25V30.1a5.1,5.1,0,0,0-.718-3.159,3.111,3.111,0,0,0-2.393-.862Z" transform="translate(51.007 26.041)"/>
        <path id="Path_34-3" data-name="Path 34" d="M47.86,60.732V18.66h9V60.732Z" transform="translate(66.68 26.064)"/>
        <path id="Path_35-3" data-name="Path 35" d="M53.54,60.732V18.66H72.135v8.161H62.993v8.232h8.759v7.873H62.993V52.5h9.74v8.209Z" transform="translate(74.593 26.064)"/>
        <path id="Path_36-3" data-name="Path 36" d="M74.658,61.416a12.157,12.157,0,0,1-9.238-2.968,12.947,12.947,0,0,1-2.752-9.118V45.214h9.19v3.757c0,2.728.742,4.068,2.226,4.068a1.891,1.891,0,0,0,1.6-.79,3.3,3.3,0,0,0,.6-2.082,7.634,7.634,0,0,0-.455-2.848,7.323,7.323,0,0,0-1.412-2.2,36.045,36.045,0,0,0-3.063-2.9l-3.949-3.4a11.966,11.966,0,0,1-4.786-9.238,11.08,11.08,0,0,1,2.848-8.328,11.009,11.009,0,0,1,7.9-2.728h1.627a11.966,11.966,0,0,1,3.327.6,9.094,9.094,0,0,1,3.614,1.986,8.113,8.113,0,0,1,2.393,3.853,19.815,19.815,0,0,1,.79,6.007H75.735V28.438a2.01,2.01,0,0,0-1.915-1.819,2.393,2.393,0,0,0-1.556.55,1.914,1.914,0,0,0-.646,1.484c0,1.2.862,2.393,2.609,3.9L79.851,37.1a21.8,21.8,0,0,1,2.393,2.25,11.7,11.7,0,0,1,1.6,2.393,18.569,18.569,0,0,1,.957,2.034,7.347,7.347,0,0,1,.527,1.986,13.8,13.8,0,0,0,.168,1.6c.024.359,0,.838,0,1.412a25.584,25.584,0,0,1-.383,3.9,13.64,13.64,0,0,1-1.029,3.494,8.591,8.591,0,0,1-1.938,2.8,8.688,8.688,0,0,1-3.111,1.771A13.4,13.4,0,0,1,74.658,61.416Z" transform="translate(87.195 25.859)"/>
        <path id="Path_37-3" data-name="Path 37" d="M73.54,60.732V18.66H92.135v8.161H82.993v8.232h8.783v7.873H82.993V52.5h9.74v8.209Z" transform="translate(102.456 26.064)"/>
        <path id="Path_38-3" data-name="Path 38" d="M83.05,60.732V18.66h9.309V52.523h9.573v8.209Z" transform="translate(115.705 26.064)"/>
        <rect id="Rectangle_9-3" data-name="Rectangle 9" width="32.906" height="82.827" transform="translate(222.998 3.083)"/>
        <path id="Path_39" data-name="Path 39" d="M107.368,33.786H103.3V29h4.068Z" transform="translate(143.917 40.47)" fill="#fff"/>
        <path id="Path_40" data-name="Path 40" d="M108.349,23.251h4.116a5.073,5.073,0,0,1,4.164,1.6,6.94,6.94,0,0,1,1.34,4.523,6.007,6.007,0,0,1-1.484,4.188,5.432,5.432,0,0,1-4.164,1.6h-10.1a7.179,7.179,0,0,1-4.786-1.436,5.672,5.672,0,0,1-1.6-4.475,7.849,7.849,0,0,1,.311-2.393,6.15,6.15,0,0,1,.838-1.795A4.355,4.355,0,0,1,98.561,23.8a5.1,5.1,0,0,1,2.25-.479h3.829v4.786h-2.393c-1.316,0-1.962.383-1.962,1.149a.933.933,0,0,0,.431.909,2.752,2.752,0,0,0,1.2.215H112.2a2.106,2.106,0,0,0,1.173-.311.933.933,0,0,0,.479-.814,1.1,1.1,0,0,0-.359-.814,1.938,1.938,0,0,0-1.292-.335h-3.733Z" transform="translate(133.483 32.434)" fill="#fff"/>
        <path id="Path_41" data-name="Path 41" d="M111.909,29.456H101.523A5.744,5.744,0,0,1,97.311,28a6.055,6.055,0,0,1-1.532-4.427,6.1,6.1,0,0,1,1.532-4.5,5.744,5.744,0,0,1,4.212-1.484h10.386a8.543,8.543,0,0,1,2.393.335,5.911,5.911,0,0,1,1.914,1.029,4.4,4.4,0,0,1,1.316,1.843,6.845,6.845,0,0,1,.431,2.7,6.941,6.941,0,0,1-.431,2.752,4.332,4.332,0,0,1-1.316,1.867,5.432,5.432,0,0,1-1.915,1.005A8.544,8.544,0,0,1,111.909,29.456Zm1.819-5.935a1.389,1.389,0,0,0,0-.455.838.838,0,0,0-.335-.311l-.383-.191H100.8a.79.79,0,0,0-.287.12l-.215.191a.455.455,0,0,0-.168.287.862.862,0,0,0,0,.359,1.1,1.1,0,0,0,0,.5.6.6,0,0,0,.311.335,3.088,3.088,0,0,0,.383.215,1.675,1.675,0,0,0,.5,0H112.22l.55-.12a1.7,1.7,0,0,0,.431-.191.694.694,0,0,0,.359-.335,1.1,1.1,0,0,0,.167-.407Z" transform="translate(133.417 24.554)" fill="#fff"/>
        <path id="Path_42" data-name="Path 42" d="M117.733,16.049v4.308l-15.795,2.656h15.795v4.619H95.956V20.309l11.367-2.034L95.86,16.361V8.87h21.873v4.786H101.939Z" transform="translate(133.552 12.425)" fill="#fff"/>
      </g>
    </g>
    <rect id="Rectangle_63" data-name="Rectangle 63" width="279" height="173" transform="translate(-1715 2212)" fill="none"/>
  </g>
</svg>
