<svg xmlns="http://www.w3.org/2000/svg" xmlns:xlink="http://www.w3.org/1999/xlink" width="286.023" height="173" viewBox="0 0 286.023 173">
  <defs>
    <filter id="Path_43" x="210.712" y="76.029" width="50.174" height="46.32" filterUnits="userSpaceOnUse">
      <feOffset input="SourceAlpha"/>
      <feGaussianBlur stdDeviation="4" result="blur"/>
      <feFlood flood-color="#ebebeb"/>
      <feComposite operator="in" in2="blur"/>
    </filter>
    <filter id="Path_44" x="10.135" y="8.664" width="115.026" height="120.52" filterUnits="userSpaceOnUse">
      <feOffset input="SourceAlpha"/>
      <feGaussianBlur stdDeviation="4" result="blur-2"/>
      <feFlood flood-color="#ebebeb"/>
      <feComposite operator="in" in2="blur-2"/>
    </filter>
    <filter id="Path_45" x="80.985" y="8.667" width="123.404" height="120.517" filterUnits="userSpaceOnUse">
      <feOffset input="SourceAlpha"/>
      <feGaussianBlur stdDeviation="4" result="blur-3"/>
      <feFlood flood-color="#ebebeb"/>
      <feComposite operator="in" in2="blur-3"/>
    </filter>
    <filter id="Path_46" x="162.608" y="7.077" width="105.098" height="123.638" filterUnits="userSpaceOnUse">
      <feOffset input="SourceAlpha"/>
      <feGaussianBlur stdDeviation="4" result="blur-4"/>
      <feFlood flood-color="#ebebeb"/>
      <feComposite operator="in" in2="blur-4"/>
    </filter>
    <filter id="Path_47" x="0" y="53.968" width="286.023" height="111.955" filterUnits="userSpaceOnUse">
      <feOffset input="SourceAlpha"/>
      <feGaussianBlur stdDeviation="4" result="blur-5"/>
      <feFlood flood-color="#ebebeb"/>
      <feComposite operator="in" in2="blur-5"/>
    </filter>
    <linearGradient id="linear-gradient" x1="0.663" y1="-0.171" x2="0.448" y2="0.837" gradientUnits="objectBoundingBox">
      <stop offset="0" stop-color="#127cc8"/>
      <stop offset="1" stop-color="#23227b"/>
    </linearGradient>
    <linearGradient id="linear-gradient-2" x1="0.602" y1="-0.025" x2="0.405" y2="0.983" xlink:href="#linear-gradient"/>
    <linearGradient id="linear-gradient-3" x1="0.591" y1="0.133" x2="0.349" y2="1.109" xlink:href="#linear-gradient"/>
    <linearGradient id="linear-gradient-4" y1="0.5" x2="1" y2="0.5" gradientUnits="objectBoundingBox">
      <stop offset="0" stop-color="#69b02a"/>
      <stop offset="1" stop-color="#16782f"/>
    </linearGradient>
    <radialGradient id="radial-gradient" cx="0.602" cy="1.302" r="3.01" gradientTransform="matrix(0.304, -0.427, 0.143, 0.904, 2.325, -1.17)" gradientUnits="objectBoundingBox">
      <stop offset="0" stop-color="#fff"/>
      <stop offset="0.5" stop-color="#f5b325" stop-opacity="0.11"/>
      <stop offset="1" stop-color="#c51b23" stop-opacity="0.161"/>
    </radialGradient>
    <linearGradient id="linear-gradient-5" x1="1.431" y1="-1.554" x2="0.32" y2="0.796" xlink:href="#linear-gradient"/>
    <linearGradient id="linear-gradient-6" x1="0.737" y1="-0.691" x2="0.187" y2="1.734" xlink:href="#linear-gradient"/>
  </defs>
  <g id="pes_logo" transform="translate(1459.594 -2288)">
    <g id="Group_9" data-name="Group 9" transform="translate(-1447.594 2307.086)">
      <g id="Capa_1" data-name="Capa 1" transform="translate(0 -0.01)">
        <g transform="matrix(1, 0, 0, 1, -12, -19.08)" filter="url(#Path_43)">
          <path id="Path_43-2" data-name="Path 43" d="M193.625,58.5l11.349,5.232L184.08,80.82,178.8,66.349Z" transform="translate(43.91 29.53)" fill="#fff"/>
        </g>
        <g transform="matrix(1, 0, 0, 1, -12, -19.08)" filter="url(#Path_44)">
          <path id="Path_44-2" data-name="Path 44" d="M83,1.34A18.266,18.266,0,0,1,91.565,3.3a14.589,14.589,0,0,1,5.692,5.256,16.334,16.334,0,0,1,2.357,7.813,24.135,24.135,0,0,1-1.662,9.593L91.294,44.932A44.593,44.593,0,0,1,81.7,59.864,34.8,34.8,0,0,1,74.477,65.9a32.078,32.078,0,0,1-7.66,3.465,39.785,39.785,0,0,1-8.249,1.508c-2.8.224-5.739.33-8.827.33H44.614L34.668,97.858H8.6L43.554,1.34ZM69.492,29.435a4.714,4.714,0,0,0,0-4.066,3.123,3.123,0,0,0-3.017-1.709H61.914l-8.532,23.11H58.1a6.611,6.611,0,0,0,4.207-1.7,10.064,10.064,0,0,0,3.04-4.066Z" transform="translate(13.54 19.33)" fill="#fff"/>
        </g>
        <g transform="matrix(1, 0, 0, 1, -12, -19.08)" filter="url(#Path_45)">
          <path id="Path_45-2" data-name="Path 45" d="M168.124,1.34l-8.768,23.9H120.962l-4.773,12.233h30.923L138.7,60.582h-30.64l-4.631,12.244h38.395l-9.133,25.031H68.72L104.145,1.34Z" transform="translate(24.27 19.33)" fill="#fff"/>
        </g>
        <g transform="matrix(1, 0, 0, 1, -12, -19.08)" filter="url(#Path_46)">
          <path id="Path_46-2" data-name="Path 46" d="M191.035,0a38.359,38.359,0,0,1,14.7,2.546,21.731,21.731,0,0,1,9.534,7.177,20.824,20.824,0,0,1,3.795,11.243,36.946,36.946,0,0,1-2.546,14.755H195.419a6.293,6.293,0,0,1-3.724-1.049c-.99-.7-1.285-1.968-.9-3.806.083-.354.165-.66.236-.919s.165-.577.247-.919a2.074,2.074,0,0,0,.354-1.178,13.765,13.765,0,0,0,.471-4.785c-.165-1.273-1.025-1.909-2.6-1.909a6.034,6.034,0,0,0-4.714,1.98,20.258,20.258,0,0,0-3.441,6.576,5.091,5.091,0,0,0,.943,5.126,38.37,38.37,0,0,0,5.1,5.067c2.133,1.791,4.4,3.771,6.812,5.892a30.922,30.922,0,0,1,6.163,7.637A25.314,25.314,0,0,1,203.5,63.639a30.759,30.759,0,0,1-2.251,13.541,45.278,45.278,0,0,1-5.209,10.606,24.536,24.536,0,0,1-7.177,6.906,28.908,28.908,0,0,1-9.77,3.748,67.172,67.172,0,0,1-13.034,1.178,39.055,39.055,0,0,1-14.684-2.5A20.15,20.15,0,0,1,138,78.594a37.4,37.4,0,0,1,2.546-14.9h21.024a5.645,5.645,0,0,1,4.148,1.508c1.025,1,1.025,2.781,0,5.315a3.265,3.265,0,0,0-.295.919,3.664,3.664,0,0,0,0,.66,11.785,11.785,0,0,0-.318,4.5q.283,1.838,2.546,1.838a6.1,6.1,0,0,0,4.714-1.968,20.518,20.518,0,0,0,3.441-6.576,5.056,5.056,0,0,0-.955-5.056,35.069,35.069,0,0,0-5.091-5.115c-2.133-1.791-4.408-3.795-6.812-5.975a32.113,32.113,0,0,1-6.163-7.625,24.748,24.748,0,0,1-3.135-10.17,30.911,30.911,0,0,1,2.251-13.6,45.077,45.077,0,0,1,5.209-10.606,24.465,24.465,0,0,1,7.165-6.894,29.12,29.12,0,0,1,9.793-3.677A67.02,67.02,0,0,1,191.035,0Z" transform="translate(36.63 19.09)" fill="#fff"/>
        </g>
        <g transform="matrix(1, 0, 0, 1, -12, -19.08)" filter="url(#Path_47)">
          <path id="Path_47-2" data-name="Path 47" d="M195.686,39.78c19.669,6.906,31.972,16.5,32.043,27.1.141,20.6-46.043,37.039-103.152,36.733S21.083,86.342,20.942,65.742c0-6.1,4.007-11.785,11.184-16.876C12.068,57.056-.082,67.863,0,79.754c.177,26.1,58.924,47.575,131.329,47.976S262.14,107.283,262.022,81.18C261.9,63.609,235.2,48.147,195.686,39.78Z" transform="translate(12 26.19)" fill="#fff"/>
        </g>
      </g>
      <g id="Capa_1-2" data-name="Capa 1" transform="translate(0 -0.01)">
        <path id="Path_43-3" data-name="Path 43" d="M193.625,58.5l11.349,5.232L184.08,80.82,178.8,66.349Z" transform="translate(31.912 10.452)" fill="#27436f"/>
        <path id="Path_44-3" data-name="Path 44" d="M83,1.34A18.266,18.266,0,0,1,91.565,3.3a14.589,14.589,0,0,1,5.692,5.256,16.334,16.334,0,0,1,2.357,7.813,24.135,24.135,0,0,1-1.662,9.593L91.294,44.932A44.593,44.593,0,0,1,81.7,59.864,34.8,34.8,0,0,1,74.477,65.9a32.078,32.078,0,0,1-7.66,3.465,39.785,39.785,0,0,1-8.249,1.508c-2.8.224-5.739.33-8.827.33H44.614L34.668,97.858H8.6L43.554,1.34ZM69.492,29.435a4.714,4.714,0,0,0,0-4.066,3.123,3.123,0,0,0-3.017-1.709H61.914l-8.532,23.11H58.1a6.611,6.611,0,0,0,4.207-1.7,10.064,10.064,0,0,0,3.04-4.066Z" transform="translate(1.535 0.25)" fill="url(#linear-gradient)"/>
        <path id="Path_45-3" data-name="Path 45" d="M168.124,1.34l-8.768,23.9H120.962l-4.773,12.233h30.923L138.7,60.582h-30.64l-4.631,12.244h38.395l-9.133,25.031H68.72L104.145,1.34Z" transform="translate(12.265 0.25)" fill="url(#linear-gradient-2)"/>
        <path id="Path_46-3" data-name="Path 46" d="M191.035,0a38.359,38.359,0,0,1,14.7,2.546,21.731,21.731,0,0,1,9.534,7.177,20.824,20.824,0,0,1,3.795,11.243,36.946,36.946,0,0,1-2.546,14.755H195.419a6.293,6.293,0,0,1-3.724-1.049c-.99-.7-1.285-1.968-.9-3.806.083-.354.165-.66.236-.919s.165-.577.247-.919a2.074,2.074,0,0,0,.354-1.178,13.765,13.765,0,0,0,.471-4.785c-.165-1.273-1.025-1.909-2.6-1.909a6.034,6.034,0,0,0-4.714,1.98,20.258,20.258,0,0,0-3.441,6.576,5.091,5.091,0,0,0,.943,5.126,38.37,38.37,0,0,0,5.1,5.067c2.133,1.791,4.4,3.771,6.812,5.892a30.922,30.922,0,0,1,6.163,7.637A25.314,25.314,0,0,1,203.5,63.639a30.759,30.759,0,0,1-2.251,13.541,45.278,45.278,0,0,1-5.209,10.606,24.536,24.536,0,0,1-7.177,6.906,28.908,28.908,0,0,1-9.77,3.748,67.172,67.172,0,0,1-13.034,1.178,39.055,39.055,0,0,1-14.684-2.5A20.15,20.15,0,0,1,138,78.594a37.4,37.4,0,0,1,2.546-14.9h21.024a5.645,5.645,0,0,1,4.148,1.508c1.025,1,1.025,2.781,0,5.315a3.265,3.265,0,0,0-.295.919,3.664,3.664,0,0,0,0,.66,11.785,11.785,0,0,0-.318,4.5q.283,1.838,2.546,1.838a6.1,6.1,0,0,0,4.714-1.968,20.518,20.518,0,0,0,3.441-6.576,5.056,5.056,0,0,0-.955-5.056,35.069,35.069,0,0,0-5.091-5.115c-2.133-1.791-4.408-3.795-6.812-5.975a32.113,32.113,0,0,1-6.163-7.625,24.748,24.748,0,0,1-3.135-10.17,30.911,30.911,0,0,1,2.251-13.6,45.077,45.077,0,0,1,5.209-10.606,24.465,24.465,0,0,1,7.165-6.894,29.12,29.12,0,0,1,9.793-3.677A67.02,67.02,0,0,1,191.035,0Z" transform="translate(24.627 0.009)" fill="url(#linear-gradient-3)"/>
        <path id="Path_47-3" data-name="Path 47" d="M195.686,39.78c19.669,6.906,31.972,16.5,32.043,27.1.141,20.6-46.043,37.039-103.152,36.733S21.083,86.342,20.942,65.742c0-6.1,4.007-11.785,11.184-16.876C12.068,57.056-.082,67.863,0,79.754c.177,26.1,58.924,47.575,131.329,47.976S262.14,107.283,262.022,81.18C261.9,63.609,235.2,48.147,195.686,39.78Z" transform="translate(0 7.111)" fill="url(#linear-gradient-4)"/>
        <g id="Group_8" data-name="Group 8" transform="translate(0.165 46.808)" opacity="0.65">
          <path id="Path_48" data-name="Path 48" d="M262.162,81.122c.177,26.1-58.311,46.927-130.7,46.538S.317,105.787.14,79.7C.058,67.793,12.208,57,32.265,48.8a33.775,33.775,0,0,0-7.46,6.894C13.033,62.443,6.245,70.456,6.3,79.095c.165,24.548,55.483,44.782,123.551,45.136s123.115-19.244,122.95-43.792c-.083-12.893-15.32-24.559-39.656-32.8a92.712,92.712,0,0,0-17.324-7.931C235.34,48.077,262.044,63.539,262.162,81.122Z" transform="translate(-0.14 -39.71)" fill="url(#radial-gradient)"/>
        </g>
        <path id="Path_49" data-name="Path 49" d="M21.728,50.847S11.9,68.949,24.344,79.2L35.681,47.383,32.146,37.79Z" transform="translate(3.221 6.756)" fill="url(#linear-gradient-5)"/>
        <path id="Path_50" data-name="Path 50" d="M195.395,46.753a28.154,28.154,0,0,1,0,29.662L164.872,40.66,164,36.3l5.232.872,19.186,6.1Z" transform="translate(29.27 6.49)" fill="url(#linear-gradient-6)"/>
        <path id="Path_51" data-name="Path 51" d="M29.591,86.881a3.712,3.712,0,0,1-.813,1.178,2.781,2.781,0,0,1-1.178.648,3.535,3.535,0,0,1-1.461.082,6.647,6.647,0,0,1-1.779-.53l-.86-.283c-.495,1.178-.742,1.685-1.249,2.8a.236.236,0,0,1-.106.106.365.365,0,0,1-.2,0,1.662,1.662,0,0,1-.33-.082,4.416,4.416,0,0,1-.507-.2,4.346,4.346,0,0,1-.471-.236,1.792,1.792,0,0,1-.295-.2.342.342,0,0,1-.118-.153.189.189,0,0,1,0-.141c1.178-2.64,2.357-5.268,3.594-7.9a.648.648,0,0,1,.389-.4.778.778,0,0,1,.554,0l2.251.99.636.306c.2.106.424.247.7.424a4.266,4.266,0,0,1,.742.66,2.888,2.888,0,0,1,.53.86,2.451,2.451,0,0,1,.153.966A3.194,3.194,0,0,1,29.591,86.881Zm-2.133-.742a1.52,1.52,0,0,0,.153-.848,1.391,1.391,0,0,0-.247-.636,1.744,1.744,0,0,0-.471-.412,3.784,3.784,0,0,0-.577-.295l-.825-.365-1.332,2.982.9.4a2.6,2.6,0,0,0,.849.224,1.343,1.343,0,0,0,.66-.094,1.438,1.438,0,0,0,.519-.365,2.015,2.015,0,0,0,.377-.589Z" transform="translate(3.607 14.562)" fill="#fff"/>
        <path id="Path_52" data-name="Path 52" d="M33.926,88.756c-.059.165-.118.295-.165.4a1.65,1.65,0,0,1-.153.236.247.247,0,0,1-.13.094.259.259,0,0,1-.13,0l-.13-.082-.153-.118a1.072,1.072,0,0,0-.189-.13,1.179,1.179,0,0,0-.247-.13,1.462,1.462,0,0,0-.342-.071,1.826,1.826,0,0,0-.4,0,3.407,3.407,0,0,0-.495.189l-.6.354c-.613,1.544-.919,2.357-1.544,3.842a.165.165,0,0,1-.094.106.3.3,0,0,1-.189,0l-.318-.071a3.641,3.641,0,0,1-.483-.177l-.471-.2-.271-.177a.471.471,0,0,1-.13-.153.283.283,0,0,1,0-.141l2.534-6.152a.212.212,0,0,1,.082-.094h.165a1.556,1.556,0,0,1,.283,0l.389.141.389.177.236.153a.3.3,0,0,1,.082.141.165.165,0,0,1,0,.13l-.306.766a6,6,0,0,1,.731-.365,2.192,2.192,0,0,1,.589-.177,1.792,1.792,0,0,1,.495,0,1.933,1.933,0,0,1,.448.118l.2.094.224.13.189.13a.306.306,0,0,1,.106.118.189.189,0,0,1,0,.106.636.636,0,0,1,0,.13.517.517,0,0,1-.059.224A4.634,4.634,0,0,1,33.926,88.756Z" transform="translate(4.87 15.409)" fill="#fff"/>
        <path id="Path_53" data-name="Path 53" d="M39.518,93.418a.742.742,0,0,1-.33.424.707.707,0,0,1-.495,0c-1.685-.6-2.522-.907-4.207-1.532a2.711,2.711,0,0,0-.165.766,1.461,1.461,0,0,0,.13.672,1.485,1.485,0,0,0,.46.566,3.005,3.005,0,0,0,.825.436,5.409,5.409,0,0,0,.931.236,4.961,4.961,0,0,0,.731.094,4.561,4.561,0,0,0,.53,0,.849.849,0,0,1,.33,0,.224.224,0,0,1,.106,0,.271.271,0,0,1,0,.118.589.589,0,0,1,0,.189,2.451,2.451,0,0,1-.082.306.636.636,0,0,1-.106.259l-.082.177L38,96.234l-.118.082h-.33a4.49,4.49,0,0,1-.636,0,7.07,7.07,0,0,1-.86-.153,6.838,6.838,0,0,1-1-.295,6,6,0,0,1-1.556-.8,3.076,3.076,0,0,1-.931-1.084,2.663,2.663,0,0,1-.295-1.332,5.068,5.068,0,0,1,.354-1.6,4.619,4.619,0,0,1,.813-1.4,3.406,3.406,0,0,1,1.12-.872,3.253,3.253,0,0,1,1.355-.295,4.408,4.408,0,0,1,1.544.295,4.479,4.479,0,0,1,1.379.754,3.04,3.04,0,0,1,.766,1,2.64,2.64,0,0,1,.236,1.178,4.266,4.266,0,0,1-.247,1.285Zm-1.709-1.178a1.838,1.838,0,0,0,.094-1.285,1.732,1.732,0,0,0-1.615-.919,1.367,1.367,0,0,0-.577.165,1.838,1.838,0,0,0-.46.4,2.569,2.569,0,0,0-.342.577c1.155.436,1.756.648,2.934,1.061Z" transform="translate(5.759 15.803)" fill="#fff"/>
        <path id="Path_54" data-name="Path 54" d="M50.067,100.513a.2.2,0,0,1-.082.118.365.365,0,0,1-.177,0,.813.813,0,0,1-.318,0,3.654,3.654,0,0,1-.495-.118l-.542-.212a1.732,1.732,0,0,1-.295-.141.471.471,0,0,1-.13-.141.165.165,0,0,1,0-.13l1.178-3.783a2.935,2.935,0,0,0,.106-.6,1.179,1.179,0,0,0-.071-.519,1.084,1.084,0,0,0-.247-.4,1.261,1.261,0,0,0-1.249-.212,5.068,5.068,0,0,0-1,.483c-.53,1.7-.79,2.534-1.308,4.231a.165.165,0,0,1-.094.106.377.377,0,0,1-.189,0h-.318a4.819,4.819,0,0,1-.483-.141l-.483-.165a1.52,1.52,0,0,1-.283-.153.4.4,0,0,1-.141-.141.165.165,0,0,1,0-.13c.471-1.508.719-2.263,1.178-3.759a2.357,2.357,0,0,0,.13-.6,1.461,1.461,0,0,0,0-.519.955.955,0,0,0-.247-.4,1.179,1.179,0,0,0-.46-.259,1.3,1.3,0,0,0-.79,0,4.95,4.95,0,0,0-1,.471c-.554,1.685-.837,2.522-1.391,4.2a.212.212,0,0,1-.094.106.377.377,0,0,1-.189,0,1.178,1.178,0,0,1-.318,0l-.495-.141-.471-.177A1.308,1.308,0,0,1,39,97.214a.471.471,0,0,1-.13-.141.2.2,0,0,1,0-.141l2.145-6.281a.212.212,0,0,1,.082-.118.306.306,0,0,1,.165,0h.271l.4.106a2.359,2.359,0,0,1,.4.165.836.836,0,0,1,.236.13.306.306,0,0,1-.012.153.2.2,0,0,1,0,.141l-.236.731a4.714,4.714,0,0,1,1.414-.483,2.734,2.734,0,0,1,1.273.106,3.535,3.535,0,0,1,.731.318,2.463,2.463,0,0,1,.53.424,1.8,1.8,0,0,1,.342.519,1.579,1.579,0,0,1,.177.577,5.41,5.41,0,0,1,.778-.342,4.3,4.3,0,0,1,.7-.177,3.029,3.029,0,0,1,.648,0,2.686,2.686,0,0,1,.6.106,3.159,3.159,0,0,1,1.108.566,2.027,2.027,0,0,1,.589.8,2.439,2.439,0,0,1,.165.978,4.431,4.431,0,0,1-.177,1.084Z" transform="translate(6.936 16.167)" fill="#fff"/>
        <path id="Path_55" data-name="Path 55" d="M54.528,92.849a1.025,1.025,0,0,1-.448.684,1.449,1.449,0,0,1-.943,0A1.426,1.426,0,0,1,52.3,93.1a.978.978,0,0,1,0-.79,1.025,1.025,0,0,1,.448-.7,1.449,1.449,0,0,1,.943,0,1.473,1.473,0,0,1,.825.436A.99.99,0,0,1,54.528,92.849Zm-2.463,8.544a.2.2,0,0,1-.082.118.542.542,0,0,1-.189,0h-.318l-.495-.118a3.6,3.6,0,0,1-.483-.141,1.379,1.379,0,0,1-.295-.141.4.4,0,0,1-.141-.141.189.189,0,0,1,0-.141c.707-2.546,1.061-3.83,1.779-6.387a.153.153,0,0,1,.082-.106.247.247,0,0,1,.177,0,1.531,1.531,0,0,1,.318,0,4,4,0,0,1,.483.118l.471.141.283.141a.472.472,0,0,1,.13.141.2.2,0,0,1,0,.141C53.1,97.551,52.761,98.836,52.065,101.393Z" transform="translate(8.933 16.348)" fill="#fff"/>
        <path id="Path_56" data-name="Path 56" d="M60.85,99.488a.683.683,0,0,1-.271.46.66.66,0,0,1-.483,0c-1.732-.4-2.6-.613-4.325-1.037a2.534,2.534,0,0,0-.082.766,1.4,1.4,0,0,0,.2.66,1.532,1.532,0,0,0,.53.542,2.911,2.911,0,0,0,.86.342,4.431,4.431,0,0,0,.955.153,5.163,5.163,0,0,0,.731,0,3.256,3.256,0,0,0,.519,0,.966.966,0,0,1,.33,0,.075.075,0,1,1,.106.106.566.566,0,0,1,0,.2,1.957,1.957,0,0,1,0,.306,1.544,1.544,0,0,0-.071.271,1.367,1.367,0,0,1-.071.177.354.354,0,0,1-.082.13l-.106.082a1.3,1.3,0,0,1-.318.071,4.9,4.9,0,0,1-.636,0,8.323,8.323,0,0,1-.872,0,5.551,5.551,0,0,1-1.013-.177,5.716,5.716,0,0,1-1.626-.636,2.97,2.97,0,0,1-1.025-.955,2.828,2.828,0,0,1-.436-1.3,5.185,5.185,0,0,1,.177-1.638,4.808,4.808,0,0,1,.648-1.473,3.241,3.241,0,0,1,1.013-.99,3.088,3.088,0,0,1,1.308-.448,4.125,4.125,0,0,1,1.544.118,4.337,4.337,0,0,1,1.45.6,2.7,2.7,0,0,1,.86.9,2.958,2.958,0,0,1,.365,1.178,4.148,4.148,0,0,1-.106,1.308Zm-1.815-.966a1.756,1.756,0,0,0,0-1.285,1.355,1.355,0,0,0-.99-.707,1.768,1.768,0,0,0-.7,0,1.4,1.4,0,0,0-.542.236,1.709,1.709,0,0,0-.424.448,3.218,3.218,0,0,0-.271.613C57.255,98.085,57.845,98.227,59.035,98.522Z" transform="translate(9.576 16.98)" fill="#fff"/>
        <path id="Path_57" data-name="Path 57" d="M66.342,98.115a2.847,2.847,0,0,1-.2.684.283.283,0,0,1-.118.118.236.236,0,0,1-.13,0h-.141l-.165-.094-.212-.094a1.178,1.178,0,0,0-.259-.083.837.837,0,0,0-.342,0,1.438,1.438,0,0,0-.389.118,2.357,2.357,0,0,0-.436.271c-.165.118-.342.271-.542.448-.342,1.626-.507,2.439-.86,4.054a.2.2,0,0,1-.071.118.4.4,0,0,1-.189,0,1.532,1.532,0,0,1-.318,0l-.507-.094a4.871,4.871,0,0,1-.483-.118,1.992,1.992,0,0,1-.306-.13.306.306,0,0,1-.141-.13.165.165,0,0,1,0-.13c.577-2.6.872-3.9,1.45-6.493a.366.366,0,0,1,0-.118.307.307,0,0,1,.165,0,1.037,1.037,0,0,1,.271,0l.412.071.412.106a1.178,1.178,0,0,1,.247.118.247.247,0,0,1,.106.118.165.165,0,0,1,0,.13l-.177.813a8,8,0,0,1,.648-.495,2.982,2.982,0,0,1,.554-.271,1.8,1.8,0,0,1,.471-.106,3.017,3.017,0,0,1,.46,0h.212l.236.083.212.106a.578.578,0,0,1,.118.094V97.3a.4.4,0,0,1,0,.13.978.978,0,0,1,0,.236A.646.646,0,0,1,66.342,98.115Z" transform="translate(10.801 17.222)" fill="#fff"/>
        <path id="Path_58" data-name="Path 58" d="M75.12,105.613a1.332,1.332,0,0,1-.071.354.8.8,0,0,1-.094.224.365.365,0,0,1-.118.118.3.3,0,0,1-.141,0c-2.133-.318-3.182-.495-5.3-.872a.684.684,0,0,1-.424-.224.566.566,0,0,1-.106-.495c.6-3.312.9-4.961,1.485-8.249a.6.6,0,0,1,.259-.436.66.66,0,0,1,.46-.059c2.015.354,3.029.519,5.056.825a.224.224,0,0,1,.118,0,.318.318,0,0,1,.082.141.813.813,0,0,1,0,.247,2.487,2.487,0,0,1,0,.365,1.237,1.237,0,0,1-.071.342.672.672,0,0,1-.094.224.354.354,0,0,1-.106.118.3.3,0,0,1-.141,0l-3.641-.589c-.153.931-.236,1.391-.389,2.357,1.178.212,1.862.318,3.111.507a.259.259,0,0,1,.13.059.271.271,0,0,1,.071.141.66.66,0,0,1,0,.236v.354a1.969,1.969,0,0,1-.082.354.6.6,0,0,1-.094.212.2.2,0,0,1-.118.106.3.3,0,0,1-.141,0l-3.123-.519c-.247,1.131-.247,1.626-.483,2.8,1.508.259,2.263.377,3.771.613a.165.165,0,0,1,.13,0,.283.283,0,0,1,.082.141.7.7,0,0,1,0,.236,2.227,2.227,0,0,1-.012.365Z" transform="translate(12.287 17.137)" fill="#fff"/>
        <path id="Path_59" data-name="Path 59" d="M82.577,106.733a.165.165,0,0,1,0,.118.306.306,0,0,1-.177.071,1.25,1.25,0,0,1-.318,0h-.495l-.507-.082a1.178,1.178,0,0,1-.306-.094.33.33,0,0,1-.153-.118.165.165,0,0,1,0-.13l.471-3.759a3.394,3.394,0,0,0,0-.766,1.3,1.3,0,0,0-.165-.495,1.049,1.049,0,0,0-.33-.354,1.178,1.178,0,0,0-.519-.177,1.473,1.473,0,0,0-.813.153,4.289,4.289,0,0,0-.919.648l-.589,4.384a.247.247,0,0,1-.071.118.306.306,0,0,1-.177.071,1.32,1.32,0,0,1-.318,0,4.719,4.719,0,0,1-.507,0l-.613-.141a1.178,1.178,0,0,1-.306-.094.342.342,0,0,1-.153-.118.212.212,0,0,1,0-.141c.377-2.628.577-3.948.955-6.576a.142.142,0,0,1,0-.118.271.271,0,0,1,.153-.071.931.931,0,0,1,.271,0H77.4l.424.082a.837.837,0,0,1,.247.094.259.259,0,0,1,.118.106.236.236,0,0,1,0,.13l-.106.766a4.784,4.784,0,0,1,1.32-.731,2.864,2.864,0,0,1,1.3-.13,3.076,3.076,0,0,1,1.178.377,2.18,2.18,0,0,1,.731.7,2.51,2.51,0,0,1,.342.943,4.949,4.949,0,0,1,0,1.249Z" transform="translate(13.493 17.689)" fill="#fff"/>
        <path id="Path_60" data-name="Path 60" d="M90.288,103.894a.684.684,0,0,1-.2.483.636.636,0,0,1-.471.13c-1.768-.141-2.652-.224-4.408-.389a2.357,2.357,0,0,0,0,.778,1.3,1.3,0,0,0,.295.613,1.591,1.591,0,0,0,.577.436,2.711,2.711,0,0,0,.9.2,5.351,5.351,0,0,0,.955,0,5.407,5.407,0,0,0,.731-.106l.507-.106a.861.861,0,0,1,.318,0,.177.177,0,0,1,.118,0,.224.224,0,0,1,.082.094.848.848,0,0,1,0,.2v.778a.33.33,0,0,1-.059.13l-.094.106a.931.931,0,0,1-.306.118,4.583,4.583,0,0,1-.625.118,5.752,5.752,0,0,1-.848.082,10.074,10.074,0,0,1-1.025,0,5.621,5.621,0,0,1-1.7-.389,3.076,3.076,0,0,1-1.178-.8,2.816,2.816,0,0,1-.613-1.178,4.962,4.962,0,0,1,0-1.638,4.856,4.856,0,0,1,.412-1.567,3.536,3.536,0,0,1,.849-1.178,3.206,3.206,0,0,1,1.178-.636,4.808,4.808,0,0,1,3.04.259,2.852,2.852,0,0,1,.99.766,2.675,2.675,0,0,1,.519,1.072,4.349,4.349,0,0,1,.094,1.308Zm-1.933-.7a1.744,1.744,0,0,0-.236-1.273,1.332,1.332,0,0,0-1.084-.542,1.379,1.379,0,0,0-.672,0,1.533,1.533,0,0,0-.519.318,2.015,2.015,0,0,0-.342.507,2.757,2.757,0,0,0-.177.648Z" transform="translate(14.845 17.865)" fill="#fff"/>
        <path id="Path_61" data-name="Path 61" d="M95.431,101.675v.436a2.169,2.169,0,0,1-.071.271.271.271,0,0,1-.082.13.189.189,0,0,1-.141,0,.354.354,0,0,1-.141,0h-.177l-.224-.071a.86.86,0,0,0-.259,0,.7.7,0,0,0-.342,0,1.473,1.473,0,0,0-.365.177,2.934,2.934,0,0,0-.4.33c-.141.141-.283.318-.448.519-.106,1.662-.153,2.487-.259,4.136a.165.165,0,0,1-.059.13.412.412,0,0,1-.177.083,1.178,1.178,0,0,1-.318,0h-1a1.544,1.544,0,0,1-.318-.083.66.66,0,0,1-.165-.106.236.236,0,0,1,0-.13l.471-6.635a.248.248,0,0,1,0-.13.377.377,0,0,1,.153-.082h1.108l.247.071a.247.247,0,0,1,.165.236v.825a4.42,4.42,0,0,1,.566-.577,3.771,3.771,0,0,1,.495-.365,1.438,1.438,0,0,1,.46-.165h.919a.624.624,0,0,1,.224.071l.13.071a.177.177,0,0,1,.059.082v.13a1.179,1.179,0,0,1,0,.236A1.722,1.722,0,0,0,95.431,101.675Z" transform="translate(16.147 17.975)" fill="#fff"/>
        <path id="Path_62" data-name="Path 62" d="M102.2,101.748a1.391,1.391,0,0,1-.106.53c0,.106-.13.165-.212.165h-.849a.99.99,0,0,1,.247.412,1.567,1.567,0,0,1,0,.471,2.439,2.439,0,0,1-.236,1.037,1.992,1.992,0,0,1-.625.742,2.6,2.6,0,0,1-.966.436,4.538,4.538,0,0,1-1.178.13,3.076,3.076,0,0,1-.672-.106,1.921,1.921,0,0,1-.483-.2.908.908,0,0,0-.189.224.613.613,0,0,0-.083.295.424.424,0,0,0,.189.365,1.179,1.179,0,0,0,.577.165l1.78.118a5.019,5.019,0,0,1,1.108.2,2.428,2.428,0,0,1,.8.4,1.815,1.815,0,0,1,.4,2.357,2.1,2.1,0,0,1-.731.742,3.747,3.747,0,0,1-1.178.471,6.387,6.387,0,0,1-1.709.141,8.25,8.25,0,0,1-1.615-.2,3.535,3.535,0,0,1-1.084-.424,1.485,1.485,0,0,1-.589-.589,1.379,1.379,0,0,1-.165-.742,1.449,1.449,0,0,1,.094-.46,1.827,1.827,0,0,1,.224-.424,3.539,3.539,0,0,1,.354-.377,3.691,3.691,0,0,1,.471-.33,1.32,1.32,0,0,1-.519-.495,1.049,1.049,0,0,1-.165-.648,1.438,1.438,0,0,1,.259-.79,2.357,2.357,0,0,1,.6-.625,1.815,1.815,0,0,1-.424-.648,2,2,0,0,1-.13-.919,2.2,2.2,0,0,1,.271-1.025,2.357,2.357,0,0,1,.648-.742,2.746,2.746,0,0,1,.955-.448,4.938,4.938,0,0,1,1.85-.059,4,4,0,0,1,.566.118h2.263a.236.236,0,0,1,.212.165,1.261,1.261,0,0,1,.035.566Zm-2.357,6.823a.577.577,0,0,0-.283-.519,1.709,1.709,0,0,0-.813-.224l-1.473-.082a1.721,1.721,0,0,0-.354.259,1.909,1.909,0,0,0-.212.236.825.825,0,0,0-.118.224v.236a.636.636,0,0,0,.4.577,5.083,5.083,0,0,0,1.98.236,1.379,1.379,0,0,0,.53-.212.813.813,0,0,0,.295-.306.99.99,0,0,0,.094-.424Zm-.33-5.315a1.179,1.179,0,0,0-.295-.849,1.379,1.379,0,0,0-.907-.33,1.45,1.45,0,0,0-.519.083.99.99,0,0,0-.625.6,1.367,1.367,0,0,0-.083.436,1,1,0,0,0,.283.813,1.556,1.556,0,0,0,1.426.259,1.072,1.072,0,0,0,.389-.236,1.179,1.179,0,0,0,.236-.354,1.308,1.308,0,0,0,.141-.424Z" transform="translate(16.889 18.008)" fill="#fff"/>
        <path id="Path_63" data-name="Path 63" d="M106.5,108.191c-.354.943-.53,1.414-.9,2.357,0,.13-.189.212-.412.271a3.994,3.994,0,0,1-.966.082,3.371,3.371,0,0,1-.542,0,.8.8,0,0,1-.295-.082c-.071,0-.106-.094-.106-.153a.53.53,0,0,1,0-.212c.412-.884.613-1.332,1-2.227a.5.5,0,0,1-.189-.13.648.648,0,0,1-.13-.2c-.99-2.451-1.473-3.677-2.428-6.14a1.438,1.438,0,0,1-.094-.4.236.236,0,0,1,.106-.212.707.707,0,0,1,.318-.106h1.155a.707.707,0,0,1,.306,0,.283.283,0,0,1,.165.141,1.18,1.18,0,0,1,.106.259c.66,1.78,1,2.675,1.685,4.455h0c.625-1.815.931-2.722,1.544-4.537a.436.436,0,0,1,.118-.259.4.4,0,0,1,.247-.094,3.725,3.725,0,0,1,.625,0,2.781,2.781,0,0,1,.566,0,.613.613,0,0,1,.342.106.236.236,0,0,1,.106.212.931.931,0,0,1,0,.33C107.992,104.278,107.462,105.586,106.5,108.191Z" transform="translate(18.105 18.035)" fill="#fff"/>
        <path id="Path_64" data-name="Path 64" d="M118.468,105.251a2.652,2.652,0,0,1-1.013,2.357,3.63,3.63,0,0,1-1.178.648,5.7,5.7,0,0,1-1.532.271,7.2,7.2,0,0,1-1.025,0,6.188,6.188,0,0,1-.837-.165,3.747,3.747,0,0,1-.625-.224,1.485,1.485,0,0,1-.354-.2.6.6,0,0,1-.165-.283,3.748,3.748,0,0,1,0-.519v-.389a1.285,1.285,0,0,1,0-.259.425.425,0,0,1,.094-.141.4.4,0,0,1,.141,0,.7.7,0,0,1,.33.118,4.984,4.984,0,0,0,.542.247,4.83,4.83,0,0,0,.79.247,4.254,4.254,0,0,0,1.061.071,2.451,2.451,0,0,0,.7-.118,1.544,1.544,0,0,0,.519-.271,1.049,1.049,0,0,0,.318-.4,1.261,1.261,0,0,0,.082-.519.837.837,0,0,0-.224-.554,1.815,1.815,0,0,0-.53-.389,4.714,4.714,0,0,0-.731-.306l-.825-.306a6.649,6.649,0,0,1-.837-.365,3.276,3.276,0,0,1-.731-.519,2.593,2.593,0,0,1-.53-.731,2.628,2.628,0,0,1-.224-1.025,2.569,2.569,0,0,1,.236-1.178,2.428,2.428,0,0,1,.707-.907,3.182,3.182,0,0,1,1.072-.554,4.714,4.714,0,0,1,1.32-.236,5.07,5.07,0,0,1,.731,0,5.9,5.9,0,0,1,.684.106,5.7,5.7,0,0,1,.577.165,1.65,1.65,0,0,1,.33.165.554.554,0,0,1,.118.13.449.449,0,0,1,0,.13v.212a2.358,2.358,0,0,1,0,.33v.365a1.476,1.476,0,0,1,0,.247.271.271,0,0,1-.071.141.259.259,0,0,1-.141.059.848.848,0,0,1-.283-.094l-.483-.2a6.2,6.2,0,0,0-.648-.189,3.535,3.535,0,0,0-.813,0,2.109,2.109,0,0,0-.589.106,1.331,1.331,0,0,0-.424.236.849.849,0,0,0-.236.342,1.178,1.178,0,0,0-.071.412.919.919,0,0,0,.212.554,1.874,1.874,0,0,0,.53.389,4.714,4.714,0,0,0,.731.306l.837.295a8.769,8.769,0,0,1,.849.365,3.535,3.535,0,0,1,.742.495,3.151,3.151,0,0,1,.872,1.532Z" transform="translate(19.932 17.616)" fill="#fff"/>
        <path id="Path_65" data-name="Path 65" d="M126.053,103.508a4.584,4.584,0,0,1-.094,1.567,3.217,3.217,0,0,1-.625,1.273,3.394,3.394,0,0,1-1.178.9,5.338,5.338,0,0,1-1.744.424,5.009,5.009,0,0,1-1.721-.106,3.123,3.123,0,0,1-1.249-.625,2.923,2.923,0,0,1-.79-1.108,4.714,4.714,0,0,1-.33-1.544,4.832,4.832,0,0,1,.141-1.567,3.088,3.088,0,0,1,.648-1.249,3.371,3.371,0,0,1,1.178-.872,4.985,4.985,0,0,1,1.685-.412,5.15,5.15,0,0,1,1.685.094,2.993,2.993,0,0,1,1.178.6,3.028,3.028,0,0,1,.8,1.084,5.2,5.2,0,0,1,.412,1.544Zm-2.086.271a4.821,4.821,0,0,0-.177-.9,1.779,1.779,0,0,0-.342-.684,1.32,1.32,0,0,0-.577-.436,1.791,1.791,0,0,0-.86-.094,1.885,1.885,0,0,0-.766.212,1.308,1.308,0,0,0-.519.495,1.921,1.921,0,0,0-.271.731,3.464,3.464,0,0,0,0,.943,4.857,4.857,0,0,0,.165.9,2.015,2.015,0,0,0,.342.7,1.32,1.32,0,0,0,.577.436,2.227,2.227,0,0,0,1.662-.13,1.344,1.344,0,0,0,.53-.495,1.921,1.921,0,0,0,.259-.731,4.077,4.077,0,0,0-.024-.931Z" transform="translate(21.116 17.886)" fill="#fff"/>
        <path id="Path_66" data-name="Path 66" d="M128.757,107.036a.13.13,0,0,1,0,.13.33.33,0,0,1-.153.118,1.947,1.947,0,0,1-.306.094l-.507.071H127.3a1.3,1.3,0,0,1-.33,0,.306.306,0,0,1-.177-.071.165.165,0,0,1,0-.118c-.342-3.253-.7-6.505-1.037-9.746a.2.2,0,0,1,0-.141.4.4,0,0,1,.153-.118,1.237,1.237,0,0,1,.295-.094,2.357,2.357,0,0,1,.483-.071h.79a.354.354,0,0,1,.165.082.2.2,0,0,1,.071.13C128.015,100.519,128.4,103.8,128.757,107.036Z" transform="translate(22.442 17.339)" fill="#fff"/>
        <path id="Path_67" data-name="Path 67" d="M137.087,105.513a.3.3,0,0,1,0,.141.412.412,0,0,1-.13.106,1.1,1.1,0,0,1-.259.094,2.709,2.709,0,0,1-.424.082,2.357,2.357,0,0,1-.436,0,.943.943,0,0,1-.271,0,.236.236,0,0,1-.153-.071.165.165,0,0,1,0-.118l-.118-.766a4.407,4.407,0,0,1-1.1,1.061,3.123,3.123,0,0,1-1.261.483,3.287,3.287,0,0,1-1.3,0,2.2,2.2,0,0,1-.9-.495,2.286,2.286,0,0,1-.566-.837,5.573,5.573,0,0,1-.295-1.249c-.2-1.615-.295-2.416-.495-4.03a.2.2,0,0,1,0-.141.342.342,0,0,1,.153-.106,1.085,1.085,0,0,1,.295-.094,3.7,3.7,0,0,1,.483-.082,4.712,4.712,0,0,1,.483,0h.318l.177.071a.188.188,0,0,1,0,.13c.2,1.485.295,2.227.495,3.724a3.533,3.533,0,0,0,.177.778,1.5,1.5,0,0,0,.295.436,1.178,1.178,0,0,0,.412.259,1.273,1.273,0,0,0,.566,0,1.379,1.379,0,0,0,.742-.365,4.431,4.431,0,0,0,.731-.872c-.247-1.744-.377-2.628-.636-4.372a.318.318,0,0,1,0-.141.365.365,0,0,1,.141-.106l.295-.106.483-.094a4.708,4.708,0,0,1,.483,0,1.179,1.179,0,0,1,.306,0,.436.436,0,0,1,.177,0,.283.283,0,0,1,.071.13C136.475,101.577,136.675,102.885,137.087,105.513Z" transform="translate(23.091 17.648)" fill="#fff"/>
        <path id="Path_68" data-name="Path 68" d="M143.729,97.845a.613.613,0,0,1,.483,0,.542.542,0,0,1,.212.354c.483,2.5.731,3.748,1.178,6.258a.2.2,0,0,1,0,.141.377.377,0,0,1-.141.118,1.674,1.674,0,0,1-.306.118l-.483.106a3.693,3.693,0,0,1-.507.082,1.519,1.519,0,0,1-.33,0,.271.271,0,0,1-.177,0,.2.2,0,0,1-.071-.118c-.4-2.109-.589-3.17-.99-5.291-1.273.247-1.909.365-3.194.577l.53,3.076a1.5,1.5,0,0,0,.33.778.79.79,0,0,0,.707.153,1.756,1.756,0,0,0,.295-.082l.212-.094.165-.094h.118a.13.13,0,0,1,.094,0,.153.153,0,0,1,.094.083l.082.2a.6.6,0,0,0,.083.342,3.074,3.074,0,0,1,0,.495.684.684,0,0,1-.071.259.613.613,0,0,1-.2.177l-.318.153-.4.13-.448.106a3.865,3.865,0,0,1-1.084,0,2.039,2.039,0,0,1-.825-.306,1.874,1.874,0,0,1-.542-.66,3.748,3.748,0,0,1-.318-1.025c-.212-1.343-.33-2.015-.542-3.359l-.86.141a.271.271,0,0,1-.259-.141,1.414,1.414,0,0,1-.165-.566c0-.141,0-.259,0-.365a1.181,1.181,0,0,1,0-.236.413.413,0,0,1,.082-.141h.13l.849-.13c-.106-.589-.153-.884-.247-1.461a.259.259,0,0,1,0-.141.307.307,0,0,1,.141-.13l.295-.106.471-.106h.483a.9.9,0,0,1,.318,0,.306.306,0,0,1,.177.071.247.247,0,0,1,.071.118l.248,1.461C141,98.364,141.879,98.2,143.729,97.845Zm.365-2.109a1.049,1.049,0,0,1-.094.825,1.532,1.532,0,0,1-.86.389,1.473,1.473,0,0,1-.943,0,1,1,0,0,1-.318-.754,1.049,1.049,0,0,1,.094-.825,1.426,1.426,0,0,1,.86-.389,1.449,1.449,0,0,1,.931,0A1.037,1.037,0,0,1,144.095,95.736Z" transform="translate(24.286 16.949)" fill="#fff"/>
        <path id="Path_69" data-name="Path 69" d="M152.637,98.975a4.714,4.714,0,0,1,.118,1.556,3.182,3.182,0,0,1-1.52,2.357,5.456,5.456,0,0,1-1.673.66,5.291,5.291,0,0,1-1.732.118,3.182,3.182,0,0,1-1.332-.448,3.005,3.005,0,0,1-.931-.99,5.114,5.114,0,0,1-.53-1.485,4.821,4.821,0,0,1-.071-1.579,3.406,3.406,0,0,1,.483-1.332,3.453,3.453,0,0,1,1.049-1.013,4.879,4.879,0,0,1,1.626-.636,5.362,5.362,0,0,1,1.685-.13,2.84,2.84,0,0,1,2.239,1.391A5.35,5.35,0,0,1,152.637,98.975Zm-2.051.554a4.208,4.208,0,0,0-.283-.872,2.251,2.251,0,0,0-.436-.636,1.391,1.391,0,0,0-.636-.342,1.933,1.933,0,0,0-.86,0,2.145,2.145,0,0,0-.742.318,1.591,1.591,0,0,0-.46.554,2.215,2.215,0,0,0-.165.766,3.37,3.37,0,0,0,.083.943,4.455,4.455,0,0,0,.283.872,1.791,1.791,0,0,0,.436.636,1.178,1.178,0,0,0,.625.354,2.063,2.063,0,0,0,.884,0,1.933,1.933,0,0,0,.754-.33,1.308,1.308,0,0,0,.46-.554,1.921,1.921,0,0,0,.165-.754A3.406,3.406,0,0,0,150.587,99.529Z" transform="translate(25.867 17.151)" fill="#fff"/>
        <path id="Path_70" data-name="Path 70" d="M160.574,100.435a.2.2,0,0,1,0,.141.519.519,0,0,1-.141.13,1.179,1.179,0,0,1-.295.141l-.471.153-.507.106h-.318a.4.4,0,0,1-.189,0,.212.212,0,0,1-.083-.118c-.389-1.461-.577-2.192-.978-3.665a2.605,2.605,0,0,0-.271-.707,1.4,1.4,0,0,0-.33-.4,1.026,1.026,0,0,0-.448-.2,1.3,1.3,0,0,0-.554,0,1.391,1.391,0,0,0-.7.448,4.5,4.5,0,0,0-.613.943c.436,1.709.648,2.569,1.084,4.29a.165.165,0,0,1,0,.13.306.306,0,0,1-.141.13,1.733,1.733,0,0,1-.295.141l-.483.141-.507.106a1.532,1.532,0,0,1-.318,0,.3.3,0,0,1-.189,0,.189.189,0,0,1-.082-.106c-.625-2.593-.943-3.877-1.579-6.458a.2.2,0,0,1,0-.141.283.283,0,0,1,.118-.118,1.178,1.178,0,0,1,.247-.13l.4-.118.412-.082h.271a.377.377,0,0,1,.153,0,.247.247,0,0,1,.071.118l.189.742a4.371,4.371,0,0,1,.955-1.178,3.087,3.087,0,0,1,1.178-.613,3,3,0,0,1,1.261-.106,2.1,2.1,0,0,1,.943.377,2.274,2.274,0,0,1,.672.742,5.115,5.115,0,0,1,.46,1.178Z" transform="translate(27.157 16.811)" fill="#fff"/>
        <path id="Path_71" data-name="Path 71" d="M165.7,96.89a2.192,2.192,0,0,1,.071,1.025,2.074,2.074,0,0,1-.436.884,3.04,3.04,0,0,1-.848.719,6.128,6.128,0,0,1-1.178.507,7.071,7.071,0,0,1-.778.165,5.186,5.186,0,0,1-.7,0,3.537,3.537,0,0,1-.53,0,1.179,1.179,0,0,1-.318-.082.46.46,0,0,1-.2-.2,1.449,1.449,0,0,1-.189-.46,3.437,3.437,0,0,1-.083-.342.637.637,0,0,1,0-.212.189.189,0,0,1,.153-.177.59.59,0,0,1,.283,0l.483.071a5.429,5.429,0,0,0,.66,0,3.442,3.442,0,0,0,.79-.13,2.463,2.463,0,0,0,.471-.2,1.179,1.179,0,0,0,.318-.247.707.707,0,0,0,.165-.306.743.743,0,0,0,0-.354.5.5,0,0,0-.259-.318,1.06,1.06,0,0,0-.46-.153,4.709,4.709,0,0,0-.613,0h-.684a1.832,1.832,0,0,1-.707-.094,2.593,2.593,0,0,1-.66-.236,1.886,1.886,0,0,1-.542-.436,2.181,2.181,0,0,1-.365-.742,1.921,1.921,0,0,1,0-.9,1.815,1.815,0,0,1,.365-.813,3.112,3.112,0,0,1,.766-.684,4.713,4.713,0,0,1,1.178-.495l.648-.141a3.536,3.536,0,0,1,.589-.059,1.922,1.922,0,0,1,.46,0,1.179,1.179,0,0,1,.283,0,.271.271,0,0,1,.13.082.424.424,0,0,1,.094.106l.083.177.094.271a3.243,3.243,0,0,1,.083.318,1.755,1.755,0,0,1,0,.2.33.33,0,0,1,0,.13.224.224,0,0,1-.106,0,.507.507,0,0,1-.236,0H163a3.242,3.242,0,0,0-.7.13,1.674,1.674,0,0,0-.436.189.966.966,0,0,0-.283.236.613.613,0,0,0-.118.271.578.578,0,0,0,0,.283.53.53,0,0,0,.259.33,1.579,1.579,0,0,0,.471.153,4.635,4.635,0,0,0,.613,0h.7a4.818,4.818,0,0,1,.707.082,2.239,2.239,0,0,1,.672.212,1.933,1.933,0,0,1,.554.424A1.838,1.838,0,0,1,165.7,96.89Z" transform="translate(28.466 16.514)" fill="#fff"/>
        <path id="Path_72" data-name="Path 72" d="M168.526,95.894c.059.189.106.365.141.519a3.3,3.3,0,0,1,0,.471,3.04,3.04,0,0,1,0,.46,3.337,3.337,0,0,1-.153.495l-.625,1.7a.554.554,0,0,1-.094.165.448.448,0,0,1-.13.13.79.79,0,0,1-.224.118,2.109,2.109,0,0,1-.342.13l-.377.106a.79.79,0,0,1-.224,0,.141.141,0,0,1-.106-.071.33.33,0,0,1,0-.153l.354-2.263-.354-1.178a1.179,1.179,0,0,1,0-.412.507.507,0,0,1,.118-.295,1.013,1.013,0,0,1,.306-.212,3.844,3.844,0,0,1,.495-.177,2.286,2.286,0,0,1,.483-.13.731.731,0,0,1,.354,0,.472.472,0,0,1,.259.165A1.179,1.179,0,0,1,168.526,95.894Z" transform="translate(29.694 17.015)" fill="#fff"/>
        <path id="Path_73" data-name="Path 73" d="M175.777,95.725a.177.177,0,0,1,0,.153.682.682,0,0,1-.13.153l-.295.165a5.058,5.058,0,0,1-.507.2l-.507.165a2.49,2.49,0,0,1-.33.059.5.5,0,0,1-.212,0,.212.212,0,0,1-.094-.106l-3.04-8.579a.153.153,0,0,1,0-.141.389.389,0,0,1,.13-.153,1.638,1.638,0,0,1,.295-.165,4.031,4.031,0,0,1,.471-.2l.483-.153a2,2,0,0,1,.33,0,.306.306,0,0,1,.189,0,.224.224,0,0,1,.094.118Q174.245,91.447,175.777,95.725Z" transform="translate(30.456 15.558)" fill="#fff"/>
        <path id="Path_74" data-name="Path 74" d="M183.8,92.43a.282.282,0,0,1,0,.141.341.341,0,0,1-.118.153,1.72,1.72,0,0,1-.283.177l-.46.212-.483.177a1.508,1.508,0,0,1-.33,0,.306.306,0,0,1-.189,0,.188.188,0,0,1-.094-.094l-1.4-3.535a3.193,3.193,0,0,0-.365-.684,1.532,1.532,0,0,0-.377-.354,1.049,1.049,0,0,0-.471-.141,1.178,1.178,0,0,0-.542.106,1.45,1.45,0,0,0-.648.53,4.266,4.266,0,0,0-.507,1.013l1.591,4.125a.13.13,0,0,1,0,.13.307.307,0,0,1-.13.153.99.99,0,0,1-.283.165,4.032,4.032,0,0,1-.471.2,3.373,3.373,0,0,1-.483.165l-.318.071a.377.377,0,0,1-.189,0,.165.165,0,0,1-.094-.106L174.8,88.824a.283.283,0,0,1,0-.141.33.33,0,0,1,.094-.141,1.378,1.378,0,0,1,.236-.141l.389-.177a3.158,3.158,0,0,1,.412-.13.86.86,0,0,1,.259,0,.236.236,0,0,1,.165,0,.189.189,0,0,1,.083.106l.271.707a4.843,4.843,0,0,1,.825-1.273,3.005,3.005,0,0,1,1.1-.754,3.288,3.288,0,0,1,1.249-.259,2.062,2.062,0,0,1,.99.259,2.357,2.357,0,0,1,.766.66,4.8,4.8,0,0,1,.6,1.084C182.862,90.155,183.18,90.921,183.8,92.43Z" transform="translate(31.196 15.471)" fill="#fff"/>
        <path id="Path_75" data-name="Path 75" d="M189.159,88.88c0,.118.094.212.118.295s0,.153.059.212a.776.776,0,0,1,0,.153.554.554,0,0,1-.059.189,1.626,1.626,0,0,1-.236.33,2.759,2.759,0,0,1-.413.424c-.165.141-.354.283-.554.424a6.034,6.034,0,0,1-.672.354,4.266,4.266,0,0,1-1.508.389,2.84,2.84,0,0,1-1.308-.2,3.123,3.123,0,0,1-1.072-.79,4.808,4.808,0,0,1-.8-1.332,4.938,4.938,0,0,1-.412-1.7,3.382,3.382,0,0,1,.247-1.4,3.041,3.041,0,0,1,.79-1.108,4.526,4.526,0,0,1,1.261-.8,6.092,6.092,0,0,1,.6-.212l.6-.106a4.065,4.065,0,0,1,.53,0,1.7,1.7,0,0,1,.354,0,.625.625,0,0,1,.177.082l.118.106.118.189.141.283a1.355,1.355,0,0,1,.165.589c0,.13,0,.212-.118.247a.566.566,0,0,1-.318,0h-.436a2.806,2.806,0,0,0-.554,0,2.569,2.569,0,0,0-.7.189,1.52,1.52,0,0,0-.907,1.013,2.769,2.769,0,0,0,.259,1.685,3.617,3.617,0,0,0,.471.825,2.039,2.039,0,0,0,.566.507,1.4,1.4,0,0,0,.66.165,1.838,1.838,0,0,0,.742-.177,2.1,2.1,0,0,0,.636-.4,2.793,2.793,0,0,0,.4-.46q.153-.224.247-.389a.542.542,0,0,1,.2-.224.259.259,0,0,1,.13,0,.271.271,0,0,1,.13.094.825.825,0,0,1,.141.212,3.369,3.369,0,0,1,.2.342Z" transform="translate(32.536 15.002)" fill="#fff"/>
      </g>
    </g>
    <rect id="Rectangle_65" data-name="Rectangle 65" width="279" height="173" transform="translate(-1456 2288)" fill="none"/>
  </g>
</svg>
