<svg xmlns="http://www.w3.org/2000/svg" width="100" height="100" viewBox="0 0 100 100">
  <g id="Group_63" data-name="Group 63" transform="translate(3583 -6254)">
    <g id="Group_60" data-name="Group 60" transform="translate(0.351 -3.283)">
      <path
        id="Subtraction_41"
        data-name="Subtraction 41"
        d="M41.791,81.6A37.059,37.059,0,0,1,9.069,61.883L14,58.571A29.992,29.992,0,0,0,47.973,14.965l2.571-6.331A37,37,0,0,1,41.791,81.6Z"
        transform="translate(-3576.792 6262.403)"
        fill="none"
      />
      <path
        id="Subtraction_40_-_Outline"
        data-name="Subtraction 40 - Outline"
        d="M43,73A32.01,32.01,0,0,0,55.678,11.607q-.482-.208-.969-.4A35,35,0,0,1,17.7,60.6,31.911,31.911,0,0,0,43,73m0,5a37,37,0,0,1-30.29-15.746,36.353,36.353,0,0,1-3.247-5.6,1.988,1.988,0,0,1,.8-2.508c.4-.34,1.455-.357,2.87.217A30.083,30.083,0,0,0,53,26,30.34,30.34,0,0,0,47.289,8.4c-1-1.421.145-4.194,2.423-3.8a35.966,35.966,0,0,1,7.948,2.413A37,37,0,0,1,43,78Z"
        transform="translate(-3578 6266)"
        fill="#fff"
      />
    </g>
    <rect id="Rectangle_52" data-name="Rectangle 52" width="100" height="100" transform="translate(-3583 6254)" fill="none" />
  </g>
</svg>
