<svg xmlns="http://www.w3.org/2000/svg" xmlns:xlink="http://www.w3.org/1999/xlink" width="961" height="601" viewBox="0 0 961 601">
  <defs>
    <clipPath id="clip-path">
      <rect id="Rectangle_88" data-name="Rectangle 88" width="961" height="601" transform="translate(-1868 5351)" fill="none" />
    </clipPath>
  </defs>
  <g id="Mask_Group_7" data-name="Mask Group 7" transform="translate(1868 -5351)" clip-path="url(#clip-path)">
    <g id="Group_50" data-name="Group 50" transform="translate(-1990.735 5236.16)">
      <rect
        id="Rectangle_79"
        data-name="Rectangle 79"
        width="960"
        height="600"
        transform="translate(123.735 114.84)"
        fill="#012169"
      />
      <path
        id="Union_34"
        data-name="Union 34"
        d="M30.75,703.664,492.234,416.007,0,109.182,43.542,0,601.585,347.845,1131.018,17.833l43.542,109.182L710.935,416.007l432.874,269.824-43.542,109.183L601.585,484.168,74.292,812.847Z"
        fill="#fff"
      />
      <g id="Path_116" data-name="Path 116" transform="matrix(0.895, -0.446, 0.446, 0.895, 588.896, 325.963)" fill="#c8102e">
        <path
          d="M -0.9423993229866028 82.13701629638672 L 2.16996169090271 44.74341201782227 L 579.3572387695312 -10.18875122070312 L 576.244873046875 27.20478439331055 L -0.9423993229866028 82.13701629638672 Z"
          stroke="none"
        />
        <path
          d="M -0.3945243656635284 81.58265686035156 L 575.7813110351562 26.74668502807617 L 578.8093872070312 -9.634387016296387 L 2.633567094802856 45.20151138305664 L -0.3945243656635284 81.58265686035156 M -1.490286350250244 82.69145202636719 L 1.706356525421143 44.28524017333984 L 579.9051513671875 -10.74318790435791 L 576.70849609375 27.66295623779297 L -1.490286350250244 82.69145202636719 Z"
          stroke="none"
          fill="#707070"
        />
      </g>
      <g id="Path_117" data-name="Path 117" transform="matrix(0.895, -0.446, 0.446, 0.895, 87.38, 685.707)" fill="#c8102e">
        <path
          d="M -0.9423993229866028 82.13701629638672 L 2.16996169090271 44.74341201782227 L 579.3572387695312 -10.18875122070312 L 576.244873046875 27.20478439331055 L -0.9423993229866028 82.13701629638672 Z"
          stroke="none"
        />
        <path
          d="M -0.3945243656635284 81.58265686035156 L 575.7813110351562 26.74668502807617 L 578.8093872070312 -9.634387016296387 L 2.633567094802856 45.20151138305664 L -0.3945243656635284 81.58265686035156 M -1.490286350250244 82.69145202636719 L 1.706356525421143 44.28524017333984 L 579.9051513671875 -10.74318790435791 L 576.70849609375 27.66295623779297 L -1.490286350250244 82.69145202636719 Z"
          stroke="none"
          fill="#707070"
        />
      </g>
      <g id="Path_118" data-name="Path 118" transform="translate(635.556 389.649) rotate(26.6)" fill="#c8102e">
        <path
          d="M 581.048095703125 93.01333618164062 L 3.668617010116577 37.93697357177734 L 0.5480697751045227 0.554526686668396 L 577.9276733398438 55.63088989257812 L 581.048095703125 93.01333618164062 Z"
          stroke="none"
        />
        <path
          d="M 1.0960693359375 1.109107971191406 L 4.132080078125 37.4788703918457 L 580.5001220703125 92.45875549316406 L 577.4641723632812 56.08899307250977 L 1.0960693359375 1.109107971191406 M 0 0 L 578.3911743164062 55.17285919189453 L 581.59619140625 93.56786346435547 L 3.205078125 38.39500427246094 L 0 0 Z"
          stroke="none"
          fill="#707070"
        />
      </g>
      <g id="Path_119" data-name="Path 119" transform="translate(104.328 102.245) rotate(26.6)" fill="#c8102e">
        <path
          d="M 581.048095703125 93.01333618164062 L 3.668617010116577 37.93697357177734 L 0.5480697751045227 0.554526686668396 L 577.9276733398438 55.63088989257812 L 581.048095703125 93.01333618164062 Z"
          stroke="none"
        />
        <path
          d="M 1.0960693359375 1.109107971191406 L 4.132080078125 37.4788703918457 L 580.5001220703125 92.45875549316406 L 577.4641723632812 56.08899307250977 L 1.0960693359375 1.109107971191406 M 0 0 L 578.3911743164062 55.17285919189453 L 581.59619140625 93.56786346435547 L 3.205078125 38.39500427246094 L 0 0 Z"
          stroke="none"
          fill="#707070"
        />
      </g>
      <path
        id="Path_113"
        data-name="Path 113"
        d="M420.838,218.194V0h159.8V218.194h421.595V416.756H580.637V653h-159.8V416.756H0V218.194Z"
        transform="translate(102.739 97.84)"
        fill="#fff"
      />
      <g id="Union_33" data-name="Union 33" transform="translate(67.545 114.84)" fill="#c8102e">
        <path
          d="M 583.4020385742188 635.5003051757812 L 486.8187561035156 635.5003051757812 L 486.8187561035156 360.9999084472656 L 486.8187561035156 360.4999084472656 L 486.3187561035156 360.4999084472656 L 0.5000109672546387 360.4999084472656 L 0.5000109672546387 240.5002746582031 L 486.3187561035156 240.5002746582031 L 486.8187561035156 240.5002746582031 L 486.8187561035156 240.0002746582031 L 486.8187561035156 0.500027596950531 L 583.4020385742188 0.500027596950531 L 583.4020385742188 240.0002746582031 L 583.4020385742188 240.5002746582031 L 583.9020385742188 240.5002746582031 L 1020.928771972656 240.5002746582031 L 1020.928771972656 360.4999084472656 L 583.9020385742188 360.4999084472656 L 583.4020385742188 360.4999084472656 L 583.4020385742188 360.9999084472656 L 583.4020385742188 635.5003051757812 Z"
          stroke="none"
        />
        <path
          d="M 582.9020385742188 635.0003051757812 L 582.9020385742188 359.9999084472656 L 1020.428771972656 359.9999084472656 L 1020.428771972656 241.0002746582031 L 582.9020385742188 241.0002746582031 L 582.9020385742188 1.000027537345886 L 487.3187561035156 1.000027537345886 L 487.3187561035156 241.0002746582031 L 1.000010967254639 241.0002746582031 L 1.000010967254639 359.9999084472656 L 487.3187561035156 359.9999084472656 L 487.3187561035156 635.0003051757812 L 582.9020385742188 635.0003051757812 M 583.9020385742188 636.0003051757812 L 486.3187561035156 636.0003051757812 L 486.3187561035156 360.9999084472656 L 1.098632856155746e-05 360.9999084472656 L 1.098632856155746e-05 240.0002746582031 L 486.3187561035156 240.0002746582031 L 486.3187561035156 2.75878901447868e-05 L 583.9020385742188 2.75878901447868e-05 L 583.9020385742188 240.0002746582031 L 1021.428771972656 240.0002746582031 L 1021.428771972656 360.9999084472656 L 583.9020385742188 360.9999084472656 L 583.9020385742188 636.0003051757812 Z"
          stroke="none"
          fill="#707070"
        />
      </g>
    </g>
  </g>
</svg>
