<svg xmlns="http://www.w3.org/2000/svg" width="100" height="100" viewBox="0 0 100 100">
  <g id="github_light" transform="translate(-1555 -995)">
    <path id="Subtraction_70" data-name="Subtraction 70" d="M29.352,82.927c-1.056-.343-2.111-.733-3.137-1.159s-2.033-.892-3.015-1.393A42.669,42.669,0,0,1,4.795,62.13c-.51-.978-.987-1.988-1.419-3S2.543,57.056,2.19,56A42.445,42.445,0,0,1,0,42.5a43.184,43.184,0,0,1,.219-4.345,42.606,42.606,0,0,1,.644-4.22c.28-1.369.633-2.74,1.047-4.073s.891-2.632,1.429-3.9,1.135-2.511,1.79-3.715,1.366-2.375,2.129-3.5S8.841,16.513,9.7,15.466s1.785-2.06,2.743-3.018,1.973-1.881,3.018-2.743,2.148-1.687,3.272-2.447,2.308-1.479,3.5-2.129S24.7,3.873,25.957,3.34s2.586-1.019,3.9-1.429c1.333-.415,2.7-.767,4.073-1.047a42.607,42.607,0,0,1,4.22-.644,43.137,43.137,0,0,1,8.691,0,42.607,42.607,0,0,1,4.22.644c1.369.28,2.74.633,4.073,1.047,1.318.41,2.632.891,3.9,1.429s2.511,1.135,3.715,1.79,2.375,1.366,3.5,2.129,2.225,1.582,3.272,2.447,2.06,1.785,3.018,2.743,1.881,1.973,2.743,3.018,1.687,2.148,2.447,3.272,1.479,2.308,2.129,3.5,1.256,2.454,1.79,3.715,1.019,2.586,1.429,3.9.767,2.7,1.047,4.073a42.606,42.606,0,0,1,.644,4.22A43.182,43.182,0,0,1,85,42.5,42.442,42.442,0,0,1,82.811,56c-.352,1.051-.751,2.1-1.185,3.123s-.908,2.023-1.418,3A42.67,42.67,0,0,1,61.815,80.367c-.982.5-2,.971-3.014,1.394s-2.08.817-3.135,1.16l0-.011h0a4.715,4.715,0,0,1-.767-.081,3.36,3.36,0,0,1-.658-.19,1.689,1.689,0,0,1-.572-.368,2,2,0,0,1-.347-.483,1.957,1.957,0,0,1-.162-.443,1.606,1.606,0,0,1-.046-.449V67.987a10.016,10.016,0,0,0-.063-1.192,10.481,10.481,0,0,0-.193-1.174,7.626,7.626,0,0,0-.4-1.278,7.8,7.8,0,0,0-.639-1.189,11.088,11.088,0,0,0-.715-.979,10.849,10.849,0,0,0-.822-.908s.549-.041,1.426-.165a34.915,34.915,0,0,0,3.483-.678,26.55,26.55,0,0,0,4.348-1.465,15.032,15.032,0,0,0,4.022-2.527,19.46,19.46,0,0,0,1.583-1.614,17.2,17.2,0,0,0,1.3-1.7,16.578,16.578,0,0,0,1.05-1.8A17.528,17.528,0,0,0,68.31,49.4a28.747,28.747,0,0,0,1.429-9.056,15.492,15.492,0,0,0-.614-4.708A17.38,17.38,0,0,0,67.6,32a17.873,17.873,0,0,0-1.559-2.343,10.841,10.841,0,0,0-.715-.83,10.466,10.466,0,0,0,.473-1.5,14.019,14.019,0,0,0,.3-1.664,13.451,13.451,0,0,0,.088-2.086,15.633,15.633,0,0,0-.252-2.207c-.114-.624-.264-1.273-.447-1.93-.314-1.126-.613-1.879-.616-1.886a6.6,6.6,0,0,0-.706-.031,12.023,12.023,0,0,0-1.862.153,13.353,13.353,0,0,0-2.64.7,20.561,20.561,0,0,0-2.228,1.026c-.652.343-1.348.741-2.068,1.181-1.233.754-2.108,1.374-2.117,1.38a22.4,22.4,0,0,0-2.8-.719c-1.043-.209-2.139-.375-3.258-.494a40.518,40.518,0,0,0-4.277-.225h-.134c-1.457,0-2.932.083-4.385.233-1.162.12-2.313.286-3.42.493a28.007,28.007,0,0,0-3.016.711c-.007-.005-.7-.529-1.8-1.221-.644-.4-1.3-.783-1.944-1.126a25.462,25.462,0,0,0-2.367-1.114,12.382,12.382,0,0,0-4.619-1,5.335,5.335,0,0,0-.913.063,15.336,15.336,0,0,0-.6,1.746,19.326,19.326,0,0,0-.438,1.893,16.973,16.973,0,0,0-.255,2.316,14.6,14.6,0,0,0,.082,2.221,13.045,13.045,0,0,0,.3,1.682,8.344,8.344,0,0,0,.48,1.439,7.193,7.193,0,0,0-.665.689,13.337,13.337,0,0,0-1.471,2.1,16.273,16.273,0,0,0-1.491,3.575,19.525,19.525,0,0,0-.725,5.1,32.3,32.3,0,0,0,.122,3.471c.065.7.157,1.4.273,2.06a22.09,22.09,0,0,0,.5,2.183A16.724,16.724,0,0,0,21.867,56.6a18.347,18.347,0,0,0,4.185,2.464,27.5,27.5,0,0,0,4.21,1.413,32.365,32.365,0,0,0,3.249.642c.8.115,1.3.151,1.3.152a7.162,7.162,0,0,0-.63.683,9.666,9.666,0,0,0-.6.807,9.269,9.269,0,0,0-.614,1.077A8.316,8.316,0,0,0,32.515,65a9.321,9.321,0,0,0-.25,1.011,7.4,7.4,0,0,0-.126.979h0c-.072.027-.724.267-1.576.506-.524.147-1.019.264-1.471.348a8.292,8.292,0,0,1-1.482.158c-.085,0-.169,0-.248-.007l-.195-.011h0a13.658,13.658,0,0,1-1.5-.139,6.984,6.984,0,0,1-1.727-.5,7.079,7.079,0,0,1-.931-.5,8.28,8.28,0,0,1-.967-.722,10.575,10.575,0,0,1-1-.989,14.342,14.342,0,0,1-1.017-1.3,25.135,25.135,0,0,0-1.646-2.145,11.683,11.683,0,0,0-.826-.861,6.271,6.271,0,0,0-.813-.65,6.489,6.489,0,0,0-3.384-1.116h-.1c-.327,0-1.963.039-2,.813a.9.9,0,0,0,.257.691,3.781,3.781,0,0,0,.627.574,12.268,12.268,0,0,0,1.216.791c1.942,1.2,2.932,3.24,4.186,5.826l.012.025.156.321a9.808,9.808,0,0,0,.627,1.17,8.217,8.217,0,0,0,1.041,1.33,8.677,8.677,0,0,0,3.876,2.264,13.926,13.926,0,0,0,3.841.462,27.276,27.276,0,0,0,3.4-.231c.877-.113,1.459-.23,1.465-.231V80.9a1.36,1.36,0,0,1-.036.418,2.005,2.005,0,0,1-.155.439,2.43,2.43,0,0,1-.343.518,1.769,1.769,0,0,1-.957.519,3.991,3.991,0,0,1-.908.1c-.111,0-.183,0-.191-.005l-.018.041Z" transform="translate(1562.5 1003.536)" fill="#167f00"/>
    <rect id="Rectangle_146" data-name="Rectangle 146" width="100" height="100" transform="translate(1555 995)" fill="none"/>
  </g>
</svg>
