<svg xmlns="http://www.w3.org/2000/svg" width="500" height="500" viewBox="0 0 500 500">
  <g id="java_script_logo" transform="translate(42 -7062)">
    <rect id="Rectangle_497" data-name="Rectangle 497" width="500" height="500" transform="translate(-42 7062)" fill="#f7df1e"/>
    <g id="Group_727" data-name="Group 727" transform="translate(89.521 7288.837)">
      <path id="Path_858" data-name="Path 858" d="M93,0h47.412l.224,165.239c-.542,29.035-15.493,67.4-71.126,66.636S-.567,187.954-.567,187.954l38.558-23.136c4.995,8.914,10.432,24.277,31.52,24.365s23.1-15.578,23.489-27.23Z" transform="translate(0.567 2.538)"/>
      <path id="Path_859" data-name="Path 859" d="M14.191,62.265C14.227,27.845,39.818,1.122,83.9.941s57.626,25.46,66.351,37.712L113.6,62.265c-11.26-22.322-29.7-20.3-29.7-20.3s-23.168-1.617-23.4,20.3c.131,13.972,4.1,18.486,47.981,36.363,36.655,15.529,55.8,37.739,55.231,70.589-.174,22.631-11.872,65.814-77.719,65.766S0,187.072,0,187.072l38.215-22.233c17.9,31.657,46.739,28.343,46.739,28.343s33.642-1.02,31.642-23.341c-1.07-15.6-5.945-19.57-56.093-40.516C13.505,108.559,13.884,71.564,14.191,62.265Z" transform="translate(165.979 -0.94)"/>
    </g>
  </g>
</svg>
