<svg xmlns="http://www.w3.org/2000/svg" width="100" height="100" viewBox="0 0 100 100">
  <g id="Group_62" data-name="Group 62" transform="translate(3698 -6254)">
    <g id="Group_61" data-name="Group 61" transform="translate(-0.5)">
      <circle id="Ellipse_25" data-name="Ellipse 25" cx="25" cy="25" r="25" transform="translate(-3673 6279)" fill="none" />
      <path
        id="Union_14"
        data-name="Union 14"
        d="M43.5,89.5v-11a2.5,2.5,0,0,1,5,0v11a2.5,2.5,0,0,1-5,0Zm18.979-8.615-2.91-5.248a2.5,2.5,0,1,1,4.373-2.424l2.91,5.248a2.5,2.5,0,1,1-4.373,2.424Zm-36.356.975a2.5,2.5,0,0,1-.974-3.4l2.909-5.247a2.5,2.5,0,1,1,4.373,2.424l-2.909,5.248a2.5,2.5,0,0,1-3.4.975ZM20.5,46a25,25,0,1,1,25,25A25,25,0,0,1,20.5,46ZM31.358,31.858A20,20,0,1,0,45.5,26,19.868,19.868,0,0,0,31.358,31.858ZM78.092,67.415l-5.2-3a2.5,2.5,0,0,1,2.5-4.33l5.2,3a2.5,2.5,0,0,1-2.5,4.331ZM9.8,65.248a2.5,2.5,0,0,1,1.033-3.381l5.3-2.816a2.5,2.5,0,1,1,2.348,4.415l-5.3,2.817A2.5,2.5,0,0,1,9.8,65.248ZM78.5,48.5a2.5,2.5,0,0,1,0-5h11a2.5,2.5,0,0,1,0,5Zm-76,0a2.5,2.5,0,0,1,0-5h11a2.5,2.5,0,1,1,0,5ZM72.488,31.915a2.5,2.5,0,0,1,1.033-3.38l5.3-2.817a2.5,2.5,0,0,1,2.347,4.414l-5.3,2.817a2.5,2.5,0,0,1-3.381-1.034Zm-55.884,0-5.2-3a2.5,2.5,0,1,1,2.5-4.33l5.2,3a2.5,2.5,0,0,1-2.5,4.331Zm43.94-12.154a2.5,2.5,0,0,1-.975-3.4l2.91-5.248a2.5,2.5,0,1,1,4.373,2.425l-2.91,5.247a2.5,2.5,0,0,1-3.4.975Zm-32.486-.975-2.909-5.248a2.5,2.5,0,1,1,4.373-2.424l2.909,5.248a2.5,2.5,0,1,1-4.373,2.424ZM43.5,13.5V2.5a2.5,2.5,0,0,1,5,0v11a2.5,2.5,0,1,1-5,0Z"
        transform="translate(-3693.5 6258)"
      />
    </g>
    <rect id="Rectangle_51" data-name="Rectangle 51" width="100" height="100" transform="translate(-3698 6254)" fill="none" />
  </g>
</svg>
