<svg xmlns="http://www.w3.org/2000/svg" width="100" height="100" viewBox="0 0 100 100">
  <g id="linkedin_light" transform="translate(259 -762)">
    <rect id="Rectangle_145" data-name="Rectangle 145" width="100" height="100" transform="translate(-259 762)" fill="none"/>
    <path id="Subtraction_67" data-name="Subtraction 67" d="M71.844,79.844H8a8.009,8.009,0,0,1-8-8V8A8.009,8.009,0,0,1,8,0H71.844a8.009,8.009,0,0,1,8,8V71.844A8.009,8.009,0,0,1,71.844,79.844ZM51.216,40.476a5.9,5.9,0,0,1,3.643,1.132A6.478,6.478,0,0,1,56.8,44.1a10.568,10.568,0,0,1,.906,3.622V68.438a3.346,3.346,0,0,0,.869,2.385,1.958,1.958,0,0,0,1.416.659l.072,0H69.5a2.768,2.768,0,0,0,2.362-3.042l-.314-23.432c0-.069.209-6.941-3.386-11.481-3.787-4.268-7.584-5.2-12.118-5.294-.151,0-.3,0-.452,0-4.779,0-7.648,1.562-9.213,2.872A8.09,8.09,0,0,0,44.1,33.971V31.937A3.045,3.045,0,0,0,41.063,28.9h-7.6a3.045,3.045,0,0,0-3.042,3.041v36.5a3.045,3.045,0,0,0,3.042,3.042h7.6A3.045,3.045,0,0,0,44.1,68.438V47.721a8.984,8.984,0,0,1,1.151-4.042,6.41,6.41,0,0,1,5.878-3.2ZM15.406,28.9a4,4,0,0,0-4,4V67.479a4,4,0,0,0,4,4h5.688a4,4,0,0,0,4-4V32.9a4,4,0,0,0-4-4ZM17.869,8.365a8.745,8.745,0,1,0,8.745,8.744A8.754,8.754,0,0,0,17.869,8.365Z" transform="translate(-248.922 772.078)" fill="#167f00"/>
  </g>
</svg>
