<svg xmlns="http://www.w3.org/2000/svg" width="94" height="69" viewBox="0 0 94 69">
  <path id="message_dark_logo" d="M92,72.443H18a9.958,9.958,0,0,1-3.577-.659l27.89-35.23c3.185,2.295,6.8,4.9,11.069,7.96a3.5,3.5,0,0,0,4.127-.032l10.616-7.872L95.877,71.663A9.94,9.94,0,0,1,92,72.443ZM9.17,67.141h0A10.018,10.018,0,0,1,8,62.443v-49a10.081,10.081,0,0,1,.178-1.89C13.689,15.764,23,22.6,36.631,32.454L9.171,67.14Zm91.815-.3h0l-27.233-34.4,28.082-20.825a10.082,10.082,0,0,1,.167,1.83v49a9.9,9.9,0,0,1-1.015,4.394Zm-45.595-29.5h0c-15.109-10.86-34.434-24.9-43.547-31.776A9.9,9.9,0,0,1,18,3.442H92a9.9,9.9,0,0,1,6.2,2.151L55.391,37.337Z" transform="translate(-8 -3.443)" fill="#37a71f"/>
</svg>
