<svg xmlns="http://www.w3.org/2000/svg" width="500" height="500" viewBox="0 0 500 500">
  <g id="node_js_logo" transform="translate(585 -9240)">
    <rect id="Rectangle_498" data-name="Rectangle 498" width="500" height="500" transform="translate(-585 9240)" fill="none"/>
    <path id="Union_133" data-name="Union 133" d="M199.075,492.766,137.4,455.846s-1.589-1-1.368-2.411a1.91,1.91,0,0,1,1.368-1.652,102.752,102.752,0,0,0,14.719-5.358,149.791,149.791,0,0,0,15.249-7.889,4.621,4.621,0,0,1,1.766-.412,5.636,5.636,0,0,1,1.884.412l46.02,27.9a7.923,7.923,0,0,0,9.055,0l180.474-104.5a8.287,8.287,0,0,0,3.131-2.827,10.948,10.948,0,0,0,.565-4.4V144.776a8.919,8.919,0,0,0-.841-4.125,7.772,7.772,0,0,0-2.995-2.7L225.165,33.679A7.744,7.744,0,0,0,221.3,32.5a6.648,6.648,0,0,0-3.971,1.238L36.126,137.756a6.812,6.812,0,0,0-2.583,2.406,8.562,8.562,0,0,0-1.335,3.943V354.982a8.778,8.778,0,0,0,.9,4.416,6.747,6.747,0,0,0,3.383,2.388l47.959,27.561s21.293,11.443,33.73,2.289,11.542-16.318,11.555-26.089V162.615a5.9,5.9,0,0,1,1.185-3.9,5.269,5.269,0,0,1,3.859-1.814h23.71s2.869-.011,4.224,1.814a6.19,6.19,0,0,1,1.157,3.9l.014,209.655s2.185,36.954-27.856,50.908-61.8-2.442-61.8-2.442l-51.409-28.8A51.2,51.2,0,0,1,5.808,376.757C-1.306,366.538.116,351.887.116,351.887V152.052s-1.293-17.307,5.045-27.267,18.92-16.563,18.92-16.563L199.353,7.07S210.084-.272,222.39.008,244.754,7.07,244.754,7.07L421.907,109.537s10.753,5.536,16.7,15.5,4.831,22.346,4.831,22.346V352.541s.9,12.325-4.472,22.275-15.906,15.768-15.906,15.768L246.7,492.766a52.008,52.008,0,0,1-23.942,7.219q-.509.015-1.011.015C208.9,500,199.075,492.766,199.075,492.766Zm-18-205.908s-.158-2.8,1.083-4.362,3.881-1.891,3.881-1.891h25.273A4.938,4.938,0,0,1,214.6,282.1a5.36,5.36,0,0,1,1.194,2.587c2.488,14.626,3.336,37.7,63.109,37.206s55.144-23.565,54.963-29.271c.181-21.306-37.653-23.553-76.833-27.926-54.986-6.894-68.826-25.815-69.235-53.918,0,0-6.159-61.165,86.011-60.7s89.044,63.83,89.044,63.83a12.8,12.8,0,0,1-.694,4.518c-.8,1.99-3.482,2.588-3.482,2.588h-24.81a6.64,6.64,0,0,1-3.548-1.294,6.435,6.435,0,0,1-1.592-3.383c-3.423-8.136-1.237-32.686-53.117-33.12s-51.366,17.417-51.721,26.144c.691,20.868,39.366,20.868,76.36,26.249,43.888,4.709,69.448,19.674,69.992,53.186,0,0,7.1,64.647-91.337,65.576-.817.008-1.632.012-2.436.012C180.468,354.377,181.358,299.9,181.077,286.857Z" transform="translate(-556.762 9240)" fill="#539e43"/>
  </g>
</svg>
