<svg xmlns="http://www.w3.org/2000/svg" width="500" height="500" viewBox="0 0 500 500">
  <g id="react_js_native_logo" transform="translate(219 -10009)">
    <rect id="Rectangle_499" data-name="Rectangle 499" width="500" height="500" transform="translate(-219 10009)" fill="none"/>
    <path id="Union_128" data-name="Union 128" d="M350.737,444.976a79.27,79.27,0,0,1-24.587-4.323,140.2,140.2,0,0,1-26.439-12.2A229.39,229.39,0,0,1,271.634,408.9c-7.161-5.767-14.408-12.188-21.634-19.163-7.225,6.975-14.472,13.395-21.632,19.162a229.413,229.413,0,0,1-28.078,19.554,140.189,140.189,0,0,1-26.439,12.2,79.253,79.253,0,0,1-24.588,4.323,47.513,47.513,0,0,1-24.153-6.077c-7.962-4.615-14.351-11.941-18.99-21.774-4.18-8.86-6.9-19.729-8.079-32.3-2.065-21.97.594-48.878,7.7-78.341a308.246,308.246,0,0,1-37.015-12.84,187.648,187.648,0,0,1-36.06-19.756c-10.291-7.4-18.293-15.373-23.783-23.689-6-9.086-8.986-18.5-8.878-27.988.2-17.844,11.774-35.4,33.463-50.759a194.838,194.838,0,0,1,35.672-19.485A314.268,314.268,0,0,1,104.8,139.307l-.041-.146.148-.039a307.673,307.673,0,0,1-7.313-38.241,187.376,187.376,0,0,1-.9-41.054c1.27-12.6,4.174-23.5,8.629-32.4,4.868-9.726,11.526-17.014,19.788-21.659A47.285,47.285,0,0,1,148.583,0a79.185,79.185,0,0,1,24.929,4.468,142.822,142.822,0,0,1,26.675,12.453,235.916,235.916,0,0,1,28.2,19.716C235.54,42.4,242.782,48.8,250,55.742c7.218-6.937,14.459-13.339,21.612-19.1a235.928,235.928,0,0,1,28.2-19.717A142.842,142.842,0,0,1,326.488,4.469,79.173,79.173,0,0,1,351.417,0a52.517,52.517,0,0,1,12.214,1.385,43.764,43.764,0,0,1,11.263,4.381c8.268,4.649,14.93,11.944,19.8,21.682,4.456,8.912,7.358,19.827,8.624,32.441A187.631,187.631,0,0,1,402.4,101a308.126,308.126,0,0,1-7.351,38.331l.147.039-.042.146c29.009,8.572,53.592,19.708,71.557,32.461,10.3,7.311,18.351,15.1,23.933,23.15,6.2,8.934,9.344,18.13,9.36,27.333.016,9.307-3.035,18.582-9.069,27.567-5.519,8.22-13.517,16.124-23.77,23.494A190.094,190.094,0,0,1,431.175,293.3a309.021,309.021,0,0,1-36.969,12.952c7.137,29.518,9.817,56.48,7.76,78.495-1.177,12.593-3.893,23.476-8.073,32.348-4.64,9.847-11.033,17.182-19,21.8a47.5,47.5,0,0,1-24.142,6.077ZM307.39,321.732a503.422,503.422,0,0,1-42.469,52.781c6.727,6.488,13.456,12.448,20.085,17.787a208.127,208.127,0,0,0,25.44,17.738A118.96,118.96,0,0,0,332.814,420.4a58.179,58.179,0,0,0,17.924,3.255l.009,10.66,0-10.66a26.553,26.553,0,0,0,13.456-3.2c4.148-2.4,7.65-6.59,10.407-12.442,3.123-6.628,5.186-15.122,6.133-25.245,1.837-19.653-.647-44.12-7.192-71.245A504.55,504.55,0,0,1,307.39,321.732Zm-188.125,61.1c.95,10.106,3.014,18.585,6.136,25.2,2.756,5.842,6.255,10.022,10.4,12.424a26.553,26.553,0,0,0,13.456,3.2,58.2,58.2,0,0,0,17.93-3.255,119.012,119.012,0,0,0,22.37-10.366A208.148,208.148,0,0,0,214.994,392.3c6.629-5.339,13.357-11.3,20.084-17.785a503.422,503.422,0,0,1-42.451-52.756,511.034,511.034,0,0,1-66.214-10.072C119.889,338.775,117.421,363.206,119.265,382.828ZM250,359.25a462.923,462.923,0,0,0,29.668-35.663c-9.7.431-19.563.649-29.492.649-10.078,0-20.049-.22-29.845-.65A462.976,462.976,0,0,0,250,359.25ZM204.475,143.479c-8.424,12.306-16.587,25.278-24.306,38.63-7.71,13.335-14.864,26.891-21.3,40.363,6.465,13.306,13.646,26.813,21.383,40.218s15.853,26.377,24.163,38.625c14.8,1.061,30.132,1.6,45.665,1.6s30.791-.542,45.518-1.613c8.308-12.244,16.421-25.212,24.156-38.614s14.918-26.913,21.383-40.218c-6.44-13.474-13.594-27.03-21.3-40.363-7.724-13.36-15.891-26.338-24.317-38.645-14.717-1.142-29.848-1.719-45.058-1.719Q226.818,141.759,204.475,143.479ZM132,291.089c14.263,3.161,29.369,5.708,45.173,7.618-5.255-8.233-10.4-16.711-15.393-25.359-4.945-8.567-9.672-17.179-14.141-25.762A456.712,456.712,0,0,0,132,291.089Zm206.211-17.741c-4.981,8.629-10.115,17.088-15.358,25.3,15.757-1.936,30.835-4.517,45.09-7.721a456.961,456.961,0,0,0-15.59-43.345C347.887,256.168,343.16,264.779,338.216,273.348ZM77.542,171.557a173.666,173.666,0,0,0-31.754,17.29c-15.658,11.091-24.347,23.025-24.468,33.6-.058,5.149,1.742,10.532,5.352,16C30.729,244.6,36.934,250.7,45.114,256.58a166.483,166.483,0,0,0,31.949,17.441A286.592,286.592,0,0,0,111.3,285.9a494.615,494.615,0,0,1,23.985-63.321l-.012-.027.011-.025a510.848,510.848,0,0,1-24.528-62.754A292.9,292.9,0,0,0,77.542,171.557Zm287.17,50.972.012.025-.012.027a494.877,494.877,0,0,1,23.918,63.1,287.313,287.313,0,0,0,34.152-11.971,168.939,168.939,0,0,0,31.936-17.5c8.185-5.883,14.415-11.962,18.514-18.067,3.624-5.4,5.458-10.662,5.449-15.646-.008-4.791-1.878-9.912-5.559-15.22-4.169-6.012-10.479-12.04-18.755-17.915-16.071-11.408-38.464-21.486-65.189-29.381A511.172,511.172,0,0,1,364.712,222.529Zm-26.424-51.091c4.984,8.621,9.746,17.335,14.246,26.065,6.257-14.658,11.611-29.031,16.011-42.981a456.835,456.835,0,0,0-45.573-8.218C328.224,154.486,333.344,162.889,338.287,171.438ZM131.412,154.385c4.408,13.993,9.777,28.412,16.054,43.118,4.5-8.729,9.262-17.444,14.246-26.065,4.948-8.557,10.073-16.967,15.332-25.158A462.515,462.515,0,0,0,131.412,154.385Zm201.842-129.7A121.688,121.688,0,0,0,310.612,35.3a214.665,214.665,0,0,0-25.622,17.935c-6.612,5.328-13.32,11.255-20.026,17.691a502.83,502.83,0,0,1,42.328,52.156A494.834,494.834,0,0,1,374.4,134a286.625,286.625,0,0,0,6.833-35.593,166.479,166.479,0,0,0,.87-36.389c-1.007-10.026-3.186-18.449-6.48-25.034-2.93-5.859-6.691-10.11-11.18-12.634a22.445,22.445,0,0,0-5.781-2.232,31.2,31.2,0,0,0-7.247-.8A58.125,58.125,0,0,0,333.254,24.686Zm-197.7-.336c-4.485,2.522-8.244,6.767-11.173,12.619-3.291,6.576-5.472,14.986-6.482,25a166.228,166.228,0,0,0,.852,36.337,286.147,286.147,0,0,0,6.81,35.556A501.751,501.751,0,0,1,192.7,123.091a502.775,502.775,0,0,1,42.332-52.162c-6.706-6.437-13.415-12.364-20.027-17.692A214.556,214.556,0,0,0,189.387,35.3a121.638,121.638,0,0,0-22.642-10.617,58.128,58.128,0,0,0-18.162-3.366A26.318,26.318,0,0,0,135.555,24.349Zm85.06,96.774c9.724-.459,19.569-.693,29.454-.7q14.876,0,29.3.678C269.8,108.547,259.98,96.857,250,86.141Q235.019,102.225,220.615,121.124ZM204.666,222.331a45.2,45.2,0,1,1,45.2,45.2A45.2,45.2,0,0,1,204.666,222.331Z" transform="translate(-219 10036.512)" fill="#61dafb"/>
  </g>
</svg>
