<svg xmlns="http://www.w3.org/2000/svg" width="500" height="500" viewBox="0 0 500 500">
  <g id="redux_logo" transform="translate(1860 -9168)">
    <rect id="Rectangle_501" data-name="Rectangle 501" width="500" height="500" transform="translate(-1860 9168)" fill="none"/>
    <path id="Union_132" data-name="Union 132" d="M73.352,411.208c-49.992-82.725,21.969-167.057,62.4-193.074l8.516,31.322c-31.43,25.058-81.589,87.5-47.038,143.186,31.131,50.169,95.144,65.933,168.3,31.322a211.583,211.583,0,0,0,22.285-12.147c57.588-35.986,79.336-77.877,86.1-94.506a35.606,35.606,0,0,1-2.889-3.983,35.217,35.217,0,1,1,31.558,16.53c-7.458,15.118-38.682,72.573-98.28,108.347-32.184,21.435-73,34.024-112.395,34.027C144.556,472.238,99.248,454.06,73.352,411.208Zm267.736,39.518,23.266-22.634c37.154,15.341,116.089,28.937,148.038-28.277,28.787-51.551,11.54-115.179-54.2-162.381a211.346,211.346,0,0,0-21.429-13.6c-59.393-32.922-106.575-31.634-124.4-29.488a35.689,35.689,0,0,1-2.083,4.457,35.219,35.219,0,1,1-.842-35.614c16.839-.807,82.227-1.353,142.409,33.43,75.635,39.1,134.017,135.526,88.353,215.081-26.055,45.394-69.863,59.741-111.278,59.741C393.86,471.44,360.508,461.157,341.088,450.727ZM193.8,339.556a35.073,35.073,0,0,1,4.495-17.233c-8.869-14.336-41.047-71.262-39.8-140.761C156.017,96.455,212.051-1.355,303.77.014,400.417,1.456,433.8,107.171,434.439,155.244l-31.075-9.376c-4.595-39.933-30.973-115.562-96.5-115.768-59.043-.185-106.333,45.747-115.746,126.125a211.568,211.568,0,0,0-1.508,25.336c0,67.907,24,108.548,34.52,123.1a35.653,35.653,0,0,1,4.908-.339A35.236,35.236,0,1,1,193.8,339.556Z" transform="translate(-1916.309 9181.883)" fill="#764abc"/>
  </g>
</svg>
