<svg xmlns="http://www.w3.org/2000/svg" width="161.29" height="157.097" viewBox="0 0 161.29 157.097">
  <path
    id="Path_218"
    data-name="Path 218"
    d="M-399.461,1174.652l-11.338-55.223s-1.75-4.433.614-6.5,5.687,0,5.687,0l153.056,75.1s1.3.5,1.3,1.245-1.3,1.222-1.3,1.222l-152.57,77.422s-3.7,2.141-6.06.677-.92-5.96-.92-5.96l11.582-57.05a10.586,10.586,0,0,1,3.074-5.219c2.359-1.975,6.363-2.681,6.363-2.681l77.726-7.114s2.266-.338,2.266-1.345-2.266-1.358-2.266-1.358l-77.708-5.305s-4,.189-6.381-1.788S-399.461,1174.652-399.461,1174.652Z"
    transform="translate(411.429 -1112.006)"
    fill="#fff"
  />
</svg>
