<svg xmlns="http://www.w3.org/2000/svg" width="110" height="109" viewBox="0 0 110 109">
  <g id="whatsapp_dark_logo" transform="translate(176 -5563)">
    <g id="Group_74" data-name="Group 74" transform="translate(-569.734 1745.281)">
      <path id="Path_217" data-name="Path 217" d="M7.837-.018a33.24,33.24,0,0,1,3.319.206,1.841,1.841,0,0,1,.993.429,3.714,3.714,0,0,1,.74,1.128L16.765,12.23a1.828,1.828,0,0,1,.095,1.209,5.073,5.073,0,0,1-.817,1.458l-2.949,3.436a2.029,2.029,0,0,0-.726,1.014,2.141,2.141,0,0,0,.277,1.239,39.926,39.926,0,0,0,7,9.4,37.507,37.507,0,0,0,9.659,6.24,2.462,2.462,0,0,0,1.445.394,2.4,2.4,0,0,0,1.228-.834L36,31.145a2.49,2.49,0,0,1,1.213-.869,2.492,2.492,0,0,1,1.46.311l10.221,5.4s.572.385.693.715a2.155,2.155,0,0,1,.076.8s.184,4.54-2.874,7.2a14.244,14.244,0,0,1-9.28,3.738c-2.138.086-16.375-3.611-25.21-13.305C3.267,25.668-.555,16.386-.188,12.172.274,5.161,4.817-.146,7.837-.018Z" transform="translate(425.671 3846.925)" fill="#37a71f"/>
      <path id="Path_218" data-name="Path 218" d="M-6.005-35a48.823,48.823,0,0,1,48.74,48.8,48.823,48.823,0,0,1-48.74,48.8,47.671,47.671,0,0,1-23.511-5.974l-27.749,8.82,2.76-7.575c3.241-8.9,5.629-15.937,6.667-19.049A49.8,49.8,0,0,1-54.745,13.8,48.823,48.823,0,0,1-6.005-35Zm0,89.667A40.889,40.889,0,0,0,34.809,13.8,40.889,40.889,0,0,0-6.005-27.075,40.889,40.889,0,0,0-46.82,13.8,41.807,41.807,0,0,0-40.165,36.16l1.021,1.583-.584,1.791c-.022.068-1.758,5.387-4.618,13.481l15.823-5.029,1.541.938A39.744,39.744,0,0,0-6.005,54.667Z" transform="translate(456 3857)" fill="#37a71f"/>
    </g>
    <rect id="Rectangle_67" data-name="Rectangle 67" width="110" height="109" transform="translate(-176 5563)" fill="none"/>
  </g>
</svg>
